<svg xmlns="http://www.w3.org/2000/svg" width="660" height="300" viewBox="0 0 660 300">
    <g fill="none" fill-rule="evenodd">
        <g>
            <g>
                <path fill="#DEEBF7" d="M114.687 294.932L546.725 294.932 546.725 19.257 114.687 19.257z" transform="translate(-210 -977) translate(210 977)"/>
                <path fill="#424244" d="M86.29 296.959L95.418 296.959 95.418 18.243 86.29 18.243zM564.98 295.946L574.107 295.946 574.107 17.23 564.98 17.23zM112.659 296.96h435.08V16.215h-435.08V296.96zm2.683-2.689h429.714V18.902H115.342v275.37z" transform="translate(-210 -977) translate(210 977)"/>
                <path fill="#424244" d="M114.687 150L546.725 150 546.725 146.959 114.687 146.959z" transform="translate(-210 -977) translate(210 977)"/>
                <path fill="#424244" d="M251.6 295.946L254.643 295.946 254.643 19.257 251.6 19.257zM405.755 295.946L408.797 295.946 408.797 19.257 405.755 19.257z" transform="translate(-210 -977) translate(210 977)"/>
                <g>
                    <path fill="#FEFEFE" d="M1.786 60.706L103.761 60.706 103.761 2.514 1.786 2.514z" transform="translate(-210 -977) translate(210 977) translate(276.955 48.649)"/>
                    <path fill="#302420" d="M2.236 60.26h101.08V2.962H2.235v57.296zm101.525.893H1.789c-.25 0-.45-.198-.45-.447V2.514c0-.247.2-.445.45-.445H103.76c.249 0 .447.198.447.445v58.192c0 .25-.198.447-.447.447z" transform="translate(-210 -977) translate(210 977) translate(276.955 48.649)"/>
                    <path fill="#EF4F30" d="M1.786 7.637L103.761 7.637 103.761 1.262 1.786 1.262z" transform="translate(-210 -977) translate(210 977) translate(276.955 48.649)"/>
                    <path fill="#302420" d="M2.236 7.193h101.08V1.709H2.235v5.484zm101.525.894H1.789c-.25 0-.45-.2-.45-.45V1.264c0-.249.2-.45.45-.45H103.76c.249 0 .447.201.447.45v6.373c0 .25-.198.45-.447.45z" transform="translate(-210 -977) translate(210 977) translate(276.955 48.649)"/>
                    <path fill="#EF4F30" d="M17.22 45.583H87l5.058-9.324c.2-.544.189-1.003-.053-1.334-.487-.67-1.828-.757-2.302-.738l-72.482.003v11.393zm70.043.447h-70.49V24.527c.337-4.024 4.05-3.91 4.08-3.905h70.123v.447H20.844c-.145-.007-3.325-.097-3.623 3.478v9.196h72.472c.073-.005 1.949-.08 2.675.916.334.464.367 1.063.096 1.783l-5.2 9.588z" transform="translate(-210 -977) translate(210 977) translate(276.955 48.649)"/>
                    <path fill="#EF4F30" d="M49.702 45.909L49.303 45.706 62.113 20.744 62.51 20.947zM31.504 45.804L31.951 45.804 31.951 20.845 31.504 20.845z" transform="translate(-210 -977) translate(210 977) translate(276.955 48.649)"/>
                    <path fill="#FEFEFE" d="M91.215 20.848c0 .665-.542 1.206-1.21 1.206-.668 0-1.21-.541-1.21-1.206 0-.67.542-1.209 1.21-1.209.668 0 1.21.54 1.21 1.209" transform="translate(-210 -977) translate(210 977) translate(276.955 48.649)"/>
                    <path fill="#302420" d="M90.006 19.861c-.545 0-.985.445-.985.986 0 .542.44.982.985.982.545 0 .985-.44.985-.982 0-.541-.44-.986-.985-.986m0 2.415c-.791 0-1.433-.64-1.433-1.429 0-.79.642-1.433 1.433-1.433s1.433.643 1.433 1.433c0 .788-.642 1.429-1.433 1.429" transform="translate(-210 -977) translate(210 977) translate(276.955 48.649)"/>
                    <path fill="#FEFEFE" d="M63.522 20.848c0 .665-.544 1.206-1.21 1.206-.668 0-1.21-.541-1.21-1.206 0-.67.542-1.209 1.21-1.209.666 0 1.21.54 1.21 1.209" transform="translate(-210 -977) translate(210 977) translate(276.955 48.649)"/>
                    <path fill="#302420" d="M62.313 19.861c-.544 0-.985.445-.985.986 0 .542.44.982.985.982.545 0 .985-.44.985-.982 0-.541-.44-.986-.985-.986m0 2.415c-.791 0-1.432-.64-1.432-1.429 0-.79.64-1.433 1.432-1.433.792 0 1.433.643 1.433 1.433 0 .788-.641 1.429-1.433 1.429" transform="translate(-210 -977) translate(210 977) translate(276.955 48.649)"/>
                    <path fill="#FEFEFE" d="M32.937 20.848c0 .665-.543 1.206-1.208 1.206-.67 0-1.21-.541-1.21-1.206 0-.67.54-1.209 1.21-1.209.665 0 1.208.54 1.208 1.209" transform="translate(-210 -977) translate(210 977) translate(276.955 48.649)"/>
                    <path fill="#302420" d="M31.729 19.861c-.545 0-.988.445-.988.986 0 .542.443.982.988.982.542 0 .985-.44.985-.982 0-.541-.443-.986-.985-.986m0 2.415c-.792 0-1.433-.64-1.433-1.429 0-.79.641-1.433 1.433-1.433.791 0 1.433.643 1.433 1.433 0 .788-.642 1.429-1.433 1.429" transform="translate(-210 -977) translate(210 977) translate(276.955 48.649)"/>
                    <path fill="#FEFEFE" d="M18.204 33.968c0 .665-.542 1.204-1.208 1.204-.668 0-1.21-.54-1.21-1.204 0-.667.542-1.21 1.21-1.21.666 0 1.208.543 1.208 1.21" transform="translate(-210 -977) translate(210 977) translate(276.955 48.649)"/>
                    <path fill="#302420" d="M16.997 32.982c-.544 0-.987.442-.987.986 0 .541.443.981.987.981.543 0 .983-.44.983-.981 0-.544-.44-.986-.983-.986m0 2.414c-.79 0-1.435-.64-1.435-1.428 0-.79.644-1.436 1.435-1.436.79 0 1.43.645 1.43 1.436 0 .788-.64 1.428-1.43 1.428" transform="translate(-210 -977) translate(210 977) translate(276.955 48.649)"/>
                    <path fill="#FEFEFE" d="M32.939 33.968c0 .665-.542 1.204-1.21 1.204-.668 0-1.21-.54-1.21-1.204 0-.667.542-1.21 1.21-1.21.668 0 1.21.543 1.21 1.21" transform="translate(-210 -977) translate(210 977) translate(276.955 48.649)"/>
                    <path fill="#302420" d="M31.73 32.982c-.544 0-.985.442-.985.986 0 .541.44.981.985.981.542 0 .985-.44.985-.981 0-.544-.443-.986-.985-.986m0 2.414c-.789 0-1.433-.64-1.433-1.428 0-.79.644-1.436 1.433-1.436.791 0 1.433.645 1.433 1.436 0 .788-.642 1.428-1.433 1.428" transform="translate(-210 -977) translate(210 977) translate(276.955 48.649)"/>
                    <path fill="#FEFEFE" d="M56.199 33.968c0 .665-.542 1.204-1.208 1.204-.67 0-1.21-.54-1.21-1.204 0-.667.54-1.21 1.21-1.21.666 0 1.208.543 1.208 1.21" transform="translate(-210 -977) translate(210 977) translate(276.955 48.649)"/>
                    <path fill="#302420" d="M54.991 32.982c-.544 0-.987.442-.987.986 0 .541.443.981.987.981.545 0 .985-.44.985-.981 0-.544-.44-.986-.985-.986m0 2.414c-.791 0-1.435-.64-1.435-1.428 0-.79.644-1.436 1.435-1.436.79 0 1.43.645 1.43 1.436 0 .788-.64 1.428-1.43 1.428" transform="translate(-210 -977) translate(210 977) translate(276.955 48.649)"/>
                    <path fill="#FEFEFE" d="M18.454 45.71c0 .665-.544 1.206-1.21 1.206-.668 0-1.21-.541-1.21-1.206 0-.67.542-1.21 1.21-1.21.666 0 1.21.54 1.21 1.21" transform="translate(-210 -977) translate(210 977) translate(276.955 48.649)"/>
                    <path fill="#302420" d="M17.246 44.724c-.545 0-.985.444-.985.986 0 .541.44.98.985.98.544 0 .985-.439.985-.98 0-.542-.44-.986-.985-.986m0 2.414c-.792 0-1.433-.64-1.433-1.428 0-.79.641-1.436 1.433-1.436.79 0 1.432.645 1.432 1.436 0 .788-.641 1.428-1.432 1.428" transform="translate(-210 -977) translate(210 977) translate(276.955 48.649)"/>
                    <path fill="#FEFEFE" d="M32.74 45.71c0 .665-.545 1.206-1.208 1.206-.67 0-1.21-.541-1.21-1.206 0-.67.54-1.21 1.21-1.21.663 0 1.207.54 1.207 1.21" transform="translate(-210 -977) translate(210 977) translate(276.955 48.649)"/>
                    <path fill="#302420" d="M31.532 44.724c-.545 0-.988.444-.988.986 0 .541.443.98.988.98.542 0 .985-.439.985-.98 0-.542-.443-.986-.985-.986m0 2.414c-.792 0-1.436-.64-1.436-1.428 0-.79.644-1.436 1.436-1.436.789 0 1.43.645 1.43 1.436 0 .788-.641 1.428-1.43 1.428" transform="translate(-210 -977) translate(210 977) translate(276.955 48.649)"/>
                    <path fill="#FEFEFE" d="M50.71 45.71c0 .665-.545 1.206-1.208 1.206-.67 0-1.21-.541-1.21-1.206 0-.67.54-1.21 1.21-1.21.663 0 1.208.54 1.208 1.21" transform="translate(-210 -977) translate(210 977) translate(276.955 48.649)"/>
                    <path fill="#302420" d="M49.502 44.724c-.544 0-.985.444-.985.986 0 .541.44.98.985.98.542 0 .985-.439.985-.98 0-.542-.443-.986-.985-.986m0 2.414c-.791 0-1.433-.64-1.433-1.428 0-.79.642-1.436 1.433-1.436.792 0 1.433.645 1.433 1.436 0 .788-.641 1.428-1.433 1.428" transform="translate(-210 -977) translate(210 977) translate(276.955 48.649)"/>
                    <path fill="#FEFEFE" d="M87.992 45.71c0 .665-.542 1.206-1.21 1.206-.668 0-1.21-.541-1.21-1.206 0-.67.542-1.21 1.21-1.21.668 0 1.21.54 1.21 1.21" transform="translate(-210 -977) translate(210 977) translate(276.955 48.649)"/>
                    <path fill="#302420" d="M86.784 44.724c-.545 0-.985.444-.985.986 0 .541.44.98.985.98.542 0 .985-.439.985-.98 0-.542-.443-.986-.985-.986m0 2.414c-.792 0-1.433-.64-1.433-1.428 0-.79.641-1.436 1.433-1.436.79 0 1.432.645 1.432 1.436 0 .788-.641 1.428-1.432 1.428" transform="translate(-210 -977) translate(210 977) translate(276.955 48.649)"/>
                    <path fill="#FEFEFE" d="M92.82 34.464c0 .665-.542 1.206-1.21 1.206-.666 0-1.208-.541-1.208-1.206 0-.667.542-1.209 1.208-1.209.668 0 1.21.542 1.21 1.209" transform="translate(-210 -977) translate(210 977) translate(276.955 48.649)"/>
                    <path fill="#302420" d="M91.61 33.477c-.541 0-.984.445-.984.986 0 .544.443.984.985.984.544 0 .985-.44.985-.984 0-.541-.44-.986-.985-.986m0 2.417c-.79 0-1.43-.643-1.43-1.43 0-.79.64-1.434 1.43-1.434.791 0 1.433.643 1.433 1.433 0 .788-.642 1.431-1.433 1.431" transform="translate(-210 -977) translate(210 977) translate(276.955 48.649)"/>
                    <path fill="#FEFEFE" d="M44.052 4.785L63.106 4.785 63.106 3.891 44.052 3.891z" transform="translate(-210 -977) translate(210 977) translate(276.955 48.649)"/>
                </g>
                <path fill="#424244" d="M78.177 18.243L582.221 18.243 582.221 0 78.177 0z" transform="translate(-210 -977) translate(210 977)"/>
                <g>
                    <path fill="#FEFEFE" d="M86.308 6.726c.123 0 .244-.029.353-.082.11-.058.21-.133.3-.23.08-.091.147-.2.193-.323.05-.121.072-.252.072-.387 0-.121-.019-.242-.06-.365-.041-.124-.097-.235-.162-.331-.075-.097-.16-.174-.259-.237-.099-.058-.205-.09-.324-.09h-2.006v2.045h1.893zm-1.893-4.515v1.846h1.726c.116 0 .225-.024.329-.08.104-.05.193-.12.27-.21.078-.087.14-.186.187-.297.046-.111.07-.225.07-.346 0-.128-.024-.246-.068-.357-.044-.112-.102-.208-.172-.29-.077-.08-.166-.146-.268-.194-.102-.048-.21-.072-.326-.072h-1.748zm2.66 2.093c.144.058.272.14.383.244.112.104.206.218.283.344.073.125.128.26.165.398.034.14.053.278.053.414 0 .217-.044.425-.13.624-.088.198-.206.372-.356.522-.15.15-.324.268-.525.353-.2.087-.413.133-.64.133h-2.624V1.594h2.479c.212 0 .413.041.6.121.19.077.355.189.502.329.138.14.25.302.331.49.082.184.124.382.124.59 0 .083-.015.191-.046.327-.034.133-.078.266-.136.391-.058.124-.125.232-.205.324-.08.092-.167.138-.259.138zM92.792 1.587v3.95c0 .28-.058.534-.174.764-.116.23-.268.428-.457.592-.193.165-.416.29-.667.385-.252.091-.513.137-.781.137-.261 0-.515-.043-.762-.133-.246-.084-.466-.21-.66-.374-.19-.165-.348-.36-.469-.593-.12-.23-.186-.488-.188-.778v-3.95h.732v3.95c0 .174.034.336.102.486.072.15.167.28.288.392.12.11.263.198.427.258.165.065.341.097.53.097s.365-.032.527-.097c.164-.06.307-.147.428-.258.116-.112.21-.242.278-.392.073-.15.106-.312.106-.486v-3.95h.74zM95.617 1.55c.348 0 .677.076.99.229.311.152.558.374.741.67l-.507.398c-.07-.096-.157-.186-.257-.266-.099-.082-.203-.154-.314-.212-.116-.058-.234-.102-.355-.138-.121-.032-.24-.048-.356-.048-.11 0-.222.016-.333.053-.112.036-.213.087-.305.157s-.164.157-.22.258c-.056.102-.085.216-.085.341-.007.29.07.515.237.672.167.155.404.266.714.33.265.043.52.115.759.214.244.1.454.225.64.38.177.155.317.336.421.546.104.21.152.45.143.713-.01.23-.073.438-.184.629-.114.19-.264.358-.447.496-.182.137-.392.244-.629.323-.237.08-.486.121-.747.121-.392 0-.762-.082-1.112-.249-.35-.162-.631-.413-.844-.744l.53-.42c.154.248.362.444.62.582.262.138.53.205.806.205.145 0 .29-.022.438-.063.15-.043.282-.106.403-.19.114-.083.21-.182.286-.3.075-.119.118-.252.125-.404.005-.162-.026-.312-.096-.447-.07-.138-.162-.257-.278-.358-.119-.097-.247-.174-.392-.237-.145-.065-.29-.109-.435-.138-.256-.053-.489-.118-.699-.193-.21-.073-.387-.177-.532-.307-.15-.126-.266-.283-.346-.472-.08-.188-.118-.423-.118-.703 0-.213.046-.406.14-.583.094-.176.223-.326.382-.454.16-.126.344-.223.554-.29.21-.066.43-.102.662-.102M103.16 1.55c.348 0 .677.076.988.229.312.152.559.374.743.67l-.508.398c-.07-.096-.157-.186-.256-.266-.1-.082-.203-.154-.315-.212-.116-.058-.234-.102-.355-.138-.12-.032-.24-.048-.355-.048-.112 0-.223.016-.334.053-.111.036-.213.087-.305.157s-.164.157-.22.258c-.055.102-.084.216-.084.341-.008.29.07.515.237.672.166.155.403.266.713.33.266.043.517.115.759.214.244.1.455.225.638.38.18.155.32.336.423.546.104.21.153.45.143.713-.01.23-.073.438-.184.629-.113.19-.263.358-.447.496-.181.137-.392.244-.629.323-.237.08-.486.121-.747.121-.391 0-.761-.082-1.112-.249-.35-.162-.63-.413-.844-.744l.53-.42c.155.248.363.444.621.582.261.138.53.205.805.205.145 0 .29-.022.438-.063.147-.043.283-.106.404-.19.113-.083.21-.182.285-.3.075-.119.118-.252.126-.404.005-.162-.027-.312-.097-.447-.07-.138-.162-.257-.278-.358-.119-.097-.247-.174-.392-.237-.145-.065-.29-.109-.435-.138-.256-.053-.488-.118-.699-.193-.21-.073-.386-.177-.532-.307-.15-.126-.265-.283-.345-.472-.08-.188-.119-.423-.119-.703 0-.213.046-.406.14-.583.095-.176.223-.326.383-.454.16-.126.343-.223.553-.29.21-.066.43-.102.663-.102M109.884 1.587L109.884 2.203 108.129 2.203 108.129 7.343 107.391 7.343 107.391 2.203 105.631 2.203 105.631 1.587zM113.049 2.168c-.276 0-.532.055-.771.176-.24.118-.448.28-.63.488-.176.208-.316.455-.42.738-.106.28-.157.585-.157.909 0 .324.05.628.157.909.104.282.244.529.42.737.182.208.39.372.63.493.239.121.495.181.77.181.272 0 .525-.06.765-.18.242-.122.447-.286.626-.494.179-.208.322-.455.426-.737.103-.28.154-.585.154-.91 0-.323-.05-.628-.154-.908-.104-.283-.247-.53-.426-.738-.179-.208-.384-.37-.626-.488-.24-.12-.493-.176-.764-.176m0 5.248c-.387 0-.745-.08-1.071-.242-.33-.157-.612-.372-.849-.643-.242-.268-.43-.578-.56-.933-.136-.355-.201-.728-.201-1.12 0-.381.062-.749.193-1.102.126-.353.31-.662.546-.935.237-.269.52-.486.847-.648.33-.162.693-.244 1.095-.244.377 0 .73.077 1.056.234.332.152.614.363.859.631.234.27.42.583.558.938.14.355.208.73.208 1.127 0 .377-.065.742-.196 1.095-.13.353-.314.665-.551.935-.235.273-.52.496-.846.658-.329.167-.692.249-1.088.249M118.802 4.668c.13 0 .253-.027.372-.08.118-.053.225-.133.317-.24.089-.106.164-.234.217-.384.05-.15.08-.324.08-.522s-.03-.375-.08-.53c-.053-.154-.123-.285-.21-.391-.092-.102-.198-.179-.317-.235-.118-.055-.24-.084-.365-.084h-1.593v2.466h1.579zm1.723-1.226c0 .27-.046.52-.137.747-.092.227-.213.42-.363.58-.148.162-.322.29-.52.38-.2.09-.401.135-.61.135h-1.672v2.057h-.733V1.588h2.312c.227 0 .444.04.652.128.208.087.392.21.552.372.157.162.285.36.38.59.093.227.14.484.14.764z" transform="translate(-210 -977) translate(210 977) translate(2.114 5.068)"/>
                    <path fill="#FEFEFE" d="M273.042 16.922L113.633 16.922 113.633 222.408zM451.999 16.922L539.854 16.922 366.591 292.515 268.367 292.515z" opacity=".4" transform="translate(-210 -977) translate(210 977) translate(2.114 5.068)"/>
                    <path fill="#424244" d="M51.04 36.038c0 12.63-10.232 22.867-22.855 22.867-12.62 0-22.855-10.238-22.855-22.867 0-12.629 10.234-22.864 22.855-22.864 12.623 0 22.854 10.235 22.854 22.864" transform="translate(-210 -977) translate(210 977) translate(2.114 5.068)"/>
                    <path fill="#0071B9" d="M47.553 36.038c0 10.703-8.672 19.379-19.368 19.379-10.696 0-19.366-8.676-19.366-19.379 0-10.702 8.67-19.378 19.366-19.378s19.368 8.676 19.368 19.378" transform="translate(-210 -977) translate(210 977) translate(2.114 5.068)"/>
                    <path fill="#FEFEFE" d="M21.677 48.364c0 .433-.348.779-.778.779h-1.767c-.428 0-.779-.346-.779-.779V44.53c0-.43.35-.778.779-.778h1.767c.43 0 .778.348.778.778v3.834zM37.933 48.364c0 .433-.348.779-.778.779h-1.768c-.428 0-.778-.346-.778-.779V44.53c0-.43.35-.778.778-.778h1.768c.43 0 .778.348.778.778v3.834z" transform="translate(-210 -977) translate(210 977) translate(2.114 5.068)"/>
                    <path fill="#FEFEFE" d="M38.97 25.974c0-1.678-1.36-3.041-3.038-3.041H20.439c-1.678 0-3.041 1.363-3.041 3.041v18.3c0 .677.553 1.224 1.233 1.224h19.102c.682 0 1.233-.547 1.233-1.224v-.633h.005V25.974z" transform="translate(-210 -977) translate(210 977) translate(2.114 5.068)"/>
                    <path fill="#0071B9" d="M36.735 33.082v-5.398c0-1.332-1.08-2.41-2.41-2.41h-12.28c-1.33 0-2.408 1.078-2.408 2.41v5.398h17.098zM21.356 42.384c0 .745-.602 1.347-1.344 1.347-.742 0-1.344-.602-1.344-1.347 0-.744.602-1.346 1.344-1.346.742 0 1.344.602 1.344 1.346M37.437 42.384c0 .745-.602 1.347-1.344 1.347-.742 0-1.344-.602-1.344-1.347 0-.744.602-1.346 1.344-1.346.742 0 1.344.602 1.344 1.346M22.937 43.848L33.384 43.848 33.384 40.22 22.937 40.22z" transform="translate(-210 -977) translate(210 977) translate(2.114 5.068)"/>
                    <path fill="#424244" d="M56.37 179.37c0 1.794-1.454 3.25-3.247 3.25H3.247c-1.793 0-3.247-1.456-3.247-3.25V61.853c0-1.794 1.454-3.249 3.247-3.249h49.876c1.793 0 3.247 1.455 3.247 3.25V179.37z" transform="translate(-210 -977) translate(210 977) translate(2.114 5.068)"/>
                    <path fill="#FEFEFE" d="M3.542 86.655L52.827 86.655 52.827 68.347 3.542 68.347z" transform="translate(-210 -977) translate(210 977) translate(2.114 5.068)"/>
                    <path fill="#EF4F30" d="M3.542 86.655L11.806 86.655 11.806 68.347 3.542 68.347z" transform="translate(-210 -977) translate(210 977) translate(2.114 5.068)"/>
                    <path fill="#FEFEFE" d="M3.542 108.211L52.827 108.211 52.827 89.904 3.542 89.904z" transform="translate(-210 -977) translate(210 977) translate(2.114 5.068)"/>
                    <path fill="#0071B9" d="M3.542 108.211L11.806 108.211 11.806 89.904 3.542 89.904z" transform="translate(-210 -977) translate(210 977) translate(2.114 5.068)"/>
                    <path fill="#FEFEFE" d="M3.542 129.765L52.827 129.765 52.827 111.458 3.542 111.458z" transform="translate(-210 -977) translate(210 977) translate(2.114 5.068)"/>
                    <path fill="#0071B9" d="M3.542 129.765L11.806 129.765 11.806 111.458 3.542 111.458z" transform="translate(-210 -977) translate(210 977) translate(2.114 5.068)"/>
                    <path fill="#FEFEFE" d="M3.542 151.32L52.827 151.32 52.827 133.015 3.542 133.015z" transform="translate(-210 -977) translate(210 977) translate(2.114 5.068)"/>
                    <path fill="#00AC57" d="M3.542 151.32L11.806 151.32 11.806 133.015 3.542 133.015z" transform="translate(-210 -977) translate(210 977) translate(2.114 5.068)"/>
                    <path fill="#FEFEFE" d="M3.542 172.876L52.827 172.876 52.827 154.569 3.542 154.569z" transform="translate(-210 -977) translate(210 977) translate(2.114 5.068)"/>
                    <path fill="#00AC57" d="M3.542 172.876L11.806 172.876 11.806 154.569 3.542 154.569z" transform="translate(-210 -977) translate(210 977) translate(2.114 5.068)"/>
                    <path fill="#424244" d="M24.177 292.783L31.665 292.783 31.665 178.893 24.177 178.893z" transform="translate(-210 -977) translate(210 977) translate(2.114 5.068)"/>
                    <path fill="#7D7D82" d="M186.147 226.67L470.531 226.67 470.531 213.398 186.147 213.398z" transform="translate(-210 -977) translate(210 977) translate(2.114 5.068)"/>
                    <path fill="#424244" d="M186.595 226.223h283.489v-12.38h-283.49v12.38zm-.895.894h285.278v-14.169H185.7v14.17z" transform="translate(-210 -977) translate(210 977) translate(2.114 5.068)"/>
                    <path fill="#B6B6B6" d="M186.15 292.068L195.782 292.068 195.782 226.67 186.15 226.67z" transform="translate(-210 -977) translate(210 977) translate(2.114 5.068)"/>
                    <path fill="#424244" d="M186.595 291.62h8.737v-64.503h-8.737v64.503zm9.187.895h-9.635c-.246 0-.445-.2-.445-.447V226.67c0-.247.199-.447.445-.447h9.635c.246 0 .445.2.445.447v65.398c0 .246-.199.447-.445.447z" transform="translate(-210 -977) translate(210 977) translate(2.114 5.068)"/>
                    <path fill="#B6B6B6" d="M460.897 292.068L470.531 292.068 470.531 226.67 460.897 226.67z" transform="translate(-210 -977) translate(210 977) translate(2.114 5.068)"/>
                    <path fill="#424244" d="M461.344 291.62h8.74v-64.503h-8.74v64.503zm9.187.895h-9.634c-.247 0-.448-.2-.448-.447V226.67c0-.247.2-.447.448-.447h9.634c.247 0 .447.2.447.447v65.398c0 .246-.2.447-.447.447z" transform="translate(-210 -977) translate(210 977) translate(2.114 5.068)"/>
                </g>
                <path fill="#7D7D82" d="M0 298L660 298 660 294 0 294z" transform="translate(-210 -977) translate(210 977)"/>
            </g>
        </g>
    </g>
</svg>
