<svg xmlns="http://www.w3.org/2000/svg" xmlns:xlink="http://www.w3.org/1999/xlink" width="840" height="510" viewBox="0 0 840 510">
    <defs>
        <path id="ifwwddn3qc" d="M0 1.713L119.999 1.713 119.999 10.287 0 10.287z"/>
        <path id="68fwes6ote" d="M1.712 0L10.286 0 10.286 120 1.712 120z"/>
        <path id="gmy8jc5t6g" d="M0 0.216L10.409 0.216 10.409 8.999 0 8.999z"/>
        <path id="svrtz7i8si" d="M2.819 2.805L6.723 2.805 6.723 11.068 2.819 11.068z"/>
        <rect id="i6jhof902a" width="840" height="510" x="0" y="0" rx="20"/>
        <mask id="k2uoa21b2b" width="840" height="510" x="0" y="0" fill="#fff" maskContentUnits="userSpaceOnUse" maskUnits="objectBoundingBox">
            <use xlink:href="#i6jhof902a"/>
        </mask>
    </defs>
    <g fill="none" fill-rule="evenodd">
        <g>
            <g>
                <g transform="translate(-120 -1260) translate(120 1260)">
                    <use stroke="#999" stroke-dasharray="11" stroke-width="8" mask="url(#k2uoa21b2b)" xlink:href="#i6jhof902a"/>
                    <g>
                        <g transform="translate(360 140) translate(0 54)">
                            <mask id="4d4swfv1nd" fill="#fff">
                                <use xlink:href="#ifwwddn3qc"/>
                            </mask>
                            <path fill="#989898" d="M120 6c0 2.358-1.93 4.284-4.288 4.284l-111.426.003C1.931 10.287 0 8.358 0 6c0-2.358 1.932-4.287 4.287-4.287h111.426C118.07 1.713 120 3.643 120 6" mask="url(#4d4swfv1nd)"/>
                        </g>
                        <g transform="translate(360 140) translate(54)">
                            <mask id="fv4k31ub2f" fill="#fff">
                                <use xlink:href="#68fwes6ote"/>
                            </mask>
                            <path fill="#989898" d="M6 0c2.357 0 4.286 1.93 4.286 4.284v111.43C10.286 118.07 8.357 120 6 120c-2.355 0-4.287-1.929-4.287-4.287V4.284C1.712 1.93 3.644 0 6 0" mask="url(#fv4k31ub2f)"/>
                        </g>
                    </g>
                    <text fill="#999" font-family="NanumSquareB, NanumSquare" font-size="40" font-weight="bold" letter-spacing="-.667">
                        <tspan x="241" y="352">선불카드 OR 후불카드</tspan>
                    </text>
                </g>
                <g>
                    <g transform="translate(-120 -1260) translate(120 1260) translate(663 201) translate(0 3.196)">
                        <mask id="7cw0mwa3ih" fill="#fff">
                            <use xlink:href="#gmy8jc5t6g"/>
                        </mask>
                        <path fill="#FFF" d="M1.151.355c.1.018.195.06.288.123.093.063.192.153.294.27.105.12.225.279.357.477L5.564 5.98l.705-4.827c.018-.192.045-.348.081-.468.036-.12.087-.213.144-.282.063-.07.135-.114.222-.141.09-.027.201-.04.336-.042l.174-.003c.294-.006.516.054.666.174.153.117.273.336.366.65l2.124 7.147c.051.165.03.288-.06.366-.093.08-.216.123-.366.129-.156.006-.303-.024-.44-.093-.142-.07-.235-.19-.283-.354L7.223 1.38c-.006.285-.012.53-.02.726-.013.2-.03.399-.064.6l-.657 4.188c-.027.195-.078.327-.153.399-.08.069-.2.108-.363.114-.183.009-.339-.021-.465-.09-.123-.066-.255-.198-.39-.396l-2.976-4.09c-.14-.188-.276-.386-.408-.59-.132-.201-.279-.447-.444-.732l1.902 6.98c.045.172.021.298-.078.376-.096.084-.219.126-.375.132-.144.006-.285-.024-.423-.096-.14-.072-.23-.192-.276-.36L.065 1.207C-.022.883-.022.66.065.532.15.406.338.34.63.334L.81.33c.126-.003.24.006.342.024" mask="url(#7cw0mwa3ih)"/>
                    </g>
                    <path fill="#FFF" d="M11.273 5.492c.16-.003.31.033.444.108.141.075.237.195.285.357l1.635 5.28c.051.162.03.285-.063.369-.096.081-.222.126-.38.135-.157.006-.307-.027-.45-.099-.148-.075-.244-.192-.292-.357l-1.617-5.298c-.05-.165-.027-.288.066-.369.096-.078.22-.123.372-.126m-.705-2.313c.22-.003.426.066.624.207.192.141.321.312.384.513.063.21.042.39-.063.537-.108.147-.273.222-.495.228-.222.003-.432-.063-.624-.204-.192-.144-.32-.318-.387-.531-.06-.201-.039-.375.07-.525.104-.147.266-.222.491-.225M17.232 7.098c.663-.018 1.104-.147 1.32-.384.222-.24.258-.573.117-1.005l-.054-.162c-.147-.441-.402-.768-.759-.984-.357-.216-.834-.315-1.428-.303l-1.698.033.912 2.853 1.59-.048zm-.99-3.816c.876-.015 1.623.165 2.241.546.621.378 1.056.933 1.302 1.668l.066.195c.18.537.195.98.045 1.335-.15.354-.441.618-.864.792l2.532 2.766c.141.147.21.288.201.42-.009.132-.075.23-.198.306-.141.069-.285.096-.438.078-.153-.018-.297-.102-.429-.25l-2.76-3.101c-.06.018-.123.027-.189.03-.072.003-.135.003-.201.006l-1.596.05.957 2.965c.054.17.03.297-.069.378-.102.08-.231.126-.393.132-.159.009-.315-.024-.459-.096-.147-.072-.246-.192-.303-.363L13.491 4.19c-.099-.324-.105-.55-.015-.675.09-.126.312-.192.66-.198l2.106-.036z" transform="translate(-120 -1260) translate(120 1260) translate(663 201)"/>
                    <g transform="translate(-120 -1260) translate(120 1260) translate(663 201) translate(18 .196)">
                        <mask id="py9bomtthj" fill="#fff">
                            <use xlink:href="#svrtz7i8si"/>
                        </mask>
                        <path fill="#FFF" d="M4.166 5.037c.159-.003.312.03.45.105.14.072.237.186.294.342l1.785 5.097c.05.159.033.276-.054.357-.09.08-.216.123-.378.129-.156.009-.303-.024-.45-.093-.147-.07-.25-.186-.303-.342L3.743 5.514c-.054-.16-.033-.276.057-.354.093-.078.216-.12.366-.123m-.771-2.232c.219-.006.432.063.63.198.198.138.33.303.399.498.069.2.054.375-.048.516-.102.144-.267.216-.486.219-.222.006-.432-.06-.63-.198-.198-.135-.33-.306-.402-.507-.066-.198-.048-.37.054-.51.102-.141.264-.213.483-.216" mask="url(#py9bomtthj)"/>
                    </g>
                </g>
            </g>
        </g>
    </g>
</svg>
