<svg xmlns="http://www.w3.org/2000/svg" xmlns:xlink="http://www.w3.org/1999/xlink" width="960" height="270" viewBox="0 0 960 270">
    <defs>
        <path id="1v1z9997ia" d="M20 0h920c11.046 0 20 8.954 20 20v250H0V20C0 8.954 8.954 0 20 0z"/>
        <path id="8d0d7x6nuc" d="M0 2.907L77.085 2.907 77.085 107.901 0 107.901z"/>
        <path id="lge6uyn9fe" d="M2.304 1.848L21.72 82.803 74.535 82.803 55.119 1.848z"/>
        <linearGradient id="0le7w76kaf" x1="40.491%" x2="63.901%" y1="29.613%" y2="123.262%">
            <stop offset="0%" stop-color="#3EC4FE"/>
            <stop offset="100%" stop-color="#42505C"/>
        </linearGradient>
    </defs>
    <g fill="none" fill-rule="evenodd">
        <g>
            <g>
                <g transform="translate(-60 -1485) translate(60 1485)">
                    <mask id="5uk15j0mab" fill="#fff">
                        <use xlink:href="#1v1z9997ia"/>
                    </mask>
                    <use fill="#D4EDF9" xlink:href="#1v1z9997ia"/>
                    <g mask="url(#5uk15j0mab)">
                        <g>
                            <path fill="#48BFE1" fill-opacity=".2" d="M240.541 153.429c0 66.155-53.847 119.785-120.27 119.785C53.847 273.214 0 219.584 0 153.43 0 87.273 53.847 33.643 120.27 33.643c66.424 0 120.271 53.63 120.271 119.786" transform="translate(521 15)"/>
                            <path fill="#48BFE1" fill-opacity=".4" d="M206.977 153.429c0 47.692-38.82 86.357-86.706 86.357s-86.707-38.665-86.707-86.357c0-47.693 38.821-86.358 86.707-86.358 47.885 0 86.706 38.665 86.706 86.358" transform="translate(521 15)"/>
                            <path fill="#48BFE1" fill-opacity=".4" d="M173.414 153.429c0 29.231-23.793 52.928-53.142 52.928-29.349 0-53.144-23.697-53.144-52.928 0-29.232 23.795-52.929 53.144-52.929 29.35 0 53.142 23.697 53.142 52.929" transform="translate(521 15)"/>
                            <path fill="#48BFE1" d="M148.24 153.429c0 15.385-12.52 27.857-27.97 27.857-15.445 0-27.97-12.472-27.97-27.857 0-15.386 12.525-27.858 27.97-27.858 15.45 0 27.97 12.472 27.97 27.858" transform="translate(521 15)"/>
                            <g>
                                <g>
                                    <path fill="#FFF" d="M180.468 33.9l-6.297 29.824 3.41 8.22-5.741 19.377s-.324 3.117 2.316 3.384c2.637.264 6.17 2.196 6.17 2.196s2.212 4.422-.39 8.886l3.484 2.448s-1.176 6.186 3.576 6.663c0 0 2.316 3.384 2.304 8.634-.012 5.25-.066 5.769 5.742 6.35 5.808.586 24.83-2.75 24.83-2.75l4.216 26.15 1.998 6.502 49.53-8.65s-11.457-39.503-11.541-48.962c0 0 3.234-5.454 4.884-11.064 1.647-5.607 5.502-27.276 6.267-39.798.762-12.528-5.115-27.822-17.4-37.983C245.54 3.163 235.893-1.478 219.35 3.679c-16.542 5.163-47.307 18.873-47.307 18.873s-7.524 10.794 8.424 11.349" transform="translate(521 15) translate(93) translate(0 3)"/>
                                    <path fill="#000" d="M220.4 126.398l4.314 26.784 1.811 5.883 48.285-8.433c-1.563-5.427-11.288-39.588-11.37-48.456V102l.09-.15c.034-.054 3.21-5.45 4.819-10.917 1.593-5.409 5.483-27.183 6.243-39.66.819-13.449-5.916-28.152-17.17-37.46-12.429-10.285-21.708-14.58-37.88-9.532-15.688 4.9-44.58 17.67-47.07 18.771-.46.726-2.436 4.104-1.126 6.705 1.09 2.157 4.165 3.34 9.144 3.513l.754.027-6.411 30.366 3.423 8.244-5.809 19.593c0 .141-.165 2.382 1.77 2.577 2.74.273 6.264 2.187 6.414 2.268l.174.096.09.177c.093.186 2.172 4.455-.129 8.976l3.355 2.361-.076.4c-.005.03-.551 3.014.742 4.733.522.693 1.266 1.08 2.273 1.185l.291.027.166.243c.099.147 2.433 3.606 2.42 8.991-.014 5.202-.014 5.202 5.17 5.724 5.66.55 24.468-2.715 24.656-2.748l.636-.11zm5.24 34.104l-2.16-7.035-4.133-25.605c-3.409.582-19.072 3.177-24.37 2.65-6.15-.616-6.32-1.516-6.309-6.832.01-4.347-1.566-7.359-2.055-8.193-1.212-.189-2.166-.744-2.846-1.647-1.311-1.755-1.155-4.32-1.03-5.313l-3.638-2.559.294-.498c2.114-3.642.797-7.284.446-8.115-.75-.387-3.602-1.809-5.75-2.022-.874-.09-1.572-.447-2.08-1.062-.977-1.2-.806-2.94-.8-3.015l5.702-19.278-3.401-8.193.042-.189 6.147-29.097c-5.05-.29-8.236-1.698-9.487-4.179-1.802-3.588 1.186-7.944 1.312-8.13l.099-.144.165-.072c.305-.138 30.986-13.782 47.375-18.9 16.644-5.184 26.571-.573 39.07 9.765 11.553 9.555 18.47 24.672 17.625 38.508-.78 12.792-4.647 34.341-6.288 39.94-1.519 5.162-4.308 10.103-4.858 11.048.22 9.567 11.398 48.231 11.512 48.624l.197.675-50.78 8.868z" transform="translate(521 15) translate(93) translate(0 3)"/>
                                    <path fill="#FFF" d="M28.654 242.268h42.171c3.633 0 6.31-3.336 5.472-6.813L53.9 142.794c-.6-2.496-2.865-4.254-5.469-4.254H6.26c-3.634 0-6.313 3.336-5.473 6.813l22.398 92.664c.6 2.493 2.865 4.25 5.47 4.25" transform="translate(521 15) translate(93) translate(0 3)"/>
                                    <g transform="translate(521 15) translate(93) translate(0 3) translate(0 135)">
                                        <mask id="ivdosa707d" fill="#fff">
                                            <use xlink:href="#8d0d7x6nuc"/>
                                        </mask>
                                        <path fill="#000" d="M6.26 4.17c-1.554 0-2.988.69-3.94 1.893-.932 1.18-1.265 2.691-.914 4.143L23.8 102.867c.534 2.22 2.529 3.768 4.85 3.768h42.175c1.554 0 2.988-.69 3.942-1.896.93-1.179 1.263-2.688.912-4.137L53.282 7.938C52.748 5.721 50.75 4.17 48.43 4.17H6.26zm64.566 103.731H28.652c-2.91 0-5.412-1.95-6.084-4.737L.173 10.5C-.271 8.67.149 6.768 1.322 5.283 2.516 3.774 4.319 2.907 6.26 2.907h42.17c2.91 0 5.413 1.947 6.085 4.737l22.398 92.661c.44 1.83.024 3.732-1.15 5.217-1.193 1.512-2.996 2.38-4.937 2.38z" mask="url(#ivdosa707d)"/>
                                    </g>
                                </g>
                                <g transform="translate(521 15) translate(93) translate(0 150)">
                                    <mask id="cfbvffevhg" fill="#fff">
                                        <use xlink:href="#lge6uyn9fe"/>
                                    </mask>
                                    <use fill="url(#0le7w76kaf)" xlink:href="#lge6uyn9fe"/>
                                    <path d="M2.304 1.848L21.72 82.803 74.535 82.803 55.119 1.848z" mask="url(#cfbvffevhg)"/>
                                </g>
                                <g>
                                    <path fill="#000" d="M22.22 232.173h51.51l-19.112-79.695H3.108l19.113 79.695zm53.116 1.263H21.219l-19.716-82.22H55.62l19.716 82.22z" transform="translate(521 15) translate(93)"/>
                                    <path fill="#FFF" d="M132.626 419.369s2.28-89.17 7.41-112.851c2.985-13.797 4.425-43.872 12.882-75.462 11.82-44.175 45.1-78.495 87.336-87.67 9.81-2.13 21.438-4.784 29.067-2.552 11.697 3.42 18.72 11.484 25.155 21.978 6.552 10.683 12.996 37.22 10.245 55.044-6.837 44.33-25.07 112.95-25.07 143.922v57.59" transform="translate(521 15) translate(93)"/>
                                    <path fill="#000" d="M132.626 420h-.02c-.352-.012-.625-.303-.613-.654.021-.693 2.337-89.496 7.422-112.962 1.023-4.74 1.89-11.568 2.886-19.47 1.884-14.901 4.461-35.304 10.005-56.022 12.102-45.219 45.75-78.984 87.81-88.122l.924-.198c9.801-2.136 20.92-4.554 28.458-2.343 12.708 3.714 19.776 12.891 25.521 22.254 6.978 11.379 13.014 38.085 10.33 55.47-2.593 16.806-6.904 37.491-11.07 57.492-6.883 33.018-13.996 67.158-13.996 86.334v57.591c0 .348-.285.63-.633.63-.348 0-.633-.282-.633-.63v-57.591c0-19.305 7.128-53.511 14.022-86.589 4.161-19.986 8.47-40.653 11.055-57.429 2.643-17.13-3.288-43.425-10.155-54.618-5.613-9.147-12.5-18.108-24.795-21.705-7.23-2.112-18.18.267-27.834 2.367l-.92.198c-41.599 9.036-74.88 42.456-86.86 87.216-5.523 20.631-8.09 40.989-9.969 55.851-1.002 7.935-1.872 14.787-2.907 19.581-5.058 23.355-7.37 112.044-7.395 112.737-.012.342-.29.612-.633.612" transform="translate(521 15) translate(93)"/>
                                    <path fill="#FFF" d="M203.84 180.023c-10.757-3.165-28.466-5.343-39.758 20.553-7.452 17.091-21.33 77.511-33.465 113.11-.594 1.736-2.778 2.333-4.191 1.136L58.4 257.13c-.19-.159-.345-.333-.48-.534-.831-1.242-3.852-6.006-4.068-9.939-.204-3.717-3.765-17.1-5.08-21.933-.311-1.152-.93-2.193-1.79-3.027 0 0-18.04-18.252-19.758-19.16-1.29-.685-5.28 0-3.582 4.562 1.383 3.726 5.892 9.768 7.509 11.862.378.498.576 1.092.576 1.716 0 2.19-2.397 3.567-4.335 2.493l-8.781-4.869c-.636-.35-1.092-.95-1.26-1.647l-2.112-8.733c-.483-2-3.081-2.703-4.461-1.155-1.302 1.452-2.424 3.465-2.226 5.985 0 0-2.562 2.865-.501 8.775.246.705.192 1.464-.102 2.151-.48 1.12-.91 3.366.309 7.305.15.498.2 1.03.063 1.53-.375 1.398-.711 5.043 3.543 10.233 4.626 5.646 23.145 24.87 29.025 30.951l73.395 88.93c.096.113.177.236.243.365 2.538 4.734 7.035 9.054 14.748 11.724 22.374 7.752 33.069-17.589 35.445-24.219.432-1.203.92-2.37 1.476-3.522l53.238-109.839c.09-.18.153-.357.195-.552.864-3.999 9.957-48.984-15.79-56.559" transform="translate(521 15) translate(93)"/>
                                    <path fill="#000" d="M12.661 206.555c-.54 0-1.044.219-1.413.63-1.52 1.704-2.217 3.558-2.064 5.517l.024.27-.183.2c-.09.103-2.274 2.704-.372 8.146.291.825.246 1.752-.123 2.607-.387.906-.858 3.003.333 6.873.204.654.228 1.305.072 1.88-.336 1.243-.672 4.672 3.42 9.667 4.623 5.643 23.361 25.086 28.992 30.912l73.428 88.968c.12.147.225.303.315.47 2.811 5.245 7.653 9.09 14.391 11.422 9.258 3.21 17.517 1.005 24.552-6.55 5.718-6.143 8.961-14.135 10.09-17.285.45-1.24.938-2.412 1.502-3.582l53.241-109.84c.072-.146.114-.272.144-.41.492-2.277 2.895-14.256 2.073-26.763-1.068-16.194-6.933-25.971-17.42-29.058-6.625-1.95-26.76-7.875-38.998 20.199-3.84 8.805-9.54 29.7-15.573 51.822-5.63 20.646-12.018 44.046-17.877 61.239-.345 1.01-1.17 1.788-2.21 2.073-1.048.285-2.16.039-2.989-.657l-68.028-57.693c-.23-.198-.426-.414-.594-.666-.92-1.38-3.95-6.201-4.176-10.254-.2-3.705-3.92-17.625-5.055-21.804-.282-1.035-.843-1.986-1.626-2.74-7.227-7.32-18.41-18.42-19.608-19.055-.495-.264-1.686-.234-2.424.405-.95.83-.672 2.298-.27 3.38 1.371 3.694 6.024 9.889 7.416 11.698.465.606.711 1.332.711 2.1 0 1.245-.648 2.37-1.734 3.003-1.098.65-2.427.663-3.543.045l-8.784-4.872c-.786-.435-1.356-1.182-1.569-2.05l-2.109-8.735c-.174-.723-.723-1.263-1.464-1.45-.168-.041-.336-.062-.498-.062m124.84 170.268c-2.713 0-5.527-.504-8.434-1.51-7.053-2.441-12.129-6.488-15.096-12.023-.05-.1-.11-.183-.177-.264L40.4 274.096c-5.607-5.795-24.375-25.271-29.025-30.95-4.464-5.448-4.05-9.366-3.663-10.797.093-.348.075-.756-.06-1.18-1.245-4.043-.843-6.44-.285-7.74.243-.566.273-1.166.087-1.691-1.86-5.337-.132-8.367.45-9.183-.105-2.223.7-4.311 2.403-6.213.798-.894 1.977-1.251 3.162-.951 1.188.297 2.106 1.209 2.388 2.382l2.112 8.733c.126.525.474.978.951 1.239l8.784 4.872c.72.402 1.575.39 2.283-.027.696-.405 1.11-1.122 1.11-1.914 0-.49-.156-.948-.45-1.33-1.818-2.366-6.207-8.276-7.599-12.026-1.032-2.778-.054-4.182.624-4.77 1.12-.972 2.898-1.08 3.852-.57 1.755.927 18.057 17.394 19.911 19.272.93.903 1.611 2.049 1.953 3.306 1.464 5.394 4.893 18.342 5.097 22.065.207 3.735 3.09 8.31 3.966 9.62.102.154.22.286.36.406l68.028 57.693c.51.435 1.182.579 1.83.402.645-.177 1.134-.636 1.347-1.26 5.847-17.157 12.222-40.536 17.85-61.167 6.312-23.127 11.76-43.104 15.633-51.993 8.538-19.575 21.792-26.418 40.521-20.907 26.127 7.689 17.322 52.242 16.23 57.297-.048.234-.126.456-.24.693l-53.244 109.842c-.543 1.128-1.02 2.259-1.446 3.459-1.155 3.222-4.476 11.403-10.356 17.72-5.205 5.587-11.052 8.395-17.463 8.395" transform="translate(521 15) translate(93)"/>
                                    <path fill="#FFF" d="M204.565 85.222c1.743-14.112-5.712-11.751-4.101-20.823 1.578-8.877-2.055-14.86-8.181-21.69-1.81-1.881-6.951-3.84-9.528-4.248-5.574-.885-9.97-1.512-12.303-6.297-2.604-5.343 6.945-17.382 11.622-18.921 2.076-.684 3.56-1.506 5.013-3.084 1.116-1.218 1.76-2.73 3.108-3.747 2.742-2.07 6.324-.315 9.465-.462 3.369-.162 5.649-1.69 8.262-3.48 4.815-3.3 9.792-1.605 14.487 1.002 1.689.936 2.058-.228 7.065-.051 16.749.405 31.494 6.558 43.839 17.388 20.967 18.393 2.688 58.959-1.611 68.529-4.302 9.567-5.046 25.64-5.046 25.64-31.392 7.999-38.346-2.426-38.838-12.785-.765-15.972-4.224-22.752-6.705-25.59-1.092-1.245-3.06-1.12-4.017.228-1.6 2.247-4.557 5.673-8.787 7.677-1.506.83-2.556.78-2.556.78l-1.188-.066z" transform="translate(521 15) translate(93)"/>
                                    <path fill="#000" d="M219.21 75.107c.915 0 1.776.39 2.379 1.08 2.712 3.102 6.102 10.122 6.861 25.977.246 5.142 2.085 9.015 5.466 11.505 5.97 4.392 16.776 4.668 32.13.813.162-2.77 1.134-16.638 5.076-25.404 18.48-41.118 11.163-59.556 1.773-67.794-12.591-11.043-27.204-16.84-43.437-17.232-2.31-.087-3.594.126-4.518.279-1.062.174-1.761.285-2.838-.31-4.191-2.321-9.105-4.262-13.821-1.031-2.568 1.758-4.995 3.42-8.592 3.59-1.098.055-2.244-.116-3.345-.278-2.133-.312-4.146-.612-5.766.615-.738.555-1.254 1.293-1.803 2.076-.372.53-.753 1.083-1.224 1.593-1.41 1.542-2.94 2.484-5.28 3.255-2.874.948-8.349 6.729-10.635 12.126-1.068 2.514-1.278 4.56-.612 5.922 2.151 4.413 6.099 5.037 11.565 5.904l.267.042c2.64.42 7.926 2.403 9.885 4.434 6.345 7.077 9.945 13.257 8.349 22.239-.69 3.87.321 5.445 1.605 7.44 1.581 2.463 3.372 5.247 2.577 12.68l.516.03h.003c.054 0 .948-.005 2.211-.704 4.047-1.917 6.897-5.13 8.574-7.488.579-.813 1.482-1.305 2.472-1.353.054-.003.105-.006.162-.006m28.35 43.326c-6.186 0-11.004-1.248-14.397-3.747-3.702-2.727-5.715-6.921-5.982-12.465-.738-15.49-3.969-22.254-6.546-25.203-.384-.438-.933-.681-1.521-.645-.603.03-1.152.33-1.503.822-1.767 2.484-4.77 5.868-9.03 7.884-1.578.87-2.748.852-2.856.84l-1.872-.105.081-.67c.924-7.487-.792-10.16-2.307-12.515-1.317-2.05-2.562-3.987-1.788-8.34 1.515-8.517-1.797-14.208-8.028-21.162-1.674-1.737-6.714-3.654-9.156-4.044l-.264-.042c-5.4-.858-10.068-1.596-12.507-6.6-.831-1.701-.627-4.107.582-6.963 2.256-5.325 7.908-11.682 11.412-12.837 2.139-.705 3.468-1.521 4.74-2.907.411-.45.756-.942 1.119-1.461.579-.831 1.176-1.686 2.07-2.364 2.052-1.542 4.425-1.194 6.717-.858 1.089.162 2.115.312 3.108.267 3.237-.153 5.412-1.644 7.932-3.37 5.289-3.623 10.626-1.538 15.153.97.693.38 1.026.327 2.016.168.924-.156 2.331-.381 4.764-.297 16.527.399 31.413 6.303 44.235 17.547 9.708 8.517 17.343 27.438-1.431 69.21-4.227 9.399-5.004 25.302-5.013 25.464l-.018.465-.459.117c-7.434 1.893-13.866 2.84-19.251 2.84" transform="translate(521 15) translate(93)"/>
                                    <path fill="#FFF" d="M218.668 245.744L206.71 286.451 195.532 286.451" transform="translate(521 15) translate(93)"/>
                                    <path fill="#000" d="M207.184 287.083h-11.652c-.348 0-.633-.282-.633-.633 0-.348.285-.63.633-.63h10.704l11.823-40.254c.099-.336.456-.525.789-.426.336.096.525.447.429.783l-12.093 41.16z" transform="translate(521 15) translate(93)"/>
                                    <path fill="#FFF" d="M205.839 176.042c1.809.591 3.492 1.51 5.007 2.646 6.072 4.551 19.731 17.65 15.111 40.875-6.735 33.855-19.248 66.888-19.248 66.888l-72.435-26.454 24.114-60.606s13.989-34.31 47.451-23.349" transform="translate(521 15) translate(93)"/>
                                    <path fill="#000" d="M135.102 259.629l71.232 26.013c1.7-4.587 12.84-35.235 19.002-66.204 4.548-22.86-8.883-35.76-14.871-40.245-1.527-1.143-3.15-2.001-4.824-2.55-32.508-10.653-46.53 22.65-46.665 22.986l-23.874 60zm71.979 27.63l-73.638-26.889 24.354-61.212c.144-.354 14.607-34.743 48.243-23.715 1.803.591 3.549 1.512 5.19 2.742 6.177 4.629 20.034 17.937 15.348 41.502-6.666 33.516-19.152 66.657-19.278 66.987l-.22.585z" transform="translate(521 15) translate(93)"/>
                                </g>
                            </g>
                        </g>
                    </g>
                </g>
                <text fill="#222" font-family="NanumSquareEB, NanumSquare" font-size="60" font-weight="600" letter-spacing="-1" transform="translate(-60 -1485) translate(60 1485)">
                    <tspan x="60" y="153">태그리스 이용하기</tspan>
                </text>
            </g>
        </g>
    </g>
</svg>
