<svg xmlns="http://www.w3.org/2000/svg" xmlns:xlink="http://www.w3.org/1999/xlink" width="880" height="550" viewBox="0 0 880 550">
    <defs>
        <path id="9l2jnr7r3d" d="M0.001 0.274L350.545 0.274 350.545 200 0.001 200z"/>
        <path id="fezdofbrof" d="M0 0.659L16.046 0.659 16.046 17.324 0 17.324z"/>
        <path id="i6g430lkgh" d="M0 45L156 45 156 0 0 0z"/>
        <filter id="hzcvls4zqb" width="107.6%" height="112.5%" x="-3.8%" y="-5.5%" filterUnits="objectBoundingBox">
            <feOffset dy="4" in="SourceAlpha" result="shadowOffsetOuter1"/>
            <feGaussianBlur in="shadowOffsetOuter1" result="shadowBlurOuter1" stdDeviation="10"/>
            <feColorMatrix in="shadowBlurOuter1" values="0 0 0 0 0 0 0 0 0 0 0 0 0 0 0 0 0 0 0.2 0"/>
        </filter>
        <rect id="j03ynzg4ca" width="840" height="510" x="0" y="0" rx="20"/>
    </defs>
    <g fill="none" fill-rule="evenodd">
        <g>
            <g transform="translate(-100 -436) translate(120 452)">
                <mask id="gpymm63auc" fill="#fff">
                    <use xlink:href="#j03ynzg4ca"/>
                </mask>
                <g>
                    <use fill="#000" filter="url(#hzcvls4zqb)" xlink:href="#j03ynzg4ca"/>
                    <use fill="#FFDB2F" xlink:href="#j03ynzg4ca"/>
                </g>
                <g mask="url(#gpymm63auc)">
                    <g>
                        <path fill="#13120D" d="M226.286 101.97l4.22.857c.919-25.335 8.938-47.919 24.043-67.764C269.783 15.11 274.493 3.587 268.682.497c-9.13-2.745-18.267 5.892-27.405 25.905-9.081 20.01-14.08 45.204-14.991 75.567M264.99 110.934l.98 4.23c23.31-10.143 47.206-12.66 71.719-7.554 24.657 5.055 37.098 4.344 37.31-2.139-1.475-9.438-13.26-13.959-35.363-13.575-22.002.447-46.884 6.786-74.646 19.038" transform="translate(45 90)"/>
                        <g transform="translate(45 90) translate(0 160)">
                            <mask id="2foizsd7ae" fill="#fff">
                                <use xlink:href="#9l2jnr7r3d"/>
                            </mask>
                            <path fill="#F8AF27" d="M350.494 155.135c.561-12.897-3.525-23.781-12.264-32.664-8.673-9.111-19.542-13.809-32.589-14.04-12.615-.387-23.526 3.696-32.784 12.264-8.832 8.661-13.476 19.281-13.935 31.806-.396 12.777 3.88 23.781 12.807 33 8.67 9.12 19.368 13.944 32.022 14.499 12.741.012 23.853-4.311 33.354-12.918 8.832-8.547 13.302-19.191 13.39-31.947M78.936 14.435C70.405 5.237 59.71.515 46.774.314c-12.567-.504-23.469 3.78-32.72 12.873C4.93 21.383.25 31.835.003 44.561-.134 57.437 4.018 68.33 12.505 77.276c8.886 9.306 19.686 14.115 32.475 14.433 12.624.246 23.583-3.954 32.862-12.648 8.82-8.559 13.347-19.185 13.593-31.914.747-12.702-3.408-23.598-12.498-32.712" mask="url(#2foizsd7ae)"/>
                        </g>
                        <path fill="#13120D" d="M160.06 296.384c-20.72-9.499-27.732-26.728-20.988-51.724l72.36 29.751c-6.447 10.96-13.425 18.498-21.039 22.594-9.093 4.356-19.215 4.137-30.333-.621m-28.506-74.22c-1.767.147-3.285.78-4.536 1.893-1.5 1.05-2.487 2.352-2.94 3.963-15.897 42.773-6.612 71.381 27.867 85.835 17.46 7.878 33.282 8.067 47.436.483 13.125-6.66 24.408-20.16 33.88-40.506.737-1.664.998-3.371.845-5.142-.009-1.875-.54-3.5-1.644-4.872-1.035-1.496-2.37-2.534-3.945-3.123l-91.71-37.856c-1.794-.895-3.522-1.117-5.253-.675" transform="translate(45 90)"/>
                        <path fill="#E23E40" d="M139.073 244.661c-6.747 24.996.264 42.225 20.988 51.723 11.118 4.758 21.237 4.974 30.33.618 7.617-4.092 14.592-11.634 21.042-22.59l-72.36-29.75z" transform="translate(45 90)"/>
                        <path fill="#13120D" d="M247.437 249.091c3.74-1.335 6.153-3.717 7.248-7.137 1.323-3.342 1.245-6.627-.273-9.86-1.533-3.484-4.071-5.956-7.563-7.348-3.408-1.1-6.855-.93-10.344.462-3.354 1.446-5.658 3.924-6.91 7.416-1.394 3.477-1.28 6.702.295 9.672 1.788 3.585 4.314 6.036 7.563 7.341 3.402 1.251 6.732 1.074 9.984-.546m-118.041-57.72c-1.254 3.51-1.128 6.813.426 9.921 1.758 3.69 4.287 6.132 7.566 7.332 3.384 1.245 6.78 1.077 10.152-.498 3.62-1.38 6-3.77 7.248-7.13 1.377-3.466 1.239-6.847-.375-10.096-1.56-3.51-4.053-6.018-7.512-7.527-3.49-.99-6.93-.843-10.39.438-3.527 1.656-5.894 4.176-7.115 7.56" transform="translate(45 90)"/>
                    </g>
                </g>
                <g mask="url(#gpymm63auc)">
                    <g transform="translate(624 60)">
                        <g transform="translate(0 21)">
                            <mask id="nj9lg0yzpg" fill="#fff">
                                <use xlink:href="#fezdofbrof"/>
                            </mask>
                            <path fill="#0D0803" d="M5.243 14.813c-1.044-.573-1.89-1.407-2.499-2.46-.609-1.047-.909-2.184-.909-3.384 0-1.827.67-3.408 1.983-4.686C5.132 3.008 6.81 2.357 8.795 2.357c2.445 0 4.392.94 5.826 2.787.141-.093 1.236-.77 1.425-.9-.459-.726-1.008-1.359-1.653-1.839-.666-.522-1.509-.942-2.478-1.266C10.931.824 9.923.66 8.87.66c-1.656 0-3.189.375-4.53 1.113-1.344.732-2.409 1.78-3.186 3.075C.392 6.164 0 7.604 0 9.131c0 2.28.837 4.23 2.475 5.811 1.644 1.587 3.744 2.382 6.231 2.382 1.632 0 3.102-.309 4.377-.942 1.224-.597 2.22-1.458 2.964-2.535-.189-.14-1.284-.84-1.425-.939-1.509 1.83-3.468 2.778-5.81 2.778-1.309 0-2.515-.294-3.568-.873" mask="url(#nj9lg0yzpg)"/>
                        </g>
                        <path fill="#0D0803" d="M42.064 24.903c.153-.147.98-1.023 1.146-1.194-1.434-1.347-2.871-2.049-4.272-2.049-1.245 0-2.268.399-3.07 1.176-.803.786-1.226 1.788-1.226 2.958 0 .903.27 1.728.774 2.424.498.714 1.473 1.44 2.922 2.172 1.374.714 2.24 1.287 2.637 1.758.399.486.615 1.053.615 1.674 0 .756-.306 1.422-.918 1.971-.61.564-1.347.834-2.211.834-1.185 0-2.313-.588-3.354-1.734-.16.171-.993 1.134-1.128 1.287.525.651 1.179 1.179 1.97 1.554.817.396 1.696.591 2.605.591 1.344 0 2.472-.444 3.387-1.335.894-.885 1.35-1.986 1.35-3.258 0-.906-.264-1.737-.79-2.451-.536-.72-1.592-1.494-3.095-2.277-1.29-.675-2.118-1.23-2.538-1.728-.408-.504-.61-1.032-.61-1.581 0-.633.247-1.188.748-1.653.504-.468 1.122-.702 1.82-.702 1.054 0 2.149.54 3.238 1.563M55.883 22.56c-.9-.596-1.96-.9-3.13-.9-1.142 0-2.222.27-3.2.814-.984.525-1.896 1.347-2.727 2.442l-.234.315v-9.37h-1.803V37.91h1.803v-5.763c0-2.166.096-3.612.3-4.413.312-1.248.987-2.313 1.998-3.15 1.008-.843 2.166-1.272 3.44-1.272 1.135 0 2.05.276 2.752.83.696.562 1.176 1.39 1.44 2.485.159.636.222 1.857.222 3.735v7.548h1.815v-8.151c0-2.166-.231-3.783-.657-4.791-.441-1-1.11-1.815-2.02-2.406M18.16 30.027c0-3.648 2.955-6.6 6.606-6.6 3.642 0 6.606 2.952 6.606 6.6 0 3.66-2.964 6.612-6.606 6.612-3.65 0-6.606-2.952-6.606-6.612m-1.737 0c0 4.614 3.741 8.349 8.343 8.349 4.605 0 8.331-3.735 8.331-8.349 0-4.608-3.726-8.349-8.33-8.349-4.603 0-8.344 3.741-8.344 8.349"/>
                        <mask id="tkyanuguri" fill="#fff">
                            <use xlink:href="#i6g430lkgh"/>
                        </mask>
                        <path fill="#0D0803" d="M31.374 37.863L33.141 37.863 33.141 22.059 31.374 22.059zM71.95 36.58c-3.688 0-6.676-2.986-6.676-6.67 0-3.696 2.988-6.687 6.675-6.687 3.675 0 6.672 2.991 6.672 6.687 0 3.684-2.997 6.67-6.672 6.67m0-15.103c-4.647 0-8.427 3.765-8.427 8.421 0 4.65 3.78 8.427 8.427 8.427 4.653 0 8.41-3.777 8.41-8.427 0-4.656-3.757-8.42-8.41-8.42" mask="url(#tkyanuguri)"/>
                        <path fill="#0D0803" d="M65.275 30.133L63.481 30.133 63.481 15.565 65.266 15.565zM83.703 28.142c.435-1.488 1.062-2.625 1.911-3.366 1.146-1.038 2.526-1.56 4.125-1.56.97 0 1.89.225 2.772.62.882.418 1.584.952 2.13 1.63.525.669.942 1.563 1.218 2.676H83.703zm6.006-6.78c-2.646 0-4.788 1.014-6.36 3.027-1.242 1.593-1.872 3.432-1.872 5.45 0 2.16.735 4.123 2.214 5.833 1.464 1.71 3.531 2.559 6.141 2.559 1.164 0 2.25-.174 3.171-.537.918-.348 1.776-.88 2.514-1.566.726-.66 1.365-1.54 1.908-2.598-.198-.111-1.338-.702-1.515-.798-.62 1.014-1.206 1.764-1.746 2.238-.558.492-1.25.876-2.046 1.17-.8.294-1.626.444-2.469.444-1.76 0-3.249-.627-4.446-1.866-1.185-1.23-1.803-2.835-1.842-4.75l-.012-.146h14.667c-.05-2.118-.627-3.924-1.755-5.352-1.626-2.067-3.834-3.108-6.552-3.108zM103.1 24.78c1.153-1.041 2.53-1.563 4.12-1.563.978 0 1.908.222 2.787.621.882.411 1.59.954 2.124 1.629.53.672.945 1.563 1.209 2.682h-12.141c.435-1.5 1.068-2.625 1.902-3.369m6.519 11.361c-.81.285-1.638.444-2.481.444-1.75 0-3.234-.627-4.431-1.866-1.197-1.23-1.818-2.835-1.866-4.746v-.15h14.676c-.048-2.121-.633-3.924-1.767-5.352-1.62-2.067-3.828-3.111-6.55-3.111-2.645 0-4.781 1.014-6.36 3.03-1.244 1.584-1.877 3.429-1.877 5.451 0 2.16.756 4.128 2.229 5.832 1.458 1.71 3.516 2.562 6.132 2.562 1.17 0 2.247-.18 3.165-.543.93-.351 1.788-.879 2.523-1.563.72-.657 1.359-1.545 1.91-2.598-.21-.114-1.331-.711-1.517-.798-.618 1.014-1.206 1.755-1.743 2.235-.564.495-1.257.879-2.043 1.173M130.701 28.042v-.258c.141-4.527 3.843-8.12 8.376-8.12 4.647 0 8.397 3.752 8.397 8.378 0 .282-.018.552-.036.82 2.817.48 5.607 1.187 8.304 2.114.156-.948.258-1.932.258-2.922 0-3.192-.894-6.177-2.43-8.718-4.749-1.125-9.648-1.716-14.547-1.674-5.697-.048-11.379.723-16.848 2.217v7.146c-.018.336-.039.678-.039 1.03 0 .92.081 1.814.222 2.7 2.724-.91 5.53-1.579 8.373-2.017-.018-.222-.03-.462-.03-.696M130.701 0h-8.526v10.072c2.808-.657 5.652-1.164 8.526-1.488V0zM126.482 39.39c3.093 3.441 7.593 5.61 12.58 5.61 4.877 0 9.266-2.073 12.36-5.376-7.993-2.418-16.855-2.478-24.94-.234" mask="url(#tkyanuguri)"/>
                        <path fill="#F6A600" d="M153.57 19.33c-2.946-4.927-8.334-8.215-14.508-8.215-3.039 0-5.895.807-8.36 2.208v-4.74c-2.869.324-5.719.831-8.527 1.488v9.816c5.475-1.5 11.157-2.28 16.848-2.226 4.9-.042 9.798.55 14.547 1.668M151.42 39.619c2.202-2.343 3.732-5.322 4.32-8.643-2.694-.924-5.487-1.635-8.301-2.112-.414 4.254-3.99 7.587-8.361 7.587-4.392 0-7.986-3.402-8.343-7.71-2.85.438-5.652 1.104-8.382 2.013.51 3.285 2.004 6.264 4.128 8.637 8.088-2.25 16.95-2.184 24.939.228" mask="url(#tkyanuguri)"/>
                    </g>
                </g>
            </g>
        </g>
    </g>
</svg>
