<svg xmlns="http://www.w3.org/2000/svg" xmlns:xlink="http://www.w3.org/1999/xlink" width="334" height="160" viewBox="0 0 334 160">
    <defs>
        <path id="01qicqbgya" d="M2.245 1.627L41.931 1.627 41.931 60 2.245 60z"/>
        <path id="mm5slkktxc" d="M56.26 0C27.67.09 3.39 13.157 1.28 40.113c-2.3 29.467 26.438 57.834 56.346 57.714 43.72-.18 51.356-20.64 52.326-52.647.896-29.537-13.692-42.347-45.64-44.87-2.537-.2-5.053-.303-7.536-.31"/>
        <path id="5xbyz1b3we" d="M56.26 0C27.67.09 3.39 13.157 1.28 40.113c-2.3 29.467 26.438 57.834 56.346 57.714 43.72-.18 51.356-20.64 52.326-52.647.896-29.537-13.692-42.347-45.64-44.87-2.537-.2-5.053-.303-7.536-.31"/>
        <path id="fy9z8aj43g" d="M56.26 0C27.67.09 3.39 13.157 1.28 40.113c-2.3 29.467 26.438 57.834 56.346 57.714 43.72-.18 51.356-20.64 52.326-52.647.896-29.537-13.692-42.347-45.64-44.87-2.537-.2-5.053-.303-7.536-.31"/>
        <path id="5pib4smkoi" d="M56.26 0C27.67.09 3.39 13.157 1.28 40.113c-2.3 29.467 26.438 57.834 56.346 57.714 43.72-.18 51.356-20.64 52.326-52.647.896-29.537-13.692-42.347-45.64-44.87-2.537-.2-5.053-.303-7.536-.31h-.517z"/>
        <path id="65xu0jthuk" d="M56.26 0C27.67.09 3.39 13.157 1.28 40.113c-2.3 29.467 26.438 57.834 56.346 57.714 43.72-.18 51.356-20.64 52.326-52.647.896-29.537-13.692-42.347-45.64-44.87-2.537-.2-5.053-.303-7.536-.31"/>
        <path id="67k0xwyg8m" d="M56.26 0C27.67.09 3.39 13.157 1.28 40.113c-2.3 29.467 26.438 57.834 56.346 57.714 43.72-.18 51.356-20.64 52.326-52.647.896-29.537-13.692-42.347-45.64-44.87-2.537-.2-5.053-.303-7.536-.31"/>
        <path id="b1w273k7jo" d="M56.26 0C27.67.09 3.39 13.157 1.28 40.113c-2.3 29.467 26.438 57.834 56.346 57.714 43.72-.18 51.356-20.64 52.326-52.647.896-29.537-13.692-42.347-45.64-44.87-2.537-.2-5.053-.303-7.536-.31"/>
        <path id="ixis7wentq" d="M56.26 0C27.67.09 3.39 13.157 1.28 40.113c-2.3 29.467 26.438 57.834 56.346 57.714 43.72-.18 51.356-20.64 52.326-52.647.896-29.537-13.692-42.347-45.64-44.87-2.537-.2-5.053-.303-7.536-.31"/>
        <path id="kzffx9gs0s" d="M56.26 0C27.67.09 3.39 13.157 1.28 40.113c-2.3 29.467 26.438 57.834 56.346 57.714 43.72-.18 51.356-20.64 52.326-52.647.896-29.537-13.692-42.347-45.64-44.87-2.537-.2-5.053-.303-7.536-.31"/>
        <path id="htbdkmvvhu" d="M56.26 0C27.67.09 3.39 13.157 1.28 40.113c-2.3 29.467 26.438 57.834 56.346 57.714 43.72-.18 51.356-20.64 52.326-52.647.896-29.537-13.692-42.347-45.64-44.87-2.537-.2-5.053-.303-7.536-.31"/>
        <path id="a9934impzw" d="M56.26 0C27.67.09 3.39 13.157 1.28 40.113c-2.3 29.467 26.438 57.834 56.346 57.714 43.72-.18 51.356-20.64 52.326-52.647.896-29.537-13.692-42.347-45.64-44.87-2.537-.2-5.053-.303-7.536-.31"/>
        <path id="08jmhl9shy" d="M56.26 0C27.67.09 3.39 13.157 1.28 40.113c-2.3 29.467 26.438 57.834 56.346 57.714 43.72-.18 51.356-20.64 52.326-52.647.896-29.537-13.692-42.347-45.64-44.87-2.537-.2-5.053-.303-7.536-.31"/>
        <path id="co7yhjczdA" d="M56.26 0C27.67.09 3.39 13.157 1.28 40.113c-2.3 29.467 26.438 57.834 56.346 57.714 43.72-.18 51.356-20.64 52.326-52.647.896-29.537-13.692-42.347-45.64-44.87-2.537-.2-5.053-.303-7.536-.31"/>
        <path id="2kozz6jfgC" d="M56.26 0C27.67.09 3.39 13.157 1.28 40.113c-2.3 29.467 26.438 57.834 56.346 57.714 43.72-.18 51.356-20.64 52.326-52.647.896-29.537-13.692-42.347-45.64-44.87-2.537-.2-5.053-.303-7.536-.31"/>
        <path id="o6csgmw2pE" d="M56.26 0C27.67.09 3.39 13.157 1.28 40.113c-2.3 29.467 26.438 57.834 56.346 57.714 43.72-.18 51.356-20.64 52.326-52.647.896-29.537-13.692-42.347-45.64-44.87-2.537-.2-5.053-.303-7.536-.31"/>
        <path id="noot25y7bG" d="M56.26 0C27.67.09 3.39 13.157 1.28 40.113c-2.3 29.467 26.438 57.834 56.346 57.714 43.72-.18 51.356-20.64 52.326-52.647.896-29.537-13.692-42.347-45.64-44.87-2.537-.2-5.053-.303-7.536-.31"/>
        <path id="qsu5ss51yI" d="M56.26 0C27.67.09 3.39 13.157 1.28 40.113c-2.3 29.467 26.438 57.834 56.346 57.714 43.72-.18 51.356-20.64 52.326-52.647.896-29.537-13.692-42.347-45.64-44.87-2.537-.2-5.053-.303-7.536-.31"/>
        <path id="pmgefxjdaK" d="M56.26 0C27.67.09 3.39 13.157 1.28 40.113c-2.3 29.467 26.438 57.834 56.346 57.714 43.72-.18 51.356-20.64 52.326-52.647.896-29.537-13.692-42.347-45.64-44.87-2.537-.2-5.053-.303-7.536-.31h-.517z"/>
        <path id="tjjiu4pmuM" d="M56.26 0C27.67.09 3.39 13.157 1.28 40.113c-2.3 29.467 26.438 57.834 56.346 57.714 43.72-.18 51.356-20.64 52.326-52.647.896-29.537-13.692-42.347-45.64-44.87-2.537-.2-5.053-.303-7.536-.31h-.517z"/>
        <path id="gdpyymu6gO" d="M56.26 0C27.67.09 3.39 13.157 1.28 40.113c-2.3 29.467 26.438 57.834 56.346 57.714 43.72-.18 51.356-20.64 52.326-52.647.896-29.537-13.692-42.347-45.64-44.87-2.537-.2-5.053-.303-7.536-.31"/>
        <path id="07w5euvk6Q" d="M56.26 0C27.67.09 3.39 13.157 1.28 40.113c-2.3 29.467 26.438 57.834 56.346 57.714 43.72-.18 51.356-20.64 52.326-52.647.896-29.537-13.692-42.347-45.64-44.87-2.537-.2-5.053-.303-7.536-.31"/>
        <path id="yrnk65bp3S" d="M56.26 0C27.67.09 3.39 13.157 1.28 40.113c-2.3 29.467 26.438 57.834 56.346 57.714 43.72-.18 51.356-20.64 52.326-52.647.896-29.537-13.692-42.347-45.64-44.87-2.537-.2-5.053-.303-7.536-.31"/>
        <path id="h7dottfg6U" d="M56.26 0C27.67.09 3.39 13.157 1.28 40.113c-2.3 29.467 26.438 57.834 56.346 57.714 43.72-.18 51.356-20.64 52.326-52.647.896-29.537-13.692-42.347-45.64-44.87-2.537-.2-5.053-.303-7.536-.31"/>
        <path id="sagmgwmb3W" d="M56.26 0C27.67.09 3.39 13.157 1.28 40.113c-2.3 29.467 26.438 57.834 56.346 57.714 43.72-.18 51.356-20.64 52.326-52.647.896-29.537-13.692-42.347-45.64-44.87-2.537-.2-5.053-.303-7.536-.31"/>
        <path id="029tl7icvY" d="M56.26 0C27.67.09 3.39 13.157 1.28 40.113c-2.3 29.467 26.438 57.834 56.346 57.714 43.72-.18 51.356-20.64 52.326-52.647.896-29.537-13.692-42.347-45.64-44.87-2.537-.2-5.053-.303-7.536-.31"/>
        <path id="f67ao6spjaa" d="M56.26 0C27.67.09 3.39 13.157 1.28 40.113c-2.3 29.467 26.438 57.834 56.346 57.714 43.72-.18 51.356-20.64 52.326-52.647.896-29.537-13.692-42.347-45.64-44.87-2.537-.2-5.053-.303-7.536-.31"/>
        <path id="a3hypmdh9ac" d="M56.26 0C27.67.09 3.39 13.157 1.28 40.113c-2.3 29.467 26.438 57.834 56.346 57.714 43.72-.18 51.356-20.64 52.326-52.647.896-29.537-13.692-42.347-45.64-44.87-2.537-.2-5.053-.303-7.536-.31"/>
        <path id="caw32dvq9ae" d="M56.26 0C27.67.09 3.39 13.157 1.28 40.113c-2.3 29.467 26.438 57.834 56.346 57.714 43.72-.18 51.356-20.64 52.326-52.647.896-29.537-13.692-42.347-45.64-44.87-2.537-.2-5.053-.303-7.536-.31"/>
        <path id="lkfqv9p52ag" d="M56.26 0C27.67.09 3.39 13.157 1.28 40.113c-2.3 29.467 26.438 57.834 56.346 57.714 43.72-.18 51.356-20.64 52.326-52.647.896-29.537-13.692-42.347-45.64-44.87-2.537-.2-5.053-.303-7.536-.31h-.517z"/>
        <path id="vxml5sqkbai" d="M56.26 0C27.67.09 3.39 13.157 1.28 40.113c-2.3 29.467 26.438 57.834 56.346 57.714 43.72-.18 51.356-20.64 52.326-52.647.896-29.537-13.692-42.347-45.64-44.87-2.537-.2-5.053-.303-7.536-.31h-.517z"/>
        <path id="ipdrys3joak" d="M0 160L323.309 160 323.309 0 0 0z"/>
    </defs>
    <g fill="none" fill-rule="evenodd">
        <g>
            <g>
                <g>
                    <g>
                        <g>
                            <g transform="translate(-374 -722) translate(197 722) translate(177.164) translate(6.666) translate(0 76.667) translate(96.66 23.333)">
                                <mask id="7hw21oe6nb" fill="#fff">
                                    <use xlink:href="#01qicqbgya"/>
                                </mask>
                                <path fill="#231F20" d="M31.914 22.34h-.057c0-3.17.037-6.34-.016-9.51-.02-1.223-.614-1.87-1.78-1.883-3.27-.037-6.56-.32-9.806.357-3.787.8-6.666 2.746-7.873 6.653-.577 1.853-.62 3.77-.413 5.687.383 3.606 2.166 6.21 5.61 7.53 1.11.43 2.26.696 3.442.843 3.33.4 6.673.103 10.01.227.803.033.903-.274.896-.96-.033-2.98-.013-5.96-.013-8.944m9.983 3.15c0 6.917.016 12.567-.007 18.214-.013 2.566-.313 5.086-1.353 7.47-1.914 4.39-5.423 6.753-9.88 7.96-2.676.723-5.396.863-8.146.866-3.506.007-6.92-.636-10.276-1.526-2.23-.594-3.51-3.087-2.936-5.377.427-1.703 1.13-3.07 2.853-3.677 1.087-.38 2.187-.24 3.29.024 2.506.596 5.04 1.03 7.616 1.003 2.28-.027 4.513-.453 6.38-1.867 1.576-1.19 2.266-2.91 2.426-4.863.18-2.183.187-2.2-1.947-2.18-2.556.023-5.116.033-7.672.037-2.067.003-4.123-.4-6.15-.957-2.09-.577-4.026-1.43-5.813-2.623-3.35-2.244-5.646-5.29-6.923-9.147-.873-2.607-1.153-5.257-1.11-7.987.044-3.053.777-5.95 2.144-8.596C7.036 7.15 11.236 3.89 16.815 2.45c2.153-.553 4.333-.82 6.55-.82 3.683 0 7.366.004 11.049-.003 1.22-.003 2.42.137 3.556.567 2.423.913 3.583 2.833 3.747 5.286.44 6.42.043 12.854.18 18.01" mask="url(#7hw21oe6nb)"/>
                            </g>
                            <path fill="#231F20" d="M185.72 42.158c3.402 0 6.805 0 10.208-.003 1.257 0 1.497-.297 1.237-1.53-.677-3.18-2.49-5.48-5.356-6.954-2.063-1.053-4.277-1.266-6.553-1.156-5.51.273-9.186 3.403-10.4 8.823-.16.707-.026.84.657.833 3.403-.03 6.803-.013 10.206-.013zm-11.077 8.27c.707 5.647 5.5 9.68 11.086 9.833 4.47.124 8.61-.96 12.39-3.383 3.272-2.1 6.292.21 6.709 3.623.166 1.367-.637 2.42-1.63 3.294-2.957 2.606-6.476 3.953-10.28 4.74-3.1.64-6.249.783-9.345.49-4.247-.41-8.196-1.79-11.57-4.684-2.85-2.443-4.64-5.5-5.789-8.95-1.143-3.433-1.28-7.036-1.187-10.65.077-2.71.574-5.34 1.534-7.833.99-2.573 2.38-4.923 4.336-6.97 3.33-3.473 7.4-5.127 12.056-5.693 4.213-.51 8.27-.08 12.159 1.696 5.613 2.567 9.143 6.907 10.722 12.847.704 2.64.89 5.343.217 8.04-.557 2.257-2.08 3.537-4.433 3.57-3.373.053-6.743.027-10.12.03h-16.855zM59.973 46.526c.024 1.23.14 2.697.484 4.134 2.376 10.13 13.005 11.12 18.275 7.046 3.39-2.616 4.993-6.156 5.306-10.35.16-2.146-.077-4.26-.76-6.306-2.033-6.104-7.286-8.227-12.832-7.664-4.88.494-8.186 3.074-9.74 7.797-.543 1.653-.713 3.363-.733 5.343m-9.306 1.2c.117-2.28.127-4.566.577-6.823 1.473-7.347 5.386-12.69 12.462-15.467.114-.05.22-.113.327-.173 3.166-1.02 6.423-1.42 9.73-1.173 5.385.4 10.188 2.216 13.958 6.246 2.897 3.097 4.456 6.857 5.156 11.02.664 3.95.344 7.93.39 11.897.054 3.92-.03 7.843.027 11.767.04 2.5-1.436 3.953-4.016 4.06-.957.036-1.907.04-2.85-.214-1.17-.31-2.22-1.513-2.297-2.723-.043-.68-.066-1.363-.106-2.17-.83.743-1.54 1.507-2.403 2.09-3.427 2.333-7.227 3.207-11.313 3.017-3.983-.19-7.676-1.244-10.966-3.587-2.923-2.08-5.016-4.807-6.476-8.083-.94-2.114-1.476-4.34-1.913-6.577-.187-.993-.317-2.057-.287-3.107M23.091 66.019c.017-.314.04-.624.04-.937.004-17.103-.003-34.21.024-51.317.003-.876-.19-1.163-1.114-1.156-5.963.043-11.929.02-17.892.02-2.75-.004-3.763-.93-4.093-3.654-.106-.89-.05-1.76.09-2.623.297-1.85 1.444-2.86 3.313-2.97.314-.017.624-.01.937-.01h47.396c3.11 0 4.3 1.177 4.364 4.293.016.817 0 1.63-.207 2.43-.42 1.587-1.447 2.467-3.083 2.517-1.463.04-2.933.013-4.403.017-4.837 0-9.676.01-14.516-.01-.596-.004-.883.073-.88.796.02 15.787.014 31.57.02 47.357 0 .183.034.37.05.56-.016 1.22-.043 2.437-.05 3.66-.016 2.32-1.123 3.76-3.373 4.023-1.386.164-2.813.217-4.213-.213-1.423-.437-2.173-1.357-2.41-2.783M228.91 69.082c-3.427.126-6.887-.56-10.197-1.9-2.853-1.157-5.362-2.83-7.236-5.374-1.126-1.526-1.036-4.433.674-5.93 1.443-1.27 4.13-1.3 5.713.14 2.11 1.91 4.48 3.29 7.299 3.744 2.96.466 5.943.7 8.86-.27 1.43-.48 2.636-1.354 3.11-2.874.732-2.336-.77-4.633-3.494-5.356-2.223-.587-4.463-1.077-6.75-1.457-2.97-.493-5.916-1.253-8.686-2.52-3.293-1.503-5.642-3.943-6.286-7.553-.69-3.89-.046-7.54 2.743-10.664 2.284-2.55 5.117-3.91 8.356-4.533 5.783-1.11 11.343-.473 16.556 2.39 1.69.93 3.296 1.99 4.463 3.597.996 1.376 1.36 2.866.58 4.443-.833 1.687-2.24 2.443-4.136 2.507-1.47.053-2.504-.717-3.557-1.504-1.993-1.48-4.193-2.53-6.643-2.85-2.403-.32-4.83-.32-7.03 1.024-1.98 1.21-2.04 4.033-.136 5.403 1.43 1.033 3.08 1.367 4.756 1.673 4.263.77 8.566 1.377 12.566 3.21 3.84 1.76 6.32 4.604 6.833 8.927.843 7.093-2.866 11.883-8.686 14.187-2.626 1.043-5.626 1.656-9.673 1.54M270.062 69.088c-4.453.074-8.67-.876-12.582-3.05-1.98-1.1-3.837-2.406-5.05-4.366-1.42-2.28-.56-5.44 1.7-6.344 1.723-.683 3.396-.6 4.773.694 2.416 2.263 5.266 3.606 8.496 3.956 2.113.227 4.276.29 6.416-.103 1.5-.277 2.75-1.017 3.77-2.07 1.03-1.05 1.033-3.77-.324-5.067-1.166-1.116-2.636-1.553-4.113-1.963-2.863-.773-5.85-.97-8.712-1.717-2.097-.553-4.143-1.276-6.106-2.286-2.037-1.05-3.534-2.517-4.483-4.564-.797-1.713-1.1-3.513-1.087-5.416.017-2.73.827-5.167 2.523-7.257 2.043-2.52 4.716-4.11 7.876-4.813 6.076-1.344 11.943-.834 17.459 2.213 1.84 1.01 3.61 2.16 4.753 4.047.836 1.373.96 2.75.206 4.153-.786 1.457-2.04 2.173-3.69 2.327-1.59.146-2.776-.61-3.962-1.5-1.8-1.344-3.763-2.297-6.013-2.694-2.12-.37-4.2-.483-6.24.227-1.413.49-2.663 1.217-2.873 2.94-.196 1.7.673 2.757 2.033 3.547 1.59.916 3.387 1.096 5.14 1.413 3.9.723 7.776 1.433 11.472 3 4.83 2.047 7.577 7.037 6.927 12.187-.714 5.62-3.88 9-8.886 11-3.027 1.203-6.19 1.58-9.423 1.506M157.829 35.869v28.997c.003 1.436-.23 2.8-1.64 3.51-2.22 1.113-4.553 1.07-6.746.06-.993-.46-1.833-1.454-1.607-2.837.034-.183-.003-.373-.003-.563 0-19.617 0-39.23.003-58.84 0-2.04.89-3.117 2.967-3.554 1.54-.323 3.103-.306 4.596.197 1.5.497 2.433 1.433 2.433 3.843-.003 9.73-.003 19.46-.003 29.187" transform="translate(-374 -722) translate(197 722) translate(177.164) translate(6.666) translate(0 76.667)"/>
                        </g>
                        <g>
                            <g transform="translate(-374 -722) translate(197 722) translate(177.164) translate(6.666) translate(213.318)">
                                <mask id="8b7uwu90zd" fill="#fff">
                                    <use xlink:href="#mm5slkktxc"/>
                                </mask>
                                <path fill="#FEFEFE" d="M68.17 83.053c3.159-.207 8.089.1 7.115 7.32-.47 3.49-2.863 5.927-4.913 6.063-1.76.114-4.083-.813-6.37-3.69-2.449-3.086-2.692-5.286-2.012-6.626.773-1.527 3.736-2.907 6.18-3.067" mask="url(#8b7uwu90zd)"/>
                            </g>
                            <g transform="translate(-374 -722) translate(197 722) translate(177.164) translate(6.666) translate(213.318)">
                                <mask id="o8ted9xl2f" fill="#fff">
                                    <use xlink:href="#5xbyz1b3we"/>
                                </mask>
                                <path fill="#231F20" d="M68.223 83.88c-2.22.147-4.896 1.423-5.51 2.62-.646 1.28.057 3.373 1.934 5.727 1.803 2.276 3.87 3.513 5.67 3.393 1.676-.11 3.746-2.287 4.159-5.353.31-2.344-.01-4.057-.963-5.08-1.297-1.404-3.64-1.417-5.29-1.307m2.203 13.377c-1.373.093-4.126-.304-7.056-4-3.14-3.95-2.677-6.394-2.113-7.504.993-1.956 4.336-3.353 6.86-3.52 1.98-.13 4.826-.086 6.595 1.827 1.304 1.403 1.767 3.567 1.384 6.423-.547 4.04-3.31 6.62-5.67 6.774" mask="url(#o8ted9xl2f)"/>
                            </g>
                            <g transform="translate(-374 -722) translate(197 722) translate(177.164) translate(6.666) translate(213.318)">
                                <mask id="ye7ajqnyth" fill="#fff">
                                    <use xlink:href="#fy9z8aj43g"/>
                                </mask>
                                <path fill="#FFD440" d="M61.866 83.424c-.693 1.217-.13 2.614 1.303 4.037 2.507 2.51 7.396 4.753 12.35 5.547 5.729.913 8.179.01 8.415-2.2.317-3.114-3.446-3.24-6.716-3.834-5.866-1.066-8.416-2.913-11.256-3.986-1.9-.704-3.433-.744-4.096.436" mask="url(#ye7ajqnyth)"/>
                            </g>
                            <g transform="translate(-374 -722) translate(197 722) translate(177.164) translate(6.666) translate(213.318)">
                                <mask id="zggngstigj" fill="#fff">
                                    <use xlink:href="#5pib4smkoi"/>
                                </mask>
                                <path fill="#231F20" d="M63.13 83.401c-.237.083-.43.22-.557.437-.45.793-.057 1.813 1.17 3.036 2.426 2.434 7.206 4.557 11.909 5.314 4.386.706 6.156.196 6.866-.354.363-.273.547-.623.597-1.11.186-1.743-1.374-2.183-4.733-2.723-.437-.067-.874-.143-1.31-.213-4.313-.794-6.933-2.017-9.04-2.997-.813-.383-1.586-.733-2.356-1.03-.853-.32-1.877-.583-2.547-.36zm19.091 10.41c-1.523.507-3.753.5-6.833.003-5.086-.813-10.112-3.08-12.805-5.77-2.253-2.266-2.03-3.976-1.43-5.016.576-1.034 1.933-1.984 5.09-.8.84.306 1.633.68 2.48 1.076 2.126.994 4.536 2.12 8.642 2.867.417.073.847.14 1.277.21 2.876.453 6.466 1.037 6.106 4.507-.104.94-.514 1.696-1.23 2.256-.363.277-.79.497-1.297.667z" mask="url(#zggngstigj)"/>
                            </g>
                            <g transform="translate(-374 -722) translate(197 722) translate(177.164) translate(6.666) translate(213.318)">
                                <mask id="u6tg17nw1l" fill="#fff">
                                    <use xlink:href="#65xu0jthuk"/>
                                </mask>
                                <path fill="#FEFEFE" d="M44.502 82.1c-3.16.206-8.009 1.17-6.103 8.19.917 3.403 3.604 5.503 5.653 5.37 1.764-.12 3.95-1.347 5.837-4.494 2.03-3.387 1.983-5.597 1.14-6.833-.97-1.414-4.083-2.394-6.527-2.234" mask="url(#u6tg17nw1l)"/>
                            </g>
                            <g transform="translate(-374 -722) translate(197 722) translate(177.164) translate(6.666) translate(213.318)">
                                <mask id="kbmr4ooohn" fill="#fff">
                                    <use xlink:href="#67k0xwyg8m"/>
                                </mask>
                                <path fill="#231F20" d="M44.558 82.926c-1.65.107-3.97.427-5.077 1.997-.813 1.13-.906 2.873-.293 5.153.803 2.99 3.14 4.874 4.813 4.767 1.803-.12 3.69-1.617 5.183-4.107 1.557-2.583 1.98-4.746 1.173-5.936-.756-1.107-3.58-2.017-5.8-1.874m-.446 13.554c-2.363.153-5.436-2.037-6.503-5.967-.753-2.79-.57-4.997.544-6.557 1.506-2.123 4.32-2.543 6.299-2.673 2.523-.167 6.013.777 7.256 2.587.697 1.03 1.48 3.39-1.113 7.72-2.433 4.046-5.11 4.8-6.483 4.89" mask="url(#kbmr4ooohn)"/>
                            </g>
                            <g transform="translate(-374 -722) translate(197 722) translate(177.164) translate(6.666) translate(213.318)">
                                <mask id="tf6uuzdfip" fill="#fff">
                                    <use xlink:href="#b1w273k7jo"/>
                                </mask>
                                <path fill="#FFD440" d="M52.53 86.614c-.404 1.627-2.327 1.964-4.427 1.77-3.57-.326-8.963-2.973-11.946-4.796-4.803-2.934-6.01-5.01-4.92-6.98 1.487-2.707 4.387-.58 7.223 1.24 5.093 3.263 8.51 4.083 11.353 5.25 1.9.786 3.103 1.966 2.716 3.516" mask="url(#tf6uuzdfip)"/>
                            </g>
                            <g transform="translate(-374 -722) translate(197 722) translate(177.164) translate(6.666) translate(213.318)">
                                <mask id="eekwnvecor" fill="#fff">
                                    <use xlink:href="#ixis7wentq"/>
                                </mask>
                                <path fill="#231F20" d="M51.725 86.413c.3-1.217-1.04-2.057-2.223-2.544-.657-.266-1.343-.52-2.077-.786-2.42-.884-5.432-1.987-9.409-4.537l-.55-.353c-1.646-1.067-3.51-2.284-4.603-1.994-.223.047-.563.197-.903.814-.377.676-1.253 2.27 4.63 5.86 3.35 2.05 8.402 4.386 11.592 4.683 1.453.14 3.247.043 3.543-1.143m-2.01 2.836c-.493.03-1.053.024-1.69-.036-3.96-.364-9.592-3.26-12.295-4.914-3.37-2.056-7.013-4.84-5.22-8.096.48-.87 1.14-1.417 1.947-1.624 1.783-.453 3.786.84 5.906 2.217l.546.347c3.82 2.45 6.62 3.473 9.086 4.376.757.277 1.46.53 2.137.814 3.403 1.393 3.47 3.413 3.2 4.48-.264 1.076-1.127 2.273-3.617 2.436" mask="url(#eekwnvecor)"/>
                            </g>
                            <g transform="translate(-374 -722) translate(197 722) translate(177.164) translate(6.666) translate(213.318)">
                                <mask id="cy7utkg68t" fill="#fff">
                                    <use xlink:href="#kzffx9gs0s"/>
                                </mask>
                                <path fill="#FFD440" d="M57.441 108.3c6.65-.44 13.252-4.746 12.986-11.433-.21-5.22-3.323-10.266-5.826-16.043-2.197-5.09-5.98-6.13-9.333-5.91-3.363.223-6.973 1.75-8.496 7.08-1.73 6.06-4.163 11.47-3.697 16.67.607 6.673 7.713 10.077 14.366 9.637" mask="url(#cy7utkg68t)"/>
                            </g>
                            <g transform="translate(-374 -722) translate(197 722) translate(177.164) translate(6.666) translate(213.318)">
                                <mask id="tm1hg7p65v" fill="#fff">
                                    <use xlink:href="#htbdkmvvhu"/>
                                </mask>
                                <path fill="#231F20" d="M56.962 100.94c-4.413.287-11.529-.05-13.922-2.716.02.147.023.297.033.44.61 6.673 7.713 10.077 14.37 9.637 6.646-.44 13.252-4.747 12.982-11.434-.004-.146-.01-.3-.027-.443-2.013 2.957-9.033 4.227-13.436 4.517" mask="url(#tm1hg7p65v)"/>
                            </g>
                            <g transform="translate(-374 -722) translate(197 722) translate(177.164) translate(6.666) translate(213.318)">
                                <mask id="pc22temwnx" fill="#fff">
                                    <use xlink:href="#a9934impzw"/>
                                </mask>
                                <path fill="#231F20" d="M57.501 109.218c-6.936.46-14.666-3.06-15.335-10.466-.37-4.124.97-8.307 2.4-12.73l.303-.944c.153-.483.67-.75 1.156-.596.484.16.747.68.59 1.163l-.303.947c-1.37 4.24-2.657 8.246-2.32 11.99.57 6.246 7.316 9.193 13.39 8.793 6.065-.397 12.378-4.207 12.128-10.473-.15-3.757-.956-5.3-2.853-9.327l-.43-.907c-.217-.456-.023-1.006.437-1.23.456-.216 1.003-.02 1.223.44l.427.907c1.983 4.197 2.866 5.91 3.033 10.05.3 7.433-6.916 11.927-13.846 12.383" mask="url(#pc22temwnx)"/>
                            </g>
                            <g transform="translate(-374 -722) translate(197 722) translate(177.164) translate(6.666) translate(213.318)">
                                <mask id="b8v3soqzhz" fill="#fff">
                                    <use xlink:href="#08jmhl9shy"/>
                                </mask>
                                <path fill="#231F20" d="M42.625 94.19c.063-.23.126-.474.183-.707.3-1.204.583-2.35.863-3.447 3.327 1.757 11.283 2.447 19.489.437 2.94-.724 4.87-1.867 5.29-2.47.603 1.116 1.126 2.303 1.49 3.533-1.26 1.337-4.357 2.613-6.197 3.063-8.746 2.144-17.675 1.654-21.118-.41" mask="url(#b8v3soqzhz)"/>
                            </g>
                            <g transform="translate(-374 -722) translate(197 722) translate(177.164) translate(6.666) translate(213.318)">
                                <mask id="4t0p5fnf0B" fill="#fff">
                                    <use xlink:href="#co7yhjczdA"/>
                                </mask>
                                <path fill="#231F20" d="M52.404 103.828c1.336-.103 2.503.893 2.61 2.243l.683 8.71c.157 2.24 1.656 4.797-.16 5.477-1.517.56-5.336 1.027-5.983-.32-.863-1.783 1.39-2.513 1.38-3.753l-.757-9.734c-.106-1.34.89-2.513 2.227-2.623" mask="url(#4t0p5fnf0B)"/>
                            </g>
                            <g transform="translate(-374 -722) translate(197 722) translate(177.164) translate(6.666) translate(213.318)">
                                <mask id="j6cr1yd4sD" fill="#fff">
                                    <use xlink:href="#2kozz6jfgC"/>
                                </mask>
                                <path fill="#231F20" d="M52.47 104.648c-.88.07-1.544.85-1.477 1.74l.753 9.734c.01.873-.487 1.443-.927 1.946-.613.707-.786.97-.53 1.51.287.604 3.257.544 4.96-.093.467-.173.477-.647.043-2.42-.173-.723-.36-1.47-.413-2.227l-.68-8.703c-.067-.883-.867-1.523-1.73-1.487m.253 16.974c-1.62.103-3.33-.124-3.906-1.32-.747-1.567.2-2.664.767-3.307.256-.293.536-.613.536-.803l-.76-9.67c-.136-1.797 1.197-3.37 2.983-3.51h.044c1.763-.12 3.306 1.213 3.443 2.993l.683 8.713c.043.627.213 1.304.367 1.95.396 1.624.883 3.624-1.057 4.354-.55.21-1.796.51-3.1.6" mask="url(#j6cr1yd4sD)"/>
                            </g>
                            <g transform="translate(-374 -722) translate(197 722) translate(177.164) translate(6.666) translate(213.318)">
                                <mask id="b2bkbm8ksF" fill="#fff">
                                    <use xlink:href="#o6csgmw2pE"/>
                                </mask>
                                <path fill="#231F20" d="M62.02 103.414c-1.054.837-1.224 2.38-.388 3.437l5.417 6.83c1.406 1.747 1.903 4.287 3.776 3.777 1.563-.43 4.933-2.29 4.683-3.757-.34-1.96-3.19-1.35-4.03-2.257l-6.046-7.64c-.84-1.05-2.363-1.226-3.413-.39" mask="url(#b2bkbm8ksF)"/>
                            </g>
                            <g transform="translate(-374 -722) translate(197 722) translate(177.164) translate(6.666) translate(213.318)">
                                <mask id="chso88ijjH" fill="#fff">
                                    <use xlink:href="#noot25y7bG"/>
                                </mask>
                                <path fill="#231F20" d="M62.527 104.059c-.694.557-.807 1.583-.254 2.277l5.413 6.836c.464.574.834 1.23 1.17 1.804.824 1.46 1.15 1.853 1.757 1.686 1.753-.476 4.2-2.166 4.083-2.82-.097-.583-.64-.76-1.767-.986-.763-.15-1.546-.307-2.053-.86l-6.086-7.677c-.267-.34-.65-.55-1.077-.603-.426-.05-.85.07-1.186.343m7.97 14.283c-1.554.104-2.384-1.35-3.064-2.546-.31-.55-.633-1.124-1.017-1.6l-5.42-6.844c-1.116-1.406-.886-3.46.514-4.58 1.397-1.123 3.447-.89 4.56.524l6.053 7.636c.096.107.693.224 1.12.31 1.096.224 2.763.557 3.07 2.32.41 2.354-3.994 4.344-5.267 4.694-.197.043-.38.076-.55.086" mask="url(#chso88ijjH)"/>
                            </g>
                            <g transform="translate(-374 -722) translate(197 722) translate(177.164) translate(6.666) translate(213.318)">
                                <mask id="cdpnxmzybJ" fill="#fff">
                                    <use xlink:href="#qsu5ss51yI"/>
                                </mask>
                                <path fill="#231F20" d="M57.088 90.683c-.19-.003-.38-.076-.53-.22-1.233-1.2-3.203-3.253-4.95-5.06-.713-.75-1.406-1.46-2.01-2.086-.3-.31-.293-.81.01-1.107.314-.303.804-.293 1.104.017.606.62 1.303 1.343 2.016 2.093 1.5 1.557 3.173 3.3 4.386 4.497 1.244-1.164 2.957-2.854 4.49-4.364.74-.73 1.463-1.44 2.087-2.05.31-.3.8-.29 1.103.017.293.31.287.803-.017 1.107-.633.613-1.34 1.313-2.083 2.043-1.78 1.757-3.806 3.747-5.07 4.907-.153.136-.343.21-.536.206" mask="url(#cdpnxmzybJ)"/>
                            </g>
                            <g transform="translate(-374 -722) translate(197 722) translate(177.164) translate(6.666) translate(213.318)">
                                <mask id="9xnjxaxzxL" fill="#fff">
                                    <use xlink:href="#pmgefxjdaK"/>
                                </mask>
                                <path fill="#F9A633" d="M59.454 97.565L61.301 93.775 59.561 89.932 54.635 89.862 52.788 93.658 54.528 97.495z" mask="url(#9xnjxaxzxL)"/>
                            </g>
                            <g transform="translate(-374 -722) translate(197 722) translate(177.164) translate(6.666) translate(213.318)">
                                <mask id="3is7mtoouN" fill="#fff">
                                    <use xlink:href="#tjjiu4pmuM"/>
                                </mask>
                                <path fill="#231F20" d="M55.034 96.722l3.943.05 1.47-3.01-1.387-3.054-3.94-.05-1.47 3.01 1.384 3.054zm4.413 1.62l-4.926-.064c-.3-.006-.574-.18-.7-.456l-1.74-3.844c-.097-.213-.097-.453.006-.663l1.85-3.793c.134-.267.407-.44.71-.437l4.923.067c.304.006.57.186.7.46l1.74 3.836c.097.214.093.46-.01.677l-1.846 3.783c-.134.274-.407.44-.707.434z" mask="url(#3is7mtoouN)"/>
                            </g>
                            <g transform="translate(-374 -722) translate(197 722) translate(177.164) translate(6.666) translate(213.318)">
                                <mask id="31v8w3d0qP" fill="#fff">
                                    <use xlink:href="#gdpyymu6gO"/>
                                </mask>
                                <path fill="#FEFEFE" d="M57.672 94.466c.003.193-.037.32-.143.39-.204.07-.484.077-.847.043l.013-1.026c.29-.02.534.006.717.08.163.093.25.266.26.513m1.047-.07c-.044-.683-.327-1.14-.837-1.387-.287-.17-.677-.23-1.17-.19l.013-.946c0-.147-.05-.27-.153-.38-.103-.107-.22-.16-.363-.164-.14-.003-.267.05-.37.154-.02.02-.037.033-.057.053-.07.09-.106.197-.113.317l-.047 3.47c.004.126.04.24.12.336.08.094.184.157.297.197.863.19 1.5.18 1.91-.03.566-.237.823-.72.77-1.43" mask="url(#31v8w3d0qP)"/>
                            </g>
                            <g transform="translate(-374 -722) translate(197 722) translate(177.164) translate(6.666) translate(213.318)">
                                <mask id="0fp9yxkjrR" fill="#fff">
                                    <use xlink:href="#07w5euvk6Q"/>
                                </mask>
                                <path fill="#231F20" d="M57.77 23.831l.026.037c.257.276.704.256.944-.044.093-.113.143-.266.14-.41-.094-5.833-.884-10.736-2.124-15.01-1.693-5.813-3.81-8.726-5.616-7.86-1.41.777-.47 3.757 2.623 9.624 2.104 4.006 3.32 8.66 3.84 13.306.013.134.077.264.167.357" mask="url(#0fp9yxkjrR)"/>
                            </g>
                            <g transform="translate(-374 -722) translate(197 722) translate(177.164) translate(6.666) translate(213.318)">
                                <mask id="v4wbvpi0tT" fill="#fff">
                                    <use xlink:href="#yrnk65bp3S"/>
                                </mask>
                                <path fill="#231F20" d="M69.493 24.625c1.386-4.46 3.47-8.8 6.289-12.32 4.15-5.17 5.636-7.913 4.406-8.946-1.6-1.2-4.236 1.246-7.002 6.633-2.03 3.957-3.737 8.62-4.94 14.33-.033.15-.003.303.06.433.18.337.613.437.92.217l.033-.023c.11-.08.19-.194.234-.324" mask="url(#v4wbvpi0tT)"/>
                            </g>
                            <g transform="translate(-374 -722) translate(197 722) translate(177.164) translate(6.666) translate(213.318)">
                                <mask id="glaog7efxV" fill="#fff">
                                    <use xlink:href="#h7dottfg6U"/>
                                </mask>
                                <path fill="#FFD440" d="M57.778 84.205C40.066 82.49 22.367 73.38 26.537 49.582c3.95-22.567 23.115-27.527 37.074-26.17 13.952 1.347 31.817 9.893 31.41 32.807-.423 24.156-19.531 29.703-37.243 27.986" mask="url(#glaog7efxV)"/>
                            </g>
                            <g transform="translate(-374 -722) translate(197 722) translate(177.164) translate(6.666) translate(213.318)">
                                <mask id="m1q41akmaX" fill="#fff">
                                    <use xlink:href="#sagmgwmb3W"/>
                                </mask>
                                <path fill="#231F20" d="M56.41 24.108c-13.033.86-25.956 7.85-29.069 25.62-1.523 8.686-.16 15.913 4.057 21.473 5.063 6.697 14.455 11.027 26.464 12.187 11.996 1.166 22.042-1.277 28.285-6.877 5.193-4.657 7.9-11.49 8.063-20.307.376-21.343-15.606-30.513-30.681-31.97-2.337-.233-4.73-.283-7.12-.126m10.626 61.09c-2.956.193-6.073.143-9.333-.174-12.459-1.206-22.265-5.76-27.608-12.813-4.5-5.95-5.97-13.607-4.363-22.777 1.83-10.44 6.94-18.056 15.196-22.62 8.586-4.753 17.945-4.686 22.762-4.213 4.813.463 14.009 2.19 21.538 8.497 7.23 6.066 10.803 14.52 10.62 25.136-.17 9.294-3.064 16.534-8.617 21.504-4.856 4.356-11.852 6.91-20.195 7.46" mask="url(#m1q41akmaX)"/>
                            </g>
                            <g transform="translate(-374 -722) translate(197 722) translate(177.164) translate(6.666) translate(213.318)">
                                <mask id="7t04vuwpyZ" fill="#fff">
                                    <use xlink:href="#029tl7icvY"/>
                                </mask>
                                <path fill="#231F20" d="M66.2 52.197c-.09.937.59 1.767 1.523 1.86.934.087 1.767-.603 1.854-1.54.096-.93-.59-1.767-1.527-1.853-.93-.09-1.76.593-1.85 1.533" mask="url(#7t04vuwpyZ)"/>
                            </g>
                            <g transform="translate(-374 -722) translate(197 722) translate(177.164) translate(6.666) translate(213.318)">
                                <mask id="yazeci4vcab" fill="#fff">
                                    <use xlink:href="#f67ao6spjaa"/>
                                </mask>
                                <path fill="#231F20" d="M52.337 50.237c-.093.94.59 1.774 1.527 1.867.93.083 1.763-.603 1.846-1.543.097-.93-.586-1.767-1.523-1.85-.93-.097-1.76.593-1.85 1.526" mask="url(#yazeci4vcab)"/>
                            </g>
                            <g transform="translate(-374 -722) translate(197 722) translate(177.164) translate(6.666) translate(213.318)">
                                <mask id="gi8rz2gaxad" fill="#fff">
                                    <use xlink:href="#a3hypmdh9ac"/>
                                </mask>
                                <path fill="#F9A633" d="M46.9 53.366c-.297 3.143-3.073 5.44-6.2 5.14-3.126-.3-5.413-3.097-5.12-6.237.307-3.14 3.087-5.44 6.21-5.143 3.127.306 5.413 3.096 5.11 6.24" mask="url(#gi8rz2gaxad)"/>
                            </g>
                            <g transform="translate(-374 -722) translate(197 722) translate(177.164) translate(6.666) translate(213.318)">
                                <mask id="fgnz5neq7af" fill="#fff">
                                    <use xlink:href="#caw32dvq9ae"/>
                                </mask>
                                <path fill="#F9A633" d="M74.316 56.022c-.303 3.143 1.987 5.93 5.117 6.237 3.12.3 5.903-2 6.2-5.144.303-3.14-1.99-5.926-5.114-6.233-3.123-.307-5.9 2-6.203 5.14" mask="url(#fgnz5neq7af)"/>
                            </g>
                            <g transform="translate(-374 -722) translate(197 722) translate(177.164) translate(6.666) translate(213.318)">
                                <mask id="xddob7fwvah" fill="#fff">
                                    <use xlink:href="#lkfqv9p52ag"/>
                                </mask>
                                <path fill="#EE403D" d="M53.883 55.43c-.436 3.603 1.167 8.29 5.913 8.746 4.757.463 7.21-3.853 7.45-7.467l-13.363-1.28z" mask="url(#xddob7fwvah)"/>
                            </g>
                            <g transform="translate(-374 -722) translate(197 722) translate(177.164) translate(6.666) translate(213.318)">
                                <mask id="7rtcux2ezaj" fill="#fff">
                                    <use xlink:href="#vxml5sqkbai"/>
                                </mask>
                                <path fill="#231F20" d="M54.635 56.328c-.056 1.91.504 3.803 1.527 5.08.913 1.143 2.166 1.803 3.713 1.947 1.553.146 2.9-.264 4.016-1.214 1.25-1.063 2.153-2.813 2.453-4.7l-11.709-1.113zm6.326 8.683c-.406.027-.816.027-1.243-.02-1.97-.193-3.64-1.07-4.83-2.553-1.456-1.823-2.133-4.477-1.82-7.107.05-.443.45-.763.89-.72l13.37 1.274c.44.043.77.433.74.88-.177 2.646-1.344 5.116-3.113 6.633-1.14.97-2.504 1.517-3.994 1.613z" mask="url(#7rtcux2ezaj)"/>
                            </g>
                        </g>
                        <g transform="translate(-374 -722) translate(197 722) translate(177.164) translate(6.666)">
                            <path fill="#020303" d="M173.422 88.131c-.63-.353-1.133-.846-1.5-1.483-.36-.637-.547-1.317-.547-2.043 0-1.1.4-2.05 1.194-2.82.786-.774 1.793-1.164 2.983-1.164 1.463 0 2.636.574 3.493 1.684.09-.064.743-.464.856-.54-.276-.444-.6-.82-.986-1.114-.407-.31-.907-.563-1.49-.763-.587-.187-1.2-.287-1.827-.287-.996 0-1.913.227-2.716.674-.81.44-1.45 1.066-1.91 1.85-.46.793-.693 1.66-.693 2.586 0 1.36.5 2.537 1.483 3.49.983.96 2.243 1.444 3.74 1.444.973 0 1.86-.194 2.623-.57.733-.364 1.33-.88 1.773-1.534-.11-.076-.767-.503-.853-.57-.904 1.11-2.073 1.684-3.483 1.684-.784 0-1.504-.177-2.14-.524M195.514 81.556c.083-.087.593-.614.686-.717-.863-.817-1.723-1.237-2.57-1.237-.74 0-1.356.24-1.84.714-.48.466-.726 1.063-.726 1.773 0 .55.153 1.043.456 1.463.304.43.894.867 1.754 1.307.826.43 1.343.78 1.59 1.067.236.29.363.626.363 1 0 .453-.187.856-.55 1.186-.363.34-.813.51-1.33.51-.707 0-1.383-.356-2.01-1.043-.09.097-.6.683-.676.767.313.393.706.713 1.18.94.496.24 1.02.36 1.563.36.803 0 1.493-.274 2.033-.807.533-.537.806-1.2.806-1.967 0-.543-.156-1.043-.473-1.476-.323-.434-.95-.897-1.856-1.374-.774-.4-1.27-.736-1.517-1.04-.253-.296-.377-.616-.377-.95 0-.38.154-.716.457-.993.303-.283.673-.427 1.093-.427.63 0 1.284.32 1.944.944M203.8 80.146c-.54-.36-1.176-.543-1.876-.543-.687 0-1.33.163-1.923.483-.593.327-1.137.82-1.633 1.477l-.144.19V76.11h-1.083v13.28h1.083v-3.474c0-1.3.06-2.17.18-2.656.19-.754.597-1.387 1.204-1.894.603-.513 1.3-.77 2.066-.77.67 0 1.223.167 1.647.5.413.337.703.84.866 1.49.09.387.134 1.127.134 2.26v4.544h1.08v-4.907c0-1.31-.134-2.28-.39-2.89-.26-.603-.664-1.09-1.21-1.447M181.169 84.645c0-2.193 1.776-3.98 3.963-3.98 2.19 0 3.96 1.787 3.96 3.98 0 2.197-1.77 3.98-3.96 3.98-2.187 0-3.963-1.783-3.963-3.98m-1.04 0c0 2.777 2.24 5.027 5.003 5.027 2.76 0 5.003-2.25 5.003-5.027 0-2.78-2.243-5.03-5.003-5.03-2.763 0-5.003 2.25-5.003 5.03"/>
                            <mask id="42zqlm5tual" fill="#fff">
                                <use xlink:href="#ipdrys3joak"/>
                            </mask>
                            <path fill="#020303" d="M189.096 89.363L190.156 89.363 190.156 79.847 189.096 79.847zM213.44 88.59c-2.213 0-4.003-1.8-4.003-4.02 0-2.216 1.79-4.023 4.003-4.023 2.207 0 3.997 1.807 3.997 4.023 0 2.22-1.79 4.02-3.997 4.02m0-9.1c-2.79 0-5.053 2.27-5.053 5.077 0 2.803 2.263 5.077 5.053 5.077 2.787 0 5.046-2.274 5.046-5.077 0-2.807-2.26-5.077-5.046-5.077" mask="url(#42zqlm5tual)"/>
                            <path fill="#020303" d="M209.433 84.704L208.363 84.704 208.357 75.927 209.433 75.927zM220.487 83.509c.26-.903.64-1.58 1.147-2.03.686-.627 1.51-.933 2.473-.933.586 0 1.14.123 1.663.366.527.25.957.574 1.28.98.316.407.563.947.733 1.617h-7.296zm3.603-4.087c-1.586 0-2.866.614-3.816 1.82-.747.96-1.12 2.067-1.12 3.29 0 1.297.44 2.484 1.326 3.51.88 1.027 2.117 1.55 3.68 1.55.707 0 1.347-.113 1.91-.326.557-.217 1.063-.534 1.506-.947.43-.397.817-.93 1.147-1.567-.127-.066-.807-.423-.913-.486-.374.616-.727 1.07-1.047 1.353-.333.293-.746.533-1.226.71-.477.173-.977.263-1.48.263-1.054 0-1.95-.376-2.667-1.12-.71-.743-1.09-1.706-1.11-2.866v-.087h8.796c-.03-1.28-.376-2.363-1.056-3.22-.977-1.25-2.297-1.877-3.93-1.877zM232.128 81.478c.687-.624 1.514-.93 2.474-.93.583 0 1.136.123 1.663.363.53.25.953.573 1.276.98.32.407.56.947.737 1.617h-7.296c.257-.9.64-1.577 1.146-2.03m3.903 6.853c-.48.17-.98.263-1.48.263-1.053 0-1.946-.38-2.663-1.12-.72-.746-1.09-1.71-1.116-2.87v-.086h8.796c-.027-1.28-.373-2.364-1.053-3.22-.977-1.25-2.297-1.874-3.93-1.874-1.583 0-2.873.61-3.813 1.82-.75.96-1.127 2.067-1.127 3.287 0 1.3.45 2.483 1.334 3.513.873 1.024 2.116 1.55 3.68 1.55.703 0 1.346-.116 1.9-.33.56-.216 1.072-.53 1.512-.943.43-.397.814-.933 1.147-1.57-.127-.067-.807-.423-.913-.483-.374.613-.727 1.07-1.044 1.353-.34.293-.753.53-1.23.71" mask="url(#42zqlm5tual)"/>
                        </g>
                    </g>
                </g>
            </g>
        </g>
    </g>
</svg>
