<svg xmlns="http://www.w3.org/2000/svg" width="641" height="75" viewBox="0 0 641 75">
    <g fill="none" fill-rule="evenodd">
        <g>
            <g>
                <path fill="#0050A3" d="M197.384 51.304L195.348 53.33 195.348 57.79 197.384 59.816 220.28 59.816 222.32 57.79 222.32 53.33 220.28 51.304zM215.084 27.127L222.398 27.127 222.398 21.206 215.084 21.206z" transform="translate(-220 -65) translate(220 65)"/>
                <path fill="#0050A3" d="M179.56 0v2.632h-23.017L153.903 0H10.528l.004 45.881L0 59.276V72.37h27.798V75h135.328v-2.63h23.405l2.646 2.63h39.319l2.64-2.63h32.293V75h19.735l37.492-37.5L283.164 0H179.56zm-66.751 24.666V14.11l6.579-6.544h29.608l6.572 6.544v10.557l-6.572 6.542h-29.608l-6.58-6.542zm158.513 42.437h7.896V7.897h-7.896v59.206zM222.398 13.81V7.897h7.814v32.224h-7.814v-5.589h-10.936l-5.254 5.253h-18.741V32.22h15.372l4.436-4.433V16.12h-19.808V8.552h27.62v5.257h7.31zM47.854 30.95V7.897h7.73v59.206h-7.73V38.517H43.58v28.586h-7.894v-2.63h-7.64L22.37 57.25l-5.678 7.223H7.894v-1.312l10.528-13.396-.002-41.868h7.898v41.868l9.368 11.921V7.897h7.894V30.95h4.274zM237.777 8.552h26.31v45.103l-10.814 10.818h-15.496v-7.566h12.128l6.293-6.288v-34.5h-18.421V8.552zm-173.312 0h40.127V31.75H72.359v8.063h32.233v7.567H88.474v11.502h17.435v7.565h-42.76v-7.565h17.432V47.38H64.465V24.185h32.228V16.12H64.465V8.552zm48.344 27.294h42.759v7.567h-16.116v9.865h-7.892v-9.865h-18.751v-7.567zm74.649 24.992V50.282l6.57-6.544h29.61l6.574 6.544v10.556l-6.574 6.543h-29.61l-6.57-6.543zm-73.662-12.82h7.899v11.188h33.536v7.566h-41.44l.005-18.754z" transform="translate(-220 -65) translate(220 65)"/>
                <path fill="#0050A3" d="M122.743 15.132L120.704 17.16 120.704 21.619 122.743 23.643 145.64 23.643 147.677 21.619 147.677 17.16 145.64 15.132z" transform="translate(-220 -65) translate(220 65)"/>
                <path fill="#BD9500" d="M422.356 51.304L420.318 53.33 420.318 57.79 422.356 59.816 445.252 59.816 447.284 57.79 447.284 53.33 445.252 51.304zM372.028 51.304L369.997 53.33 369.997 57.79 372.028 59.816 394.924 59.816 396.963 57.79 396.963 53.33 394.924 51.304zM547.572 49.766L556.942 61.686 556.942 37.201 547.572 37.201zM481.762 36.822L483.794 34.794 483.794 29.679 481.762 27.651 472.676 27.651 470.639 29.679 470.639 34.794 472.676 36.822zM594.022 51.304L591.981 53.33 591.981 57.79 594.022 59.816 616.253 59.816 618.293 57.79 618.293 53.33 616.253 51.304z" transform="translate(-220 -65) translate(220 65)"/>
                <path fill="#BD9500" d="M531.781.003V2.63h-19.669V.003H358.153l-37.498 37.495L358.153 75h44.986l5.498-5.469L414.141 75h98.627v-2.631h36.28V75h75.423l9.608-9.569V35.846H640V12.491h-5.92V.003H531.78zm-69.02 9.858h10.525v-3.94h7.89v3.94H491.7v7.565h-28.939V9.861zm155.532-1.966h7.89v12.492h5.922v7.566h-5.922v12.168h-7.89V7.895zM582.76 38.799l12.5-15.906V7.895h7.894v14.998l12.494 15.901v1.322h-8.79l-7.652-9.737-7.65 9.737h-8.796v-1.317zm-13.65 28.304h7.728V7.895h-7.729v59.208zm-12.167-37.467V7.895h7.895v59.208h-7.895v-2.629h-7.64l-5.678-7.224-5.678 7.224h-8.795v-1.313l10.526-13.395V7.895h7.895v21.741h9.37zM496.327 7.895h7.896v14.467h5.916v7.565h-5.916v21.377h-7.896V7.895zm-57.61 12.819h8.572V7.895h7.89v32.226h-7.89V28.279h-8.572v-7.565zM362.423 8.178h41.442v16.447l-1.713 6.904h2.706v7.566H362.1v-7.566h12.824v-9.87h7.896v9.87h11.454l1.702-6.858v-8.927h-33.553V8.178zm50.005.366h28.94v7.565h-10.526v6.784l12.5 15.901v1.322h-8.796l-7.65-9.737-7.653 9.737h-8.789v-1.317l12.5-15.906v-6.784h-10.526V8.544zm50.312 29.297V26.63l6.58-6.543h15.797l6.572 6.543v11.211l-6.572 6.548H469.32l-6.58-6.548zm121.348 23.003V50.282l6.571-6.543h28.952l6.577 6.543v10.562l-6.577 6.538H590.66l-6.57-6.538zm-171.666 0V50.282l6.571-6.543h29.608l6.577 6.543v10.562l-6.577 6.538h-29.608l-6.57-6.538zm-50.322 0V50.282l6.572-6.543h29.608l6.578 6.543v10.562l-6.578 6.538h-29.608l-6.572-6.538zm101.346-12.838h7.895v11.532h33.538v7.565H463.44l.006-19.097z" transform="translate(-220 -65) translate(220 65)"/>
            </g>
        </g>
    </g>
</svg>
