<svg xmlns="http://www.w3.org/2000/svg" xmlns:xlink="http://www.w3.org/1999/xlink" width="960" height="960" viewBox="0 0 960 960">
    <defs>
        <path id="g12n1briga" d="M0 0L960 0 960 960 0 960z"/>
        <path id="h4p84d9z1c" d="M0 960L960 960 960 0 0 0z"/>
    </defs>
    <g fill="none" fill-rule="evenodd">
        <g>
            <g transform="translate(-60 -280) translate(60 280)">
                <g>
                    <mask id="bwcy11bqqb" fill="#fff">
                        <use xlink:href="#g12n1briga"/>
                    </mask>
                    <path fill="#A4E3F4" d="M920 960H40c-22.092 0-40-17.908-40-40V40C0 17.909 17.908 0 40 0h880c22.091 0 40 17.909 40 40v880c0 22.092-17.909 40-40 40" mask="url(#bwcy11bqqb)"/>
                </g>
                <path fill="#C3EEFC" d="M128.03 519.935c0-194.388 157.583-351.969 351.97-351.969 194.387 0 351.969 157.581 351.969 351.97 0 194.386-157.582 351.968-351.968 351.968-194.388 0-351.97-157.582-351.97-351.969"/>
                <mask id="conqt021dd" fill="#fff">
                    <use xlink:href="#h4p84d9z1c"/>
                </mask>
                <path fill="#41A9DA" d="M68.309 809.971L198.27 809.971 198.27 472.358 68.309 472.358zM857.07 472.358L857.07 377.32 721.32 377.32 721.32 756.552 721.32 809.971 891.691 809.971 891.691 472.358z" mask="url(#conqt021dd)"/>
                <path fill="#41A9DA" d="M165.692 809.971L295.652 809.971 295.652 515.057 165.692 515.057zM644.841 809.972L774.801 809.972 774.801 583.037 644.841 583.037zM355.671 809.972L485.631 809.972 485.631 653.88 355.671 653.88z" mask="url(#conqt021dd)"/>
                <path fill="#41A9DA" d="M639.397 367.71L639.397 321.31 623.171 321.31 623.171 268.386 472.805 268.386 472.805 321.31 456.58 321.31 456.58 367.71 439.809 367.71 439.809 809.972 656.167 809.972 656.167 367.71zM365.073 321.139L365.073 258.882 259.499 258.882 259.499 321.139 230.673 321.139 230.673 809.971 393.899 809.971 393.899 321.139z" mask="url(#conqt021dd)"/>
                <path fill="#8CCEEB" d="M93.094 523.887L109.18 523.887 109.18 507.801 93.094 507.801zM125.246 523.887L141.332 523.887 141.332 507.801 125.246 507.801zM157.399 523.887L173.485 523.887 173.485 507.801 157.399 507.801zM93.094 560.406L109.18 560.406 109.18 544.32 93.094 544.32zM125.246 560.406L141.332 560.406 141.332 544.32 125.246 544.32zM157.399 560.406L173.485 560.406 173.485 544.32 157.399 544.32zM93.094 596.926L109.18 596.926 109.18 580.84 93.094 580.84zM125.246 596.926L141.332 596.926 141.332 580.84 125.246 580.84zM157.399 596.926L173.485 596.926 173.485 580.84 157.399 580.84zM93.094 633.446L109.18 633.446 109.18 617.36 93.094 617.36zM125.246 633.446L141.332 633.446 141.332 617.36 125.246 617.36zM157.399 633.446L173.485 633.446 173.485 617.36 157.399 617.36zM93.094 669.966L109.18 669.966 109.18 653.88 93.094 653.88zM125.246 669.966L141.332 669.966 141.332 653.88 125.246 653.88zM157.399 669.966L173.485 669.966 173.485 653.88 157.399 653.88zM93.094 706.485L109.18 706.485 109.18 690.399 93.094 690.399zM125.246 706.485L141.332 706.485 141.332 690.399 125.246 690.399zM157.399 706.485L173.485 706.485 173.485 690.399 157.399 690.399zM93.094 743.006L109.18 743.006 109.18 726.919 93.094 726.919zM125.246 743.006L141.332 743.006 141.332 726.919 125.246 726.919zM157.399 743.006L173.485 743.006 173.485 726.919 157.399 726.919zM93.094 779.525L109.18 779.525 109.18 763.439 93.094 763.439zM125.246 779.525L141.332 779.525 141.332 763.439 125.246 763.439zM157.399 779.525L173.485 779.525 173.485 763.439 157.399 763.439zM253.28 364.786L371.289 364.786 371.289 347.938 253.28 347.938zM273.972 298.212L350.599 298.212 350.599 281.364 273.972 281.364zM253.28 401.784L371.289 401.784 371.289 384.936 253.28 384.936zM253.28 438.781L371.289 438.781 371.289 421.933 253.28 421.933zM253.28 475.779L371.289 475.779 371.289 458.931 253.28 458.931zM253.28 512.776L371.289 512.776 371.289 495.929 253.28 495.929zM253.28 549.774L371.289 549.774 371.289 532.926 253.28 532.926zM253.28 586.772L371.289 586.772 371.289 569.924 253.28 569.924zM253.28 623.769L371.289 623.769 371.289 606.921 253.28 606.921zM253.28 660.767L371.289 660.767 371.289 643.919 253.28 643.919zM253.28 697.764L371.289 697.764 371.289 680.917 253.28 680.917zM253.28 734.763L371.289 734.763 371.289 717.915 253.28 717.915zM253.28 771.761L371.289 771.761 371.289 754.913 253.28 754.913zM462.754 420.573L474.432 420.573 474.432 393.187 462.754 393.187zM494.512 420.573L506.191 420.573 506.191 393.187 494.512 393.187zM526.27 420.573L537.949 420.573 537.949 393.187 526.27 393.187zM558.027 420.573L569.706 420.573 569.706 393.187 558.027 393.187zM589.785 420.573L601.464 420.573 601.464 393.187 589.785 393.187zM621.544 420.573L633.222 420.573 633.222 393.187 621.544 393.187zM494.512 370.055L506.191 370.055 506.191 342.67 494.512 342.67zM526.27 370.055L537.949 370.055 537.949 342.67 526.27 342.67zM558.027 370.055L569.706 370.055 569.706 342.67 558.027 342.67zM589.785 370.055L601.464 370.055 601.464 342.67 589.785 342.67zM494.512 322.529L506.191 322.529 506.191 295.143 494.512 295.143zM526.27 322.529L537.949 322.529 537.949 295.143 526.27 295.143zM558.027 322.529L569.706 322.529 569.706 295.143 558.027 295.143zM589.785 322.529L601.464 322.529 601.464 295.143 589.785 295.143zM462.754 479.402L474.432 479.402 474.432 452.016 462.754 452.016zM494.512 479.402L506.191 479.402 506.191 452.016 494.512 452.016zM526.27 479.402L537.949 479.402 537.949 452.016 526.27 452.016zM558.027 479.402L569.706 479.402 569.706 452.016 558.027 452.016zM589.785 479.402L601.464 479.402 601.464 452.016 589.785 452.016zM621.544 479.402L633.222 479.402 633.222 452.016 621.544 452.016zM462.754 538.23L474.432 538.23 474.432 510.845 462.754 510.845zM494.512 538.23L506.191 538.23 506.191 510.845 494.512 510.845zM526.27 538.23L537.949 538.23 537.949 510.845 526.27 510.845zM558.027 538.23L569.706 538.23 569.706 510.845 558.027 510.845zM589.785 538.23L601.464 538.23 601.464 510.845 589.785 510.845zM621.544 538.23L633.222 538.23 633.222 510.845 621.544 510.845zM462.754 597.059L474.432 597.059 474.432 569.673 462.754 569.673zM494.512 597.059L506.191 597.059 506.191 569.673 494.512 569.673zM526.27 597.059L537.949 597.059 537.949 569.673 526.27 569.673zM558.027 597.059L569.706 597.059 569.706 569.673 558.027 569.673zM589.785 597.059L601.464 597.059 601.464 569.673 589.785 569.673zM621.544 597.059L633.222 597.059 633.222 569.673 621.544 569.673zM462.754 655.888L474.432 655.888 474.432 628.502 462.754 628.502zM494.512 655.888L506.191 655.888 506.191 628.502 494.512 628.502zM526.27 655.888L537.949 655.888 537.949 628.502 526.27 628.502zM558.027 655.888L569.706 655.888 569.706 628.502 558.027 628.502zM589.785 655.888L601.464 655.888 601.464 628.502 589.785 628.502zM621.544 655.888L633.222 655.888 633.222 628.502 621.544 628.502zM462.754 714.717L474.432 714.717 474.432 687.332 462.754 687.332zM494.512 714.717L506.191 714.717 506.191 687.332 494.512 687.332zM526.27 714.717L537.949 714.717 537.949 687.332 526.27 687.332zM558.027 714.717L569.706 714.717 569.706 687.332 558.027 687.332zM589.785 714.717L601.464 714.717 601.464 687.332 589.785 687.332zM621.544 714.717L633.222 714.717 633.222 687.332 621.544 687.332zM462.754 773.546L474.432 773.546 474.432 746.16 462.754 746.16zM494.512 773.546L506.191 773.546 506.191 746.16 494.512 746.16zM526.27 773.546L537.949 773.546 537.949 746.16 526.27 746.16zM558.027 773.546L569.706 773.546 569.706 746.16 558.027 746.16zM589.785 773.546L601.464 773.546 601.464 746.16 589.785 746.16zM621.544 773.546L633.222 773.546 633.222 746.16 621.544 746.16zM746.185 448.253L768.016 448.253 768.016 426.422 746.185 426.422zM795.59 448.253L817.421 448.253 817.421 426.422 795.59 426.422zM746.185 501.169L768.016 501.169 768.016 479.338 746.185 479.338zM795.59 501.169L817.421 501.169 817.421 479.338 795.59 479.338zM746.185 554.085L768.016 554.085 768.016 532.254 746.185 532.254zM795.59 554.085L817.421 554.085 817.421 532.254 795.59 532.254zM746.185 607.001L768.016 607.001 768.016 585.17 746.185 585.17zM795.59 607.001L817.421 607.001 817.421 585.17 795.59 585.17zM746.185 659.917L768.016 659.917 768.016 638.086 746.185 638.086zM795.59 659.917L817.421 659.917 817.421 638.086 795.59 638.086zM746.185 712.833L768.016 712.833 768.016 691.002 746.185 691.002zM795.59 712.833L817.421 712.833 817.421 691.002 795.59 691.002zM746.185 765.749L768.016 765.749 768.016 743.918 746.185 743.918zM795.59 765.749L817.421 765.749 817.421 743.918 795.59 743.918z" mask="url(#conqt021dd)"/>
                <path fill="#59AA24" d="M163.325 750.714c0-10.56-6.537-19.591-15.785-23.27-.146-9.584-7.96-17.307-17.577-17.307-5.441 0-10.304 2.472-13.53 6.353-3.096-5.06-8.674-8.437-15.042-8.437-7.088 0-13.198 4.184-15.997 10.218-.944-.122-1.907-.185-2.884-.185-12.382 0-22.42 10.037-22.42 22.419 0 2.592.442 5.08 1.25 7.396-5.68 3.319-9.494 9.479-9.494 16.532 0 9.443 6.839 17.288 15.835 18.85l-.002.285c0 13.827 11.208 25.036 25.034 25.036 5.075 0 9.797-1.512 13.742-4.108 3.055 2.563 6.993 4.108 11.293 4.108 6.795 0 12.689-3.857 15.615-9.5 1.585.36 3.233.55 4.928.55 12.235 0 22.153-9.918 22.153-22.153 0-3.945-1.032-7.648-2.84-10.857 3.574-4.328 5.72-9.878 5.72-15.93" mask="url(#conqt021dd)"/>
                <path fill="#FFF" d="M68.349 745.784c-.72 0-1.341-.537-1.428-1.27-.019-.167-.468-4.147.955-8.531 1.343-4.139 4.64-9.407 12.719-10.991.779-.151 1.537.356 1.69 1.137.153.78-.356 1.537-1.136 1.69-5.35 1.048-8.884 4.065-10.505 8.965-1.255 3.795-.866 7.359-.862 7.396.09.789-.476 1.502-1.264 1.594-.057.007-.113.01-.169.01M60.71 767.362c-.724 0-1.347-.542-1.43-1.276-.616-5.389 1.735-8.92 3.815-10.934 2.218-2.146 4.586-3.036 4.685-3.073.746-.276 1.575.105 1.85.851.275.745-.105 1.572-.848 1.85-.322.121-7.558 2.953-6.64 10.978.09.791-.478 1.504-1.268 1.594-.056.007-.11.01-.165.01" mask="url(#conqt021dd)"/>
                <path fill="#3A9300" d="M263.939 733.588c0-13.061-8.085-24.23-19.523-28.781-.181-11.854-9.844-21.407-21.741-21.407-6.728 0-12.744 3.057-16.732 7.858-3.831-6.26-10.731-10.436-18.607-10.436-8.766 0-16.324 5.176-19.785 12.638-1.17-.15-2.36-.227-3.568-.227-15.314 0-27.73 12.414-27.73 27.728 0 3.205.547 6.283 1.548 9.148-7.025 4.104-11.745 11.724-11.745 20.448 0 11.679 8.46 21.382 19.587 23.315-.001.118-.004.235-.004.353 0 17.1 13.863 30.964 30.964 30.964 6.277 0 12.117-1.871 16.996-5.081 3.778 3.17 8.65 5.08 13.968 5.08 8.404 0 15.695-4.77 19.314-11.748 1.96.445 3.999.68 6.094.68 15.134 0 27.4-12.267 27.4-27.4 0-4.88-1.276-9.461-3.512-13.43 4.42-5.353 7.076-12.218 7.076-19.702" mask="url(#conqt021dd)"/>
                <path fill="#FFF" d="M146.47 727.151c-.72 0-1.342-.538-1.429-1.27-.023-.205-.569-5.056 1.167-10.408 1.633-5.033 5.644-11.437 15.473-13.364.78-.15 1.537.355 1.69 1.136.153.78-.356 1.537-1.136 1.69-6.788 1.33-11.259 5.175-13.287 11.427-1.544 4.76-1.05 9.137-1.046 9.181.093.79-.47 1.504-1.26 1.598-.059.007-.115.01-.172.01M137.02 752.878c-.24 0-.447-.181-.475-.426-.702-6.137 1.968-10.152 4.33-12.44 2.549-2.466 5.229-3.474 5.342-3.515.249-.093.525.035.617.283.09.249-.036.525-.284.618-.026.008-2.63.993-5.032 3.33-3.193 3.104-4.545 7.012-4.02 11.616.03.263-.16.5-.421.53-.02.003-.037.004-.056.004M176.924 702.32c-.146 0-.296-.023-.442-.07-.758-.243-1.174-1.06-.932-1.818.075-.237.812-2.373 3.29-4.089 3.2-2.214 7.647-2.666 13.22-1.338.772.184 1.251.96 1.066 1.734-.184.773-.96 1.252-1.734 1.067-10.866-2.588-13.018 3.266-13.104 3.517-.194.61-.757.996-1.364.996" mask="url(#conqt021dd)"/>
                <path fill="#3A9300" d="M911.69 744.9c0-10.998-6.808-20.404-16.438-24.235-.153-9.98-8.29-18.026-18.306-18.026-5.666 0-10.731 2.574-14.09 6.617-3.226-5.27-9.035-8.787-15.666-8.787-7.383 0-13.745 4.36-16.66 10.641-.984-.126-1.986-.19-3.004-.19-12.896 0-23.35 10.452-23.35 23.346 0 2.7.46 5.291 1.303 7.702-5.915 3.457-9.89 9.873-9.89 17.218 0 9.835 7.125 18.005 16.494 19.633-.001.1-.003.197-.003.297 0 14.398 11.673 26.072 26.072 26.072 5.285 0 10.203-1.575 14.31-4.278 3.182 2.67 7.284 4.278 11.762 4.278 7.077 0 13.216-4.017 16.263-9.893 1.65.375 3.368.574 5.132.574 12.742 0 23.072-10.33 23.072-23.073 0-4.109-1.075-7.965-2.958-11.307 3.722-4.508 5.958-10.288 5.958-16.59" mask="url(#conqt021dd)"/>
                <path fill="#FFF" d="M812.779 739.707c-.72 0-1.342-.538-1.428-1.271-.02-.173-.486-4.306.99-8.86 1.396-4.296 4.817-9.763 13.203-11.406.782-.151 1.537.356 1.69 1.137.152.78-.356 1.537-1.137 1.69-5.63 1.103-9.335 4.288-11.015 9.468-1.284 3.96-.875 7.596-.871 7.633.093.79-.471 1.505-1.261 1.599-.058.007-.114.01-.171.01M804.823 761.218c-.24 0-.448-.181-.476-.426-.594-5.198 1.667-8.6 3.669-10.537 2.157-2.088 4.429-2.942 4.524-2.977.248-.092.525.035.617.284.092.248-.035.524-.284.616-.037.014-2.21.84-4.215 2.79-2.667 2.598-3.797 5.866-3.357 9.716.03.263-.16.5-.422.53-.02.003-.037.004-.056.004M838.42 718.79c-.145 0-.292-.021-.437-.067-.758-.243-1.177-1.052-.935-1.81.066-.208.71-2.073 2.858-3.561 2.75-1.904 6.555-2.294 11.313-1.162.773.184 1.251.96 1.066 1.735-.183.773-.96 1.252-1.734 1.067-9.067-2.16-10.743 2.746-10.759 2.796-.196.612-.762 1.003-1.372 1.003" mask="url(#conqt021dd)"/>
                <path fill="#603A2D" d="M798.142 792.628L812.11 792.628 812.11 696.385 798.142 696.385z" mask="url(#conqt021dd)"/>
                <path fill="#603A2D" d="M775.916 689.086s-1.877 42.74 27.182 42.18v9.434s-33.184 2.807-33.184-51.614h6.002z" mask="url(#conqt021dd)"/>
                <path fill="#9AE048" d="M722.056 632.323c0-16.233 13.16-29.393 29.394-29.393 2.227 0 4.394.256 6.48.726 2.539-22.222 21.398-39.485 44.3-39.485 19.496 0 36.06 12.514 42.125 29.944.812-.094 1.639-.147 2.476-.147 11.811 0 21.385 9.574 21.385 21.384 0 5.072-1.768 9.727-4.718 13.392 6.795 6.033 11.081 14.828 11.081 24.63 0 18.186-14.744 32.93-32.931 32.93-.491 0-.979-.015-1.465-.037-4.693 16.917-20.193 29.338-38.605 29.338-14.133 0-26.548-7.324-33.682-18.378-2.057.456-4.193.704-6.387.704-16.233 0-29.392-13.16-29.392-29.393 0-4.3.93-8.38 2.589-12.06-7.642-5.309-12.65-14.144-12.65-24.155" mask="url(#conqt021dd)"/>
                <path fill="#FFF" d="M772.93 594.727c-.24 0-.486-.046-.724-.142-.98-.399-1.454-1.52-1.054-2.502 3.174-7.8 10.18-17.182 25.53-17.576 1.062-.026 1.941.81 1.97 1.87.026 1.06-.812 1.942-1.87 1.97-13.277.34-19.33 8.444-22.074 15.183-.302.746-1.02 1.197-1.778 1.197M732.787 631.94c-.082 0-.165-.006-.247-.017-1.053-.134-1.795-1.095-1.66-2.148 1.249-9.766 6.218-14.453 10.168-16.666 4.292-2.403 8.298-2.449 8.466-2.45h.01c1.056 0 1.913.853 1.92 1.911.005 1.057-.847 1.921-1.905 1.93-.55.006-12.881.36-14.851 15.762-.125.97-.95 1.677-1.901 1.677" mask="url(#conqt021dd)"/>
                <path fill="#603A2D" d="M168.169 793.067L182.137 793.067 182.137 696.823 168.169 696.823z" mask="url(#conqt021dd)"/>
                <path fill="#603A2D" d="M145.944 689.524s-1.877 42.741 27.182 42.181v9.433s-33.184 2.807-33.184-51.614h6.002zM209.319 682.14s1.877 40.373-27.182 39.842v8.912s33.184 2.65 33.184-48.755h-6.002z" mask="url(#conqt021dd)"/>
                <path fill="#9AE048" d="M260.063 655.597c0-11.365-7.97-20.866-18.625-23.226 1.059-3.035 1.636-6.295 1.636-9.692 0-16.255-13.18-29.433-29.434-29.433-1.557 0-3.086.123-4.577.355.053-.692.08-1.391.08-2.096 0-14.915-12.091-27.008-27.006-27.008-11.555 0-21.415 7.26-25.27 17.466-4.652-3.213-10.292-5.097-16.373-5.097-15.927 0-28.838 12.91-28.838 28.837 0 1.16.07 2.303.203 3.427-14.303 3.362-24.952 16.202-24.952 31.532 0 14.577 9.628 26.902 22.87 30.97-.983 2.679-1.52 5.573-1.52 8.594 0 13.787 11.178 24.963 24.965 24.963 5.963 0 11.437-2.091 15.73-5.58 6.057 8.127 15.743 13.39 26.658 13.39 12.823 0 23.947-7.264 29.488-17.9 3.48 3.748 8.448 6.094 13.966 6.094 10.523 0 19.054-8.53 19.054-19.053 0-.954-.072-1.893-.206-2.81 12.374-.84 22.15-11.144 22.15-23.733" mask="url(#conqt021dd)"/>
                <path fill="#FFF" d="M121.618 602.619c-.24 0-.486-.046-.724-.143-.98-.399-1.454-1.519-1.053-2.502 3.174-7.8 10.178-17.181 25.53-17.576 1.061-.02 1.94.811 1.968 1.87.028 1.061-.81 1.943-1.87 1.969-13.275.341-19.33 8.445-22.072 15.185-.303.745-1.02 1.197-1.779 1.197M97.92 640.926c-.082 0-.164-.005-.246-.016-1.052-.134-1.796-1.095-1.66-2.148 1.248-9.766 6.218-14.453 10.168-16.666 4.291-2.403 8.298-2.45 8.466-2.45h.01c1.056 0 1.914.853 1.92 1.91.004 1.058-.847 1.92-1.904 1.93-.53.006-12.88.348-14.853 15.763-.124.97-.95 1.677-1.9 1.677" mask="url(#conqt021dd)"/>
                <path fill="#FFE97D" d="M744.72 167.966c0-14.934-12.107-27.04-27.04-27.04-14.936 0-27.04 12.106-27.04 27.04s12.104 27.041 27.04 27.041c14.933 0 27.04-12.107 27.04-27.04" mask="url(#conqt021dd)"/>
                <path fill="#FFF" d="M412.197 140.845c-1.756-6.934-9.546-12.984-16.714-12.984-2.951 0-5.202 1.867-5.807 3.544-5.002-9.913-10.821-17.47-23.142-19.53-12.214-2.043-29.436 5.826-23.215 27.96-3.132 1.345-7.208 2.73-11.51 3.21H431.697c-1.04-.237-14.645-1.686-19.5-2.2M329.377 190.253c-7.142-5.093-18.007-8.594-31.38-.951 3.668-20.966-12.057-30.401-23.96-23.063.017-9.833-9.376-11.88-14.255-8.592-9.927-38.002-61.374-44.871-81.292-29.146-19.917 15.724 7.34 46.649 7.34 46.649s-3.146-3.67-14.678 0c-11.53 3.668-5.765 14.152-5.765 14.152s-12.794-10.762-22.207-4.718c-5.119 3.288-1.752 10.185-.277 13.48-9.656 2.886-20.932 2.896-25.738 4.838h321.303c-17.87-.894-86.488-9.707-109.09-12.65M827.083 221.768s-48.257-2.31-69.596-5.38c-11.735-15.153-31.539-19.29-40.95-13.773-3.96-20.525-20.524-34.928-45.01-34.928-15.697 0-30.967 16.534-30.247 29.527-12.037 2.524-19.198 8.263-17.945 19.962-6.548 2.09-15.629 4.63-20.944 4.592h224.692z" mask="url(#conqt021dd)"/>
                <path fill="#AEC1D1" d="M872.833 884.9H92.863c-20.667 0-37.575-16.91-37.575-37.577v-3.977c0-20.667 16.908-37.576 37.575-37.576h779.97c20.667 0 37.576 16.91 37.576 37.576v3.977c0 20.667-16.909 37.576-37.576 37.576" mask="url(#conqt021dd)"/>
                <path fill="#F0F6FF" d="M918.077 832.632H47.62c-10.364 0-18.767-8.402-18.767-18.768v-1.986c0-10.365 8.402-18.767 18.767-18.767h870.457c10.365 0 18.769 8.402 18.769 18.767v1.986c0 10.366-8.404 18.768-18.769 18.768" mask="url(#conqt021dd)"/>
                <path fill="#92A8B7" d="M853.282 855.941L883.501 855.941 883.501 853.445 853.282 853.445zM768.747 863.99L855.82 863.99 855.82 861.495 768.747 861.495zM189.975 855.941L277.048 855.941 277.048 853.445 189.975 853.445zM646.024 855.941L700.35 855.941 700.35 853.445 646.024 853.445zM483.078 869.347L530.903 869.347 530.903 866.851 483.078 866.851zM683.424 869.347L720.823 869.347 720.823 866.851 683.424 866.851zM424.066 855.941L448.896 855.941 448.896 853.445 424.066 853.445zM266.296 869.347L320.623 869.347 320.623 866.851 266.296 866.851zM94.003 855.941L121.166 855.941 121.166 853.445 94.003 853.445zM153.425 869.347L174.18 869.347 174.18 866.851 153.425 866.851zM526.697 848.333L564.096 848.333 564.096 845.837 526.697 845.837z" mask="url(#conqt021dd)"/>
                <path fill="#DEEBF7" d="M266.622 823.256L692.122 823.256 692.122 552.36 266.622 552.36z" mask="url(#conqt021dd)"/>
                <path fill="#454344" d="M239.267 825.901L248.67 825.901 248.67 551.258 239.267 551.258zM710.075 825.901L719.477 825.901 719.477 551.258 710.075 551.258zM267.943 823.504h422.858V552.581H267.943v270.923zm-2.642 2.643h428.143v-276.21H265.301v276.21z" mask="url(#conqt021dd)"/>
                <path fill="#454344" d="M266.622 681.13L692.121 681.13 692.121 678.487 266.622 678.487z" mask="url(#conqt021dd)"/>
                <path fill="#454344" d="M402.38 824.826L405.022 824.826 405.022 552.374 402.38 552.374zM553.722 824.826L556.364 824.826 556.364 552.374 553.722 552.374z" mask="url(#conqt021dd)"/>
                <g mask="url(#conqt021dd)">
                    <g>
                        <path fill="#FFF" d="M0.44 58.994L100.747 58.994 100.747 1.675 0.44 1.675z" transform="translate(428.779 581.94)"/>
                        <path fill="#32221C" d="M.88 58.554h99.427V2.116H.88v56.438zm99.867.881H.44c-.243 0-.44-.196-.44-.441V1.675c0-.243.197-.44.44-.44h100.307c.244 0 .44.197.44.44v57.319c0 .245-.196.441-.44.441z" transform="translate(428.779 581.94)"/>
                        <path fill="#E84921" d="M0.44 6.722L100.747 6.722 100.747 0.442 0.44 0.442z" transform="translate(428.779 581.94)"/>
                        <path fill="#32221C" d="M.88 6.281h99.427V.882H.88v5.399zm99.867.881H.44c-.243 0-.44-.197-.44-.44V.442C0 .198.197 0 .44 0h100.307c.244 0 .44.198.44.442v6.28c0 .243-.196.44-.44.44z" transform="translate(428.779 581.94)"/>
                        <path fill="#E84921" d="M15.62 44.097h68.638l4.977-9.186c.199-.535.185-.986-.052-1.313-.48-.656-1.8-.743-2.264-.724H15.62v11.223zm68.899.44H15.182V23.359c.33-3.965 3.98-3.854 4.01-3.848H88.17v.44H19.184c-.143-.006-3.27-.094-3.564 3.426v9.057h71.288c.072-.004 1.916-.076 2.63.905.33.455.363 1.045.097 1.755l-5.116 9.443z" transform="translate(428.779 581.94)"/>
                        <path fill="#E84921" d="M47.57 44.419L47.178 44.218 59.778 19.63 60.171 19.831zM29.672 44.318L30.111 44.318 30.111 19.731 29.672 19.731z" transform="translate(428.779 581.94)"/>
                        <path fill="#FFF" d="M88.405 19.733c0 .655-.533 1.188-1.188 1.188-.66 0-1.191-.533-1.191-1.188 0-.658.531-1.19 1.191-1.19.655 0 1.188.532 1.188 1.19" transform="translate(428.779 581.94)"/>
                        <path fill="#32221C" d="M87.216 18.763c-.534 0-.97.435-.97.97 0 .534.436.967.97.967.535 0 .969-.433.969-.967 0-.535-.434-.97-.969-.97m0 2.378c-.776 0-1.41-.632-1.41-1.408 0-.778.633-1.41 1.41-1.41.778 0 1.409.632 1.409 1.41 0 .776-.632 1.408-1.409 1.408" transform="translate(428.779 581.94)"/>
                        <path fill="#FFF" d="M61.165 19.733c0 .655-.535 1.188-1.188 1.188-.66 0-1.191-.533-1.191-1.188 0-.658.53-1.19 1.19-1.19.654 0 1.189.532 1.189 1.19" transform="translate(428.779 581.94)"/>
                        <path fill="#32221C" d="M59.976 18.763c-.535 0-.97.435-.97.97 0 .534.435.967.97.967.535 0 .968-.433.968-.967 0-.535-.433-.97-.968-.97m0 2.378c-.777 0-1.41-.632-1.41-1.408 0-.778.633-1.41 1.41-1.41.777 0 1.408.632 1.408 1.41 0 .776-.63 1.408-1.408 1.408" transform="translate(428.779 581.94)"/>
                        <path fill="#FFF" d="M31.08 19.733c0 .655-.533 1.188-1.188 1.188-.66 0-1.191-.533-1.191-1.188 0-.658.532-1.19 1.19-1.19.656 0 1.189.532 1.189 1.19" transform="translate(428.779 581.94)"/>
                        <path fill="#32221C" d="M29.891 18.763c-.535 0-.97.435-.97.97 0 .534.435.967.97.967.533 0 .97-.433.97-.967 0-.535-.437-.97-.97-.97m0 2.378c-.777 0-1.41-.632-1.41-1.408 0-.778.633-1.41 1.41-1.41.777 0 1.408.632 1.408 1.41 0 .776-.63 1.408-1.408 1.408" transform="translate(428.779 581.94)"/>
                        <path fill="#FFF" d="M16.587 32.657c0 .656-.532 1.187-1.187 1.187-.658 0-1.191-.532-1.191-1.188 0-.657.534-1.191 1.191-1.191.655 0 1.187.534 1.187 1.192" transform="translate(428.779 581.94)"/>
                        <path fill="#32221C" d="M15.401 31.685c-.536 0-.972.436-.972.972 0 .533.436.967.972.967.533 0 .967-.434.967-.967 0-.536-.434-.972-.967-.972m0 2.38c-.779 0-1.412-.632-1.412-1.408 0-.78.633-1.412 1.412-1.412.775 0 1.407.632 1.407 1.412 0 .776-.632 1.408-1.407 1.408" transform="translate(428.779 581.94)"/>
                        <path fill="#FFF" d="M31.082 32.657c0 .656-.533 1.187-1.188 1.187-.66 0-1.191-.532-1.191-1.188 0-.657.53-1.191 1.19-1.191.656 0 1.189.534 1.189 1.192" transform="translate(428.779 581.94)"/>
                        <path fill="#32221C" d="M29.893 31.685c-.535 0-.97.436-.97.972 0 .533.435.967.97.967.533 0 .968-.434.968-.967 0-.536-.435-.972-.968-.972m0 2.38c-.777 0-1.41-.632-1.41-1.408 0-.78.633-1.412 1.41-1.412.777 0 1.408.632 1.408 1.412 0 .776-.63 1.408-1.408 1.408" transform="translate(428.779 581.94)"/>
                        <path fill="#FFF" d="M53.962 32.657c0 .656-.533 1.187-1.188 1.187-.66 0-1.191-.532-1.191-1.188 0-.657.53-1.191 1.19-1.191.656 0 1.189.534 1.189 1.192" transform="translate(428.779 581.94)"/>
                        <path fill="#32221C" d="M52.773 31.685c-.535 0-.97.436-.97.972 0 .533.435.967.97.967.535 0 .97-.434.97-.967 0-.536-.435-.972-.97-.972m0 2.38c-.777 0-1.41-.632-1.41-1.408 0-.78.633-1.412 1.41-1.412.777 0 1.408.632 1.408 1.412 0 .776-.63 1.408-1.408 1.408" transform="translate(428.779 581.94)"/>
                        <path fill="#FFF" d="M16.834 44.223c0 .655-.535 1.187-1.188 1.187-.66 0-1.191-.532-1.191-1.187 0-.66.532-1.191 1.19-1.191.654 0 1.189.532 1.189 1.19" transform="translate(428.779 581.94)"/>
                        <path fill="#32221C" d="M15.645 43.251c-.535 0-.97.437-.97.972 0 .533.435.966.97.966.535 0 .97-.433.97-.966 0-.535-.435-.972-.97-.972m0 2.38c-.777 0-1.41-.632-1.41-1.408 0-.779.633-1.412 1.41-1.412.777 0 1.41.633 1.41 1.412 0 .776-.633 1.407-1.41 1.407" transform="translate(428.779 581.94)"/>
                        <path fill="#FFF" d="M30.885 44.223c0 .655-.535 1.187-1.188 1.187-.659 0-1.19-.532-1.19-1.187 0-.66.531-1.191 1.19-1.191.653 0 1.188.532 1.188 1.19" transform="translate(428.779 581.94)"/>
                        <path fill="#32221C" d="M29.697 43.251c-.535 0-.97.437-.97.972 0 .533.435.966.97.966.533 0 .969-.433.969-.966 0-.535-.436-.972-.97-.972m0 2.38c-.776 0-1.41-.632-1.41-1.408 0-.779.634-1.412 1.41-1.412.778 0 1.409.633 1.409 1.412 0 .776-.631 1.407-1.408 1.407" transform="translate(428.779 581.94)"/>
                        <path fill="#FFF" d="M48.562 44.223c0 .655-.534 1.187-1.187 1.187-.66 0-1.19-.532-1.19-1.187 0-.66.53-1.191 1.19-1.191.653 0 1.187.532 1.187 1.19" transform="translate(428.779 581.94)"/>
                        <path fill="#32221C" d="M47.375 43.251c-.535 0-.971.437-.971.972 0 .533.436.966.97.966s.969-.433.969-.966c0-.535-.435-.972-.968-.972m0 2.38c-.777 0-1.411-.632-1.411-1.408 0-.779.634-1.412 1.41-1.412.778 0 1.409.633 1.409 1.412 0 .776-.631 1.407-1.408 1.407" transform="translate(428.779 581.94)"/>
                        <path fill="#FFF" d="M85.235 44.223c0 .655-.533 1.187-1.188 1.187-.66 0-1.191-.532-1.191-1.187 0-.66.531-1.191 1.191-1.191.655 0 1.188.532 1.188 1.19" transform="translate(428.779 581.94)"/>
                        <path fill="#32221C" d="M84.047 43.251c-.535 0-.971.437-.971.972 0 .533.436.966.97.966s.969-.433.969-.966c0-.535-.435-.972-.968-.972m0 2.38c-.777 0-1.41-.632-1.41-1.408 0-.779.633-1.412 1.41-1.412.777 0 1.408.633 1.408 1.412 0 .776-.631 1.407-1.408 1.407" transform="translate(428.779 581.94)"/>
                        <path fill="#FFF" d="M89.983 33.146c0 .656-.533 1.188-1.188 1.188-.658 0-1.189-.532-1.189-1.188 0-.658.531-1.191 1.19-1.191.654 0 1.187.533 1.187 1.19" transform="translate(428.779 581.94)"/>
                        <path fill="#32221C" d="M88.795 32.174c-.533 0-.968.437-.968.972 0 .534.435.968.968.968.535 0 .969-.434.969-.968 0-.535-.434-.972-.97-.972m0 2.381c-.776 0-1.407-.632-1.407-1.409 0-.779.63-1.412 1.408-1.412.777 0 1.409.633 1.409 1.412 0 .777-.632 1.41-1.41 1.41" transform="translate(428.779 581.94)"/>
                        <path fill="#FFF" d="M42.015 3.91L60.756 3.91 60.756 3.028 42.015 3.028z" transform="translate(428.779 581.94)"/>
                    </g>
                </g>
                <path fill="#454344" d="M231.325 551.259L727.418 551.259 727.418 533.526 231.325 533.526z" mask="url(#conqt021dd)"/>
                <path fill="#FFF" d="M241.053 544.91c.123 0 .24-.026.35-.082.108-.055.207-.129.292-.225.08-.089.144-.196.192-.317.048-.122.071-.249.071-.382 0-.119-.019-.239-.06-.36-.04-.122-.094-.231-.16-.325-.072-.095-.157-.173-.253-.232-.099-.06-.204-.09-.319-.09h-1.975v2.013h1.862zm-1.862-4.447v1.82h1.698c.114 0 .222-.025.323-.078.103-.053.193-.121.268-.207.077-.086.136-.184.182-.293.046-.109.07-.223.07-.342 0-.125-.023-.241-.066-.35-.043-.109-.1-.205-.172-.286-.075-.081-.164-.145-.263-.193-.1-.047-.206-.071-.32-.071h-1.72zm2.618 2.063c.142.057.268.137.378.239.11.103.202.215.278.339.071.124.125.255.16.393.036.139.054.273.054.407 0 .214-.043.419-.128.614-.086.195-.202.366-.35.514-.147.148-.32.264-.517.35-.198.085-.407.129-.63.129h-2.584v-5.655h2.44c.21 0 .407.039.591.118.187.079.351.187.493.325.138.138.247.299.328.482.081.183.122.377.122.582 0 .08-.016.188-.046.321-.033.133-.076.262-.133.385-.057.124-.124.231-.202.321-.08.091-.164.136-.254.136zM247.438 539.85v3.89c0 .275-.058.526-.171.753-.114.225-.265.42-.45.582-.19.161-.41.287-.655.378-.248.09-.506.135-.772.135-.257 0-.506-.043-.75-.128-.241-.086-.458-.21-.647-.372-.191-.16-.346-.355-.464-.58-.12-.227-.182-.483-.186-.768v-3.89h.72v3.89c0 .171.035.33.104.478.069.148.163.276.282.385.119.11.259.195.42.257.162.062.336.093.52.093.188 0 .36-.03.522-.093.162-.062.302-.148.422-.257.114-.109.205-.237.274-.385.068-.148.103-.307.103-.478v-3.89h.728zM250.22 539.813c.342 0 .667.075.974.225.306.15.55.37.731.661l-.499.392c-.072-.095-.156-.183-.254-.264-.098-.08-.2-.15-.309-.207-.115-.057-.232-.102-.35-.136-.119-.033-.236-.05-.35-.05-.11 0-.219.018-.329.054-.108.035-.209.087-.299.153-.09.071-.163.157-.217.257-.055.101-.082.212-.082.336-.01.285.067.506.231.66.165.155.4.263.703.325.262.043.511.113.75.21.237.098.446.223.627.375.176.153.315.332.417.54.103.206.15.441.14.702-.01.224-.072.43-.182.618-.112.188-.26.351-.439.49-.18.132-.388.238-.62.317-.234.078-.479.117-.736.117-.386 0-.75-.08-1.094-.243-.345-.16-.623-.407-.833-.735l.522-.413c.152.247.356.438.613.574.257.136.521.203.792.203.143 0 .286-.02.432-.064.145-.042.277-.105.395-.185.115-.08.208-.18.283-.297.073-.116.115-.249.124-.396.005-.16-.028-.309-.096-.443-.069-.132-.16-.25-.274-.349-.115-.096-.243-.174-.385-.236-.144-.062-.286-.107-.429-.135-.252-.053-.48-.116-.688-.19-.207-.073-.382-.175-.525-.303-.147-.125-.26-.279-.339-.464-.078-.186-.117-.416-.117-.693 0-.209.046-.4.14-.574.092-.174.217-.322.373-.446.157-.124.34-.219.546-.285.207-.068.425-.1.653-.1M257.647 539.813c.342 0 .667.075.973.225.307.15.55.37.732.661l-.5.392c-.071-.095-.155-.183-.253-.264-.098-.08-.201-.15-.31-.207-.115-.057-.231-.102-.35-.136-.118-.033-.235-.05-.35-.05-.11 0-.218.018-.328.054-.11.035-.21.087-.3.153-.09.071-.162.157-.216.257-.056.101-.083.212-.083.336-.01.285.068.506.232.66.164.155.399.263.703.325.26.043.51.113.749.21.238.098.447.223.627.375.177.153.316.332.418.54.102.206.149.441.139.702-.01.224-.071.43-.182.618s-.26.351-.44.49c-.18.132-.386.238-.62.317-.232.078-.477.117-.734.117-.386 0-.75-.08-1.095-.243-.344-.16-.622-.407-.832-.735l.522-.413c.152.247.356.438.613.574.257.136.52.203.792.203.143 0 .286-.02.432-.064.145-.042.276-.105.395-.185.115-.08.208-.18.283-.297.073-.116.115-.249.124-.396.005-.16-.028-.309-.096-.443-.07-.132-.16-.25-.274-.349-.115-.096-.244-.174-.386-.236-.143-.062-.285-.107-.428-.135-.252-.053-.482-.116-.688-.19-.207-.073-.382-.175-.525-.303-.147-.125-.261-.279-.34-.464-.077-.186-.117-.416-.117-.693 0-.209.047-.4.14-.574.093-.174.218-.322.374-.446.157-.124.339-.219.546-.285.207-.068.424-.1.653-.1M264.267 539.849L264.267 540.455 262.54 540.455 262.54 545.517 261.813 545.517 261.813 540.455 260.08 540.455 260.08 539.849zM267.385 540.42c-.272 0-.525.059-.76.176-.236.116-.442.277-.618.48-.176.206-.314.448-.417.726-.102.278-.153.577-.153.896 0 .319.051.618.153.896.103.278.241.52.417.724.176.205.382.367.617.486.236.119.49.179.761.179.266 0 .517-.06.752-.18.235-.118.441-.28.617-.485.176-.204.316-.446.417-.724.103-.278.153-.577.153-.896 0-.32-.05-.618-.153-.896-.1-.278-.24-.52-.417-.725-.176-.204-.382-.365-.617-.481-.235-.117-.486-.175-.752-.175m0 5.168c-.38 0-.733-.078-1.057-.235-.323-.158-.6-.37-.835-.636-.237-.262-.42-.568-.552-.917-.13-.35-.197-.718-.197-1.103 0-.377.063-.738.19-1.086.125-.346.305-.654.538-.92.233-.266.512-.48.835-.64.323-.158.682-.238 1.078-.238.37 0 .718.077 1.041.228.323.152.604.359.842.62.233.268.417.576.553.926.135.35.203.72.203 1.11 0 .37-.065.73-.193 1.077-.128.348-.308.655-.542.92-.232.273-.51.49-.835.65-.323.163-.68.244-1.069.244M273.048 542.883c.13 0 .251-.025.368-.078.116-.053.22-.131.31-.235.091-.105.162-.231.214-.378.052-.15.08-.32.08-.515 0-.194-.028-.37-.08-.521-.052-.152-.12-.281-.206-.385-.09-.101-.195-.178-.31-.233-.118-.054-.237-.082-.36-.082h-1.57v2.427h1.554zm1.698-1.206c0 .267-.045.512-.136.735-.089.224-.208.414-.356.572-.147.16-.318.287-.514.374-.195.088-.394.132-.599.132h-1.648v2.028h-.72v-5.668h2.275c.224 0 .437.043.643.128.205.086.385.207.542.364.157.162.282.355.375.582.092.226.138.478.138.753z" mask="url(#conqt021dd)"/>
                <path fill="#FFF" d="M426.3 552.365L269.337 552.365 269.337 748.757zM600.901 552.316L687.408 552.316 516.802 816.967 420.087 816.967z" mask="url(#conqt021dd)" opacity=".501"/>
                <path fill="#454344" d="M802.742 573.776c0 12.436-10.074 22.517-22.503 22.517-12.43 0-22.503-10.08-22.503-22.517 0-12.436 10.074-22.518 22.503-22.518s22.503 10.082 22.503 22.518" mask="url(#conqt021dd)"/>
                <path fill="#0069B4" d="M799.31 573.776c0 10.538-8.54 19.082-19.071 19.082-10.533 0-19.071-8.544-19.071-19.082 0-10.539 8.538-19.083 19.07-19.083 10.533 0 19.072 8.544 19.072 19.083" mask="url(#conqt021dd)"/>
                <path fill="#FFF" d="M773.831 585.915c0 .424-.344.768-.767.768h-1.739c-.424 0-.767-.344-.767-.768v-3.776c0-.424.343-.768.767-.768h1.74c.422 0 .766.344.766.768v3.776zM789.837 585.915c0 .424-.343.768-.767.768h-1.739c-.423 0-.766-.344-.766-.768v-3.776c0-.424.343-.768.766-.768h1.74c.423 0 .766.344.766.768v3.776z" mask="url(#conqt021dd)"/>
                <path fill="#FFF" d="M790.86 563.866c0-1.655-1.341-2.996-2.994-2.996h-15.254c-1.653 0-2.994 1.341-2.994 2.996v18.021c0 .666.543 1.204 1.214 1.204h18.808c.67 0 1.214-.538 1.214-1.204v-.625h.006v-17.396z" mask="url(#conqt021dd)"/>
                <path fill="#0069B4" d="M788.657 570.864v-5.315c0-1.312-1.062-2.374-2.373-2.374h-12.09c-1.31 0-2.373 1.062-2.373 2.374v5.315h16.836zM773.515 580.025c0 .731-.593 1.324-1.324 1.324-.732 0-1.324-.593-1.324-1.324 0-.732.592-1.325 1.324-1.325.731 0 1.324.593 1.324 1.325M789.349 580.025c0 .731-.593 1.324-1.324 1.324-.732 0-1.324-.593-1.324-1.324 0-.732.592-1.325 1.324-1.325.731 0 1.324.593 1.324 1.325M775.07 581.466L785.357 581.466 785.357 577.894 775.07 577.894z" mask="url(#conqt021dd)"/>
                <path fill="#454344" d="M807.99 714.924c0 1.767-1.43 3.198-3.196 3.198h-49.11c-1.766 0-3.198-1.431-3.198-3.198v-115.73c0-1.765 1.432-3.198 3.198-3.198h49.11c1.766 0 3.197 1.433 3.197 3.199v115.729z" mask="url(#conqt021dd)"/>
                <path fill="#FFF" d="M755.974 623.62L804.504 623.62 804.504 605.592 755.974 605.592z" mask="url(#conqt021dd)"/>
                <path fill="#E84921" d="M755.974 623.62L764.111 623.62 764.111 605.592 755.974 605.592z" mask="url(#conqt021dd)"/>
                <path fill="#FFF" d="M755.974 644.846L804.504 644.846 804.504 626.819 755.974 626.819z" mask="url(#conqt021dd)"/>
                <path fill="#0069B4" d="M755.974 644.846L764.111 644.846 764.111 626.819 755.974 626.819z" mask="url(#conqt021dd)"/>
                <path fill="#FFF" d="M755.974 666.073L804.504 666.073 804.504 648.046 755.974 648.046z" mask="url(#conqt021dd)"/>
                <path fill="#0069B4" d="M755.974 666.073L764.111 666.073 764.111 648.046 755.974 648.046z" mask="url(#conqt021dd)"/>
                <path fill="#FFF" d="M755.974 687.301L804.504 687.301 804.504 669.273 755.974 669.273z" mask="url(#conqt021dd)"/>
                <path fill="#00A14C" d="M755.974 687.301L764.111 687.301 764.111 669.273 755.974 669.273z" mask="url(#conqt021dd)"/>
                <path fill="#FFF" d="M755.974 708.527L804.504 708.527 804.504 690.499 755.974 690.499z" mask="url(#conqt021dd)"/>
                <path fill="#00A14C" d="M755.974 708.527L764.111 708.527 764.111 690.499 755.974 690.499z" mask="url(#conqt021dd)"/>
                <path fill="#454344" d="M776.551 826.342L783.926 826.342 783.926 714.189 776.551 714.189z" mask="url(#conqt021dd)"/>
                <path fill="#D38A71" d="M339.362 761.501L619.382 761.501 619.382 748.431 339.362 748.431z" mask="url(#conqt021dd)"/>
                <path fill="#32221C" d="M339.803 761.06h279.139v-12.189H339.803v12.189zm-.88.881h280.9V747.99h-280.9v13.951z" mask="url(#conqt021dd)"/>
                <path fill="#BFBDBA" d="M339.363 825.901L348.847 825.901 348.847 761.501 339.363 761.501z" mask="url(#conqt021dd)"/>
                <path fill="#32221C" d="M339.803 825.461h8.604v-63.52h-8.604v63.52zm9.044.881h-9.484c-.245 0-.441-.197-.441-.441v-64.4c0-.242.196-.441.441-.441h9.484c.243 0 .44.199.44.441v64.4c0 .244-.197.441-.44.441z" mask="url(#conqt021dd)"/>
                <path fill="#BFBDBA" d="M609.895 825.901L619.382 825.901 619.382 761.501 609.895 761.501z" mask="url(#conqt021dd)"/>
                <path fill="#32221C" d="M610.335 825.461h8.606v-63.52h-8.606v63.52zm9.047.881h-9.487c-.244 0-.441-.197-.441-.441v-64.4c0-.242.197-.441.441-.441h9.487c.242 0 .441.199.441.441v64.4c0 .244-.199.441-.441.441z" mask="url(#conqt021dd)"/>
                <path fill="#BFBDBA" d="M197.493 826.474L816.487 826.474 816.487 822.48 197.493 822.48z" mask="url(#conqt021dd)"/>
                <path fill="#020000" d="M246.921 837.664L750.912 837.664 750.912 775.011 246.921 775.011zM831.925 752.765c0 1.652-5.198 2.986-11.599 2.986H152.701c-6.412 0-11.598-1.334-11.598-2.986v-69.341c0-1.649 5.186-2.987 11.598-2.987h667.625c6.401 0 11.6 1.338 11.6 2.986v69.342z" mask="url(#conqt021dd)"/>
                <path fill="#E84921" d="M139.623 780.513L167.334 780.513 167.334 743.277 139.623 743.277zM167.334 780.513L218.012 780.513 218.012 743.277 167.334 743.277zM218.012 780.513L272.385 780.513 272.385 743.277 218.012 743.277zM272.385 780.513L380.146 780.513 380.146 743.277 272.385 743.277zM272.385 780.513v60.205h11.084v-14.54c0-19.822 16.197-35.891 36.177-35.891s36.177 16.07 36.177 35.891v14.54h24.323v-60.205h-107.76zM218.012 840.719L195.598 840.719 139.623 832.166 139.623 780.513 218.012 780.513zM218.012 840.719L272.385 840.719 272.385 780.513 218.012 780.513z" mask="url(#conqt021dd)"/>
                <path fill="#999" d="M218.012 840.719h65.457v-14.54c0-19.822 16.197-35.892 36.177-35.892 2.371 0 4.687.229 6.931.66l48.05-47.67H139.623v88.889l55.975 8.553h22.414z" mask="url(#conqt021dd)"/>
                <path fill="#FFF" d="M380.146 840.719L483.35 840.719 483.35 780.513 380.146 780.513zM483.35 840.719L527.44 840.719 527.44 780.513 483.35 780.513zM380.146 780.513L527.44 780.513 527.44 743.277 380.146 743.277z" mask="url(#conqt021dd)"/>
                <path fill="#0050A2" d="M477.192 763.863l-.063-.18-8.104-11.48v-8.927h-94.397l-48.05 47.671c16.663 3.21 29.245 17.761 29.245 35.231v14.54H415.922l61.27-60.787v-16.068z" mask="url(#conqt021dd)"/>
                <path fill="#FFF" d="M420.158 771.522l-1.004.99h-11.278l-1.003-.99v-2.18l1.003-.99h11.278l1.004.99v2.18zm-13.937-6.868l-3.238 3.198v5.16l3.238 3.197h14.586l3.24-3.198v-5.159l-3.24-3.198H406.22zM395.69 771.522l-1.002.99H383.41l-1.004-.99v-2.18l1.004-.99h11.278l1.003.99v2.18zm-13.935-6.868l-3.24 3.198v5.16l3.24 3.197h14.586l3.239-3.198v-5.159l-3.24-3.198h-14.585zM423.558 755.312L423.559 755.311 423.559 747.271 403.145 747.271 403.145 750.969 419.67 750.969 419.67 755.333 418.831 758.686 413.257 758.686 413.257 753.862 409.369 753.862 409.368 758.686 402.983 758.686 402.983 762.383 424.046 762.383 424.046 758.686 422.715 758.686zM399.091 755.312L399.092 755.311 399.092 747.271 378.678 747.271 378.678 750.969 395.203 750.969 395.203 755.333 394.365 758.686 388.79 758.686 388.79 753.862 384.902 753.862 384.901 758.686 378.516 758.686 378.516 762.383 399.579 762.383 399.579 758.686 398.248 758.686zM452.077 775.752L473.303 775.752 473.303 771.974 452.077 771.974zM464.675 753.562L464.675 747.134 460.705 747.134 460.705 753.562 452.077 765.786 452.077 766.431 456.362 766.431 462.691 757.463 469.02 766.431 473.303 766.431 473.303 765.786zM437.698 759.902v12.151h-6.075v-13.045h6.075v.894zm7.453-1.216h-3.604v-11.234h-3.85v7.86h-6.074v-7.86h-3.85v28.3h13.774v-13.369h3.604v13.69H449v-28.939h-3.85v11.552z" mask="url(#conqt021dd)"/>
                <path fill="#E84921" d="M842.631 783.086c-.284-2.56-.59-5.244-.898-7.916-1.155-9.977-2.36-19.74-2.713-21.845-.734-4.37-8.852-47.075-11.009-53.642-3.222-9.81 1.577-13.7 4.747-15.151-1.466-3.438-3.387-6.801-5.97-9.365-5.872-5.826-32.295-6.728-32.295-6.728H139.623v74.837h4.087l5.417-54.941c.26-2.623 2.482-4.624 5.138-4.624h644.142s18.35-.05 21.775 12.088c.642 2.278 1.46 5.816 2.36 10.058 1.716 8.083 3.74 18.724 5.47 28.102 2.195 11.916 3.913 21.793 3.913 21.793s2.202 17.962 2.202 22.574v2.097c1.975.403 5.071 1.196 8.504 2.663M121.57 807.966L125.525 807.966 125.525 787.125 121.57 787.125zM127.223 717.09c-.755-.084-2.121-.236-3.596-.393-1.256 15.786-1.997 29.346-1.997 29.346h1.652v7.039h2.243s.636-19.865 1.698-35.991M125.525 764.915L125.525 753.082 123.282 753.082 121.57 753.082 121.57 787.125 125.525 787.125z" mask="url(#conqt021dd)"/>
                <path fill="#E84921" d="M135.8 668.438c-5.953 0-7.014 5.271-7.014 5.271-.47 1.983-.927 4.447-1.367 7.255.277.066.56.135.843.21 3.462.91 2.114 6.917.28 20.935-.49 3.74-.932 9.113-1.319 14.981.384.043.384.043 0 0-1.063 16.126-1.698 35.992-1.698 35.992v11.833h2.935s5.628.38 5.628 5.584v31.882h5.535V668.438H135.8zM128.46 807.966h-8.481v13.165c0 7.366 3.67 8.41 3.67 8.41l15.974 2.625v-29.784h-5.535c0 5.203-5.628 5.584-5.628 5.584" mask="url(#conqt021dd)"/>
                <path fill="#FFF" d="M652.996 780.512L739.081 780.512 739.081 743.277 652.996 743.277zM842.631 783.086c4.272 1.826 9.063 4.699 12.857 9.17-.496-5.29-1.137-11.023-1.967-17.086h-11.788c.308 2.672.614 5.357.898 7.916" mask="url(#conqt021dd)"/>
                <path fill="#FFF" d="M842.631 783.086c.55 4.937 1.02 9.399 1.288 12.359 4.322 2.022 9.008 5.125 12.577 9.85-.239-3.934-.565-8.31-1.008-13.038-3.794-4.472-8.585-7.345-12.857-9.171" mask="url(#conqt021dd)"/>
                <path fill="#FFF" d="M834.127 780.423v11.782c2.218.454 5.854 1.399 9.792 3.24-.269-2.96-.739-7.421-1.288-12.36-3.433-1.466-6.529-2.26-8.504-2.662" mask="url(#conqt021dd)"/>
                <path fill="#FFF" d="M844.158 819.933V798.84c0-.528-.087-1.72-.238-3.394-3.938-1.842-7.574-2.786-9.792-3.24V836c6.589-.583 11.745-1.075 13.945-1.362 9.297-1.214 9.052-7.72 9.052-7.72s.03-1.384.012-3.93h-9.9c-1.7 0-3.08-1.368-3.08-3.055M831.925 755.752s-1.718-9.877-3.914-21.793v98.678h-51.306v8.082s36.168-2.836 57.422-4.718V778.326c0-4.612-2.202-22.574-2.202-22.574M586.554 840.719L652.996 840.719 652.996 780.513 586.554 780.513z" mask="url(#conqt021dd)"/>
                <path fill="#FFF" d="M739.081 840.719L776.705 840.719 776.705 780.513 739.081 780.513zM527.44 780.512L586.554 780.512 586.554 743.277 527.44 743.277zM586.554 780.512L652.996 780.512 652.996 743.277 586.554 743.277zM739.081 780.512L776.705 780.512 776.705 743.277 739.081 743.277zM527.44 840.719L586.554 840.719 586.554 780.513 527.44 780.513z" mask="url(#conqt021dd)"/>
                <path fill="#020000" d="M776.706 832.636L802.358 832.636 802.358 705.857 776.706 705.857zM828.011 699.682c2.157 6.567 10.275 49.273 11.01 53.643.352 2.104 1.557 11.868 2.712 21.844h11.788l-.067-.485c-4.158-30.098-15.413-72.575-16.88-78.158-.822-3.125-1.952-7.62-3.816-11.994-3.17 1.451-7.969 5.341-4.747 15.15M802.358 705.857v126.78h25.653v-98.678c-1.728-9.378-3.753-20.02-5.47-28.102h-20.183zM822.541 705.857c-.9-4.242-1.717-7.78-2.359-10.059-3.425-12.136-21.775-12.087-21.775-12.087h-21.702v22.146h45.836zM438.309 820.253h-13.122c-.525 0-.951-.427-.951-.952v-7.291c0-.526.426-.951.952-.951h13.12c.526 0 .952.425.952.95v7.292c0 .525-.426.952-.951.952M541.513 820.253h-13.122c-.525 0-.95-.427-.95-.952v-7.291c0-.526.425-.951.95-.951h13.121c.526 0 .952.425.952.95v7.292c0 .525-.426.952-.95.952M128.541 702.11c1.835-14.019 3.183-20.025-.279-20.936-.284-.075-.566-.144-.843-.21-1.508 9.645-2.808 23.371-3.792 35.733 1.475.156 2.841.308 3.596.393.386-5.868.83-11.24 1.318-14.98" mask="url(#conqt021dd)"/>
                <path fill="#F7B52C" d="M843.92 795.445c.15 1.673.237 2.866.237 3.395v21.093c0 1.687 1.38 3.055 3.08 3.055h9.9c-.029-3.686-.16-9.809-.64-17.692-3.57-4.726-8.256-7.83-12.578-9.85" mask="url(#conqt021dd)"/>
                <path fill="#231815" d="M352.213 829.706c0 17.698-14.46 32.044-32.297 32.044-17.838 0-32.299-14.346-32.299-32.044 0-17.696 14.461-32.041 32.3-32.041 17.836 0 32.296 14.345 32.296 32.04" mask="url(#conqt021dd)"/>
                <path fill="#9E9E9F" d="M299.295 830.546c-.47-11.302 8.39-20.838 19.782-21.295 11.384-.456 20.994 8.326 21.46 19.628.461 11.3-8.398 20.825-19.784 21.283-11.388.465-20.994-8.317-21.458-19.616" mask="url(#conqt021dd)"/>
                <path fill="#595757" d="M302.118 830.437c-.397-9.758 7.24-17.986 17.072-18.388 9.825-.388 18.123 7.192 18.522 16.951.399 9.744-7.25 17.964-17.075 18.362-9.832.391-18.118-7.18-18.519-16.925" mask="url(#conqt021dd)"/>
                <path fill="#888" d="M319.256 813.547c8.991-.36 16.575 6.582 16.942 15.517.367 8.918-6.626 16.438-15.615 16.806-8.997.358-16.593-6.574-16.955-15.497-.368-8.925 6.633-16.461 15.628-16.826" mask="url(#conqt021dd)"/>
                <path fill="#231815" d="M319.56 820.747c4.986-.2 9.183 3.653 9.389 8.575.2 4.95-3.66 9.146-8.658 9.345-4.98.203-9.205-3.67-9.411-8.616-.197-4.92 3.69-9.093 8.68-9.304M322.113 811.82c0 .8-.817 1.27-2.348 1.27-1.526 0-2.343-.47-2.343-1.27 0-.802.817-1.27 2.343-1.27 1.53 0 2.348.468 2.348 1.27M317.72 847.596c0-.798.816-1.272 2.344-1.272 1.526 0 2.345.474 2.345 1.272 0 .8-.819 1.271-2.345 1.271-1.528 0-2.344-.471-2.344-1.271M301.885 827.53c.806 0 1.28.81 1.28 2.325 0 1.517-.474 2.326-1.28 2.326-.807 0-1.28-.809-1.28-2.326 0-1.515.473-2.326 1.28-2.326M337.946 831.888c-.806 0-1.28-.81-1.28-2.327s.474-2.327 1.28-2.327 1.28.81 1.28 2.327-.474 2.327-1.28 2.327M313.012 813.042c.394.696-.089 1.5-1.42 2.242-1.335.744-2.278.73-2.673.035-.392-.702.087-1.51 1.42-2.247 1.334-.743 2.277-.731 2.673-.03M326.819 846.376c-.395-.696.085-1.503 1.419-2.244 1.334-.742 2.277-.73 2.674-.034.393.699-.087 1.507-1.421 2.244-1.333.745-2.28.732-2.672.034M303.115 836.557c.704-.39 1.516.086 2.264 1.408.749 1.321.733 2.263.033 2.653-.704.388-1.52-.087-2.265-1.412-.748-1.32-.733-2.257-.032-2.649M336.714 822.86c-.7.39-1.514-.089-2.262-1.41-.748-1.323-.733-2.262-.03-2.65.701-.392 1.517.088 2.263 1.41.747 1.32.734 2.256.03 2.65M305.673 818.52c.69.418.668 1.355-.128 2.647-.795 1.295-1.632 1.742-2.316 1.324-.688-.415-.668-1.354.131-2.648.796-1.293 1.625-1.739 2.313-1.323M334.155 840.895c-.688-.417-.666-1.354.13-2.649.799-1.294 1.629-1.742 2.317-1.322.687.413.666 1.352-.134 2.646-.795 1.293-1.625 1.74-2.313 1.325M308.639 843.835c.422-.684 1.368-.662 2.671.13 1.305.789 1.754 1.616 1.334 2.298-.422.682-1.364.664-2.671-.131-1.301-.79-1.755-1.614-1.334-2.297M331.19 815.58c-.417.683-1.365.662-2.668-.13-1.305-.788-1.753-1.617-1.332-2.297.417-.681 1.363-.662 2.667.13 1.304.79 1.754 1.61 1.334 2.298" mask="url(#conqt021dd)"/>
                <path stroke="#231815" stroke-width=".25" d="M299.295 830.546c-.47-11.302 8.39-20.838 19.782-21.295 11.384-.456 20.994 8.326 21.46 19.628.461 11.3-8.398 20.825-19.784 21.283-11.388.465-20.994-8.317-21.458-19.616z" mask="url(#conqt021dd)"/>
                <path stroke="#231815" stroke-width=".25" d="M302.118 830.437c-.397-9.758 7.24-17.986 17.072-18.388 9.825-.388 18.123 7.192 18.522 16.951.399 9.744-7.25 17.964-17.075 18.362-9.832.391-18.118-7.18-18.519-16.925z" mask="url(#conqt021dd)"/>
                <path stroke="#231815" stroke-width=".25" d="M319.256 813.547c8.991-.36 16.575 6.582 16.942 15.517.367 8.918-6.626 16.438-15.615 16.806-8.997.358-16.593-6.574-16.955-15.497-.368-8.925 6.633-16.461 15.628-16.826z" mask="url(#conqt021dd)"/>
                <path stroke="#231815" stroke-width=".25" d="M319.56 820.747c4.986-.2 9.183 3.653 9.389 8.575.2 4.95-3.66 9.146-8.658 9.345-4.98.203-9.205-3.67-9.411-8.616-.197-4.92 3.69-9.093 8.68-9.304z" mask="url(#conqt021dd)"/>
                <path fill="#231815" d="M728.175 829.706c0 17.698-14.46 32.044-32.296 32.044-17.839 0-32.299-14.346-32.299-32.044 0-17.696 14.46-32.041 32.3-32.041 17.835 0 32.295 14.345 32.295 32.04" mask="url(#conqt021dd)"/>
                <path fill="#9E9E9F" d="M675.258 830.546c-.47-11.302 8.39-20.838 19.781-21.295 11.385-.456 20.995 8.326 21.46 19.628.461 11.3-8.397 20.825-19.783 21.283-11.388.465-20.995-8.317-21.458-19.616" mask="url(#conqt021dd)"/>
                <path fill="#595757" d="M678.081 830.437c-.397-9.758 7.24-17.986 17.07-18.388 9.826-.388 18.124 7.192 18.523 16.951.398 9.744-7.25 17.964-17.074 18.362-9.834.391-18.119-7.18-18.519-16.925" mask="url(#conqt021dd)"/>
                <path fill="#888" d="M695.22 813.547c8.99-.36 16.574 6.582 16.94 15.517.368 8.918-6.626 16.438-15.615 16.806-8.997.358-16.593-6.574-16.955-15.497-.368-8.925 6.633-16.461 15.63-16.826" mask="url(#conqt021dd)"/>
                <path fill="#231815" d="M695.523 820.747c4.985-.2 9.183 3.653 9.389 8.575.199 4.95-3.66 9.146-8.66 9.345-4.98.203-9.203-3.67-9.41-8.616-.197-4.92 3.692-9.093 8.68-9.304M698.075 811.82c0 .8-.817 1.27-2.347 1.27-1.527 0-2.343-.47-2.343-1.27 0-.802.816-1.27 2.343-1.27 1.53 0 2.347.468 2.347 1.27M693.682 847.596c0-.798.817-1.272 2.344-1.272 1.526 0 2.345.474 2.345 1.272 0 .8-.819 1.271-2.345 1.271-1.527 0-2.344-.471-2.344-1.271M677.847 827.53c.807 0 1.28.81 1.28 2.325 0 1.517-.473 2.326-1.28 2.326-.806 0-1.28-.809-1.28-2.326 0-1.515.474-2.326 1.28-2.326M713.908 831.888c-.806 0-1.278-.81-1.278-2.327s.472-2.327 1.278-2.327c.807 0 1.28.81 1.28 2.327s-.473 2.327-1.28 2.327M688.974 813.042c.395.696-.088 1.5-1.421 2.242-1.333.744-2.277.73-2.672.035-.392-.702.087-1.51 1.419-2.247 1.335-.743 2.278-.731 2.674-.03M702.782 846.376c-.395-.696.085-1.503 1.418-2.244 1.334-.742 2.278-.73 2.674-.034.394.699-.087 1.507-1.42 2.244-1.334.745-2.28.732-2.672.034M679.077 836.557c.705-.39 1.515.086 2.264 1.408.75 1.321.732 2.263.034 2.653-.706.388-1.52-.087-2.265-1.412-.75-1.32-.735-2.257-.033-2.649M712.677 822.86c-.7.39-1.514-.089-2.263-1.41-.747-1.323-.733-2.262-.03-2.65.701-.392 1.517.088 2.264 1.41.746 1.32.733 2.256.03 2.65M681.636 818.52c.69.418.668 1.355-.129 2.647-.795 1.295-1.63 1.742-2.316 1.324-.687-.415-.668-1.354.132-2.648.795-1.293 1.625-1.739 2.313-1.323M710.118 840.895c-.688-.417-.666-1.354.13-2.649.798-1.294 1.628-1.742 2.316-1.322.688.413.666 1.352-.133 2.646-.796 1.293-1.625 1.74-2.313 1.325M684.602 843.835c.422-.684 1.367-.662 2.67.13 1.305.789 1.754 1.616 1.334 2.298-.422.682-1.364.664-2.67-.131-1.302-.79-1.755-1.614-1.334-2.297M707.153 815.58c-.418.683-1.365.662-2.668-.13-1.305-.788-1.754-1.617-1.332-2.297.417-.681 1.362-.662 2.667.13 1.303.79 1.753 1.61 1.333 2.298" mask="url(#conqt021dd)"/>
                <path stroke="#231815" stroke-width=".25" d="M675.258 830.546c-.47-11.302 8.39-20.838 19.781-21.295 11.385-.456 20.995 8.326 21.46 19.628.461 11.3-8.397 20.825-19.783 21.283-11.388.465-20.995-8.317-21.458-19.616z" mask="url(#conqt021dd)"/>
                <path stroke="#231815" stroke-width=".25" d="M678.081 830.437c-.397-9.758 7.24-17.986 17.07-18.388 9.826-.388 18.124 7.192 18.523 16.951.398 9.744-7.25 17.964-17.074 18.362-9.834.391-18.119-7.18-18.519-16.925z" mask="url(#conqt021dd)"/>
                <path stroke="#231815" stroke-width=".25" d="M695.22 813.547c8.99-.36 16.574 6.582 16.94 15.517.368 8.918-6.626 16.438-15.615 16.806-8.997.358-16.593-6.574-16.955-15.497-.368-8.925 6.633-16.461 15.63-16.826z" mask="url(#conqt021dd)"/>
                <path stroke="#231815" stroke-width=".25" d="M695.523 820.747c4.985-.2 9.183 3.653 9.389 8.575.199 4.95-3.66 9.146-8.66 9.345-4.98.203-9.203-3.67-9.41-8.616-.197-4.92 3.692-9.093 8.68-9.304z" mask="url(#conqt021dd)"/>
                <path fill="#FFF" d="M652.996 780.513v60.205h6.866v-14.54c0-19.822 16.197-35.891 36.177-35.891s36.178 16.07 36.178 35.891v14.54h6.865v-60.205h-86.086z" mask="url(#conqt021dd)"/>
                <path fill="#040201" d="M424.236 816.572L439.26 816.572 439.26 814.739 424.236 814.739zM527.44 816.572L542.464 816.572 542.464 814.739 527.44 814.739z" mask="url(#conqt021dd)"/>
                <path fill="#020000" d="M626.336 820.253h-13.122c-.525 0-.95-.427-.95-.952v-7.291c0-.526.425-.951.95-.951h13.121c.526 0 .952.425.952.95v7.292c0 .525-.426.952-.95.952" mask="url(#conqt021dd)"/>
                <path fill="#040201" d="M612.263 816.572L627.287 816.572 627.287 814.739 612.263 814.739z" mask="url(#conqt021dd)"/>
                <path stroke="#000" stroke-width=".25" d="M626.336 820.253h-13.122c-.525 0-.95-.427-.95-.952v-7.291c0-.526.425-.951.95-.951h13.121c.526 0 .952.425.952.95v7.292c0 .525-.426.952-.95.952zM615.341 820.253L615.341 811.059M624.208 820.253L624.208 811.059" mask="url(#conqt021dd)"/>
                <path stroke="#000" stroke-width=".25" d="M612.263 816.572L627.287 816.572 627.287 814.739 612.263 814.739z" mask="url(#conqt021dd)"/>
                <path fill="#F7B52C" d="M125.525 807.966h2.936s5.627-.381 5.627-5.584v-31.883c0-5.203-5.627-5.584-5.627-5.584h-2.936v43.05z" mask="url(#conqt021dd)"/>
                <path stroke="#000" stroke-width=".25" d="M841.733 775.17L853.521 775.17M739.081 840.719L739.081 780.513M776.705 780.513L739.081 780.513 652.996 780.513 586.554 780.513 527.439 780.513 380.145 780.513 272.385 780.513 218.012 780.513 139.623 780.513M763.993 798.84h-16.57c-.526 0-.951-.426-.951-.952V785.74c0-.525.425-.952.952-.952h16.569c.525 0 .952.427.952.952v12.148c0 .526-.427.952-.952.952zM760.37 829.362h-5.485c-.526 0-.952-.427-.952-.952v-2.984c0-.526.426-.952.952-.952h5.486c.524 0 .952.426.952.952v2.984c0 .525-.428.952-.952.952zM438.309 820.253h-13.122c-.525 0-.951-.427-.951-.952v-7.291c0-.526.426-.951.952-.951h13.12c.526 0 .952.425.952.95v7.292c0 .525-.426.952-.951.952zM427.315 820.253L427.315 811.059M436.182 820.253L436.182 811.059" mask="url(#conqt021dd)"/>
                <path stroke="#000" stroke-width=".25" d="M424.236 816.572L439.26 816.572 439.26 814.739 424.236 814.739zM162.547 776.235H144.41c-.262 0-.475-.213-.475-.476v-19.178c0-.263.213-.476.475-.476h18.137c.264 0 .477.214.477.477v19.177c0 .263-.213.476-.477.476z" mask="url(#conqt021dd)"/>
                <path stroke="#000" stroke-width=".25" d="M143.935 773.174c0-.338.275-.611.615-.611h17.858c.339 0 .616.273.616.61M143.935 769.882c0-.337.275-.611.615-.611h17.858c.339 0 .616.274.616.61M143.935 766.59c0-.337.275-.61.615-.61h17.858c.339 0 .616.273.616.61M143.935 763.299c0-.337.275-.61.615-.61h17.858c.339 0 .616.273.616.61M143.935 760.008c0-.337.275-.61.615-.61h17.858c.339 0 .616.273.616.61M652.996 683.711L652.996 743.276M527.44 683.711L527.44 840.719M276.327 683.711L276.327 743.276M401.883 683.711L401.883 743.276M776.705 683.711L776.705 840.719M229.096 791.509v32.104c0 .337.276.61.616.61h27.28c.34 0 .615-.273.615-.61v-32.104c0-.337-.276-.611-.616-.611h-27.279c-.34 0-.616.274-.616.61z" mask="url(#conqt021dd)"/>
                <path stroke="#000" stroke-width=".25" d="M257.607 794.8c0-.337-.275-.61-.616-.61h-27.28c-.338 0-.615.273-.615.61M257.607 798.092c0-.338-.275-.611-.616-.611h-27.28c-.338 0-.615.273-.615.61M257.607 801.383c0-.338-.275-.611-.616-.611h-27.28c-.338 0-.615.273-.615.61M257.607 804.674c0-.337-.275-.61-.616-.61h-27.28c-.338 0-.615.273-.615.61M257.607 807.966c0-.338-.275-.611-.616-.611h-27.28c-.338 0-.615.273-.615.61M257.607 811.257c0-.338-.275-.611-.616-.611h-27.28c-.338 0-.615.273-.615.61M257.607 814.549c0-.338-.275-.611-.616-.611h-27.28c-.338 0-.615.273-.615.61M257.607 817.84c0-.338-.275-.611-.616-.611h-27.28c-.338 0-.615.273-.615.61M257.607 821.13c0-.336-.275-.61-.616-.61h-27.28c-.338 0-.615.274-.615.61M257.607 792.119c0-.337-.275-.61-.616-.61h-27.28c-.338 0-.615.273-.615.61M257.607 795.411c0-.338-.275-.611-.616-.611h-27.28c-.338 0-.615.273-.615.611M257.607 798.702c0-.337-.275-.61-.616-.61h-27.28c-.338 0-.615.273-.615.61M257.607 801.994c0-.338-.275-.611-.616-.611h-27.28c-.338 0-.615.273-.615.611M257.607 805.285c0-.337-.275-.611-.616-.611h-27.28c-.338 0-.615.274-.615.611M257.607 808.576c0-.337-.275-.61-.616-.61h-27.28c-.338 0-.615.273-.615.61M257.607 811.868c0-.338-.275-.611-.616-.611h-27.28c-.338 0-.615.273-.615.611M257.607 815.159c0-.338-.275-.61-.616-.61h-27.28c-.338 0-.615.272-.615.61M257.607 818.45c0-.337-.275-.61-.616-.61h-27.28c-.338 0-.615.273-.615.61M257.607 821.742c0-.338-.275-.611-.616-.611h-27.28c-.338 0-.615.273-.615.611M541.513 820.253h-13.122c-.525 0-.95-.427-.95-.952v-7.291c0-.526.425-.951.95-.951h13.121c.526 0 .952.425.952.95v7.292c0 .525-.426.952-.95.952zM530.518 820.253L530.518 811.059M539.385 820.253L539.385 811.059" mask="url(#conqt021dd)"/>
                <path stroke="#000" stroke-width=".25" d="M527.44 816.572L542.464 816.572 542.464 814.739 527.44 814.739zM586.554 840.719L586.554 780.513M652.996 780.513L652.996 840.718M483.35 780.513L483.35 840.718M380.146 840.719L380.146 780.513M272.385 780.513L272.385 840.718M218.012 840.719L218.012 780.513M167.334 780.513L167.334 743.277M205.836 805.285H151.8c-.263 0-.476-.213-.476-.476v-12.213c0-.263.214-.477.477-.477h54.036c.264 0 .477.214.477.477v12.213c0 .263-.213.476-.477.476z" mask="url(#conqt021dd)"/>
                <path stroke="#000" stroke-width=".25" d="M151.324 796.022c0-.338.275-.61.616-.61h53.757c.34 0 .616.272.616.61M151.324 799.313c0-.338.275-.61.616-.61h53.757c.34 0 .616.272.616.61M151.324 802.604c0-.337.275-.61.616-.61h53.757c.34 0 .616.273.616.61M781.632 827.749L797.432 827.749 797.432 711.967 781.632 711.967zM807.284 711.967v115.782h15.8l.463-93.79c-1.73-9.378-2.985-13.91-4.7-21.992h-11.563zM802.358 705.857L802.358 832.636M855.489 792.257c-3.795-4.472-8.585-7.345-12.857-9.171-3.433-1.467-6.53-2.26-8.504-2.663M856.496 805.296c-3.568-4.726-8.255-7.83-12.577-9.851-3.938-1.841-7.573-2.786-9.791-3.24" mask="url(#conqt021dd)"/>
                <path stroke="#000" stroke-width=".25" d="M857.136 822.988h-9.899c-1.7 0-3.08-1.368-3.08-3.055V798.84c0-.529-.086-1.722-.238-3.395-.268-2.96-.739-7.422-1.288-12.359-.284-2.559-.59-5.244-.898-7.916-1.155-9.977-2.36-19.74-2.713-21.845-.734-4.369-8.852-47.075-11.009-53.643-3.222-9.808 1.577-13.699 4.747-15.15M822.541 705.857L802.357 705.857 776.705 705.857M822.541 707.079L802.357 707.079 776.705 707.079M828.011 733.959L828.011 832.637 802.358 832.637 776.705 832.637" mask="url(#conqt021dd)"/>
                <path stroke="#000" stroke-width=".25" d="M834.127 836v-57.674c0-4.612-2.202-22.574-2.202-22.574s-1.718-9.877-3.914-21.793c-1.729-9.378-3.753-20.02-5.47-28.102-.9-4.242-1.717-7.78-2.359-10.058-3.425-12.137-21.775-12.088-21.775-12.088h-21.702M797.432 714.41L807.285 714.41M797.432 719.297L807.285 719.297M797.432 820.418L807.285 820.418M797.432 825.304L807.285 825.304M797.432 766.803L807.285 766.803M797.432 771.69L807.285 771.69" mask="url(#conqt021dd)"/>
                <path stroke="#000" stroke-width=".25" d="M776.705 743.276H143.71l5.417-54.94c.26-2.624 2.481-4.625 5.138-4.625h622.44M127.42 680.965c.276.065.558.135.842.21 3.462.91 2.114 6.917.28 20.935-.49 3.74-.933 9.113-1.319 14.98M125.525 753.082L125.525 764.915M127.223 717.09c-1.062 16.127-1.698 35.992-1.698 35.992M128.46 764.915h-2.936v43.05h2.936s5.628-.38 5.628-5.583v-31.883c0-5.203-5.628-5.584-5.628-5.584zM125.525 807.966L121.57 807.966 119.979 807.966M139.623 802.382L134.088 802.382M125.525 787.125L121.57 787.125M127.223 717.09c-.755-.084-2.121-.236-3.596-.393M123.282 753.082L125.525 753.082M139.623 832.166L139.623 802.382 139.623 668.438" mask="url(#conqt021dd)"/>
                <path stroke="#000" stroke-width=".25" d="M857.143 822.988c-.034-3.686-.167-9.809-.647-17.692-.239-3.935-.565-8.31-1.007-13.039-.497-5.29-1.138-11.024-1.968-17.087l-.067-.486c-4.158-30.097-15.413-72.575-16.88-78.158-.822-3.125-1.952-7.62-3.816-11.994-1.466-3.439-3.387-6.802-5.97-9.365-5.872-5.826-32.295-6.729-32.295-6.729H135.8c-5.953 0-7.014 5.272-7.014 5.272-.47 1.982-.927 4.446-1.367 7.255-1.508 9.644-2.807 23.37-3.792 35.732-1.256 15.785-1.997 29.346-1.997 29.346h1.652v7.04h-1.712v54.883h-1.59v13.165c0 7.366 3.67 8.41 3.67 8.41l15.973 2.625 55.975 8.552H283.47v-14.54c0-19.822 16.197-35.89 36.177-35.89s36.176 16.068 36.176 35.89v14.54H659.863v-14.54c0-19.822 16.196-35.89 36.175-35.89 19.981 0 36.178 16.068 36.178 35.89v14.54H776.705s36.168-2.835 57.422-4.717c6.59-.583 11.745-1.075 13.946-1.363 9.296-1.213 9.051-7.72 9.051-7.72s.032-1.384.019-3.93z" mask="url(#conqt021dd)"/>
                <g stroke="#000" stroke-width=".25" mask="url(#conqt021dd)">
                    <g>
                        <path d="M0 .805c0-.338.275-.61.615-.61h17.858c.339 0 .616.273.616.61M0 17.262c0-.338.275-.61.615-.61h17.858c.339 0 .616.272.616.61M0 13.97c0-.338.275-.61.615-.61h17.858c.339 0 .616.273.616.61M0 10.678c0-.337.275-.61.615-.61h17.858c.339 0 .616.274.616.61M0 7.388c0-.337.275-.611.615-.611h17.858c.339 0 .616.274.616.61M0 4.096c0-.337.275-.61.615-.61h17.858c.339 0 .616.272.616.61M7.389 40.11c0-.338.275-.61.616-.61h53.757c.34 0 .616.272.616.61M7.389 43.401c0-.337.275-.61.616-.61h53.757c.34 0 .616.273.616.61M7.389 46.693c0-.338.275-.61.616-.61h53.757c.34 0 .616.272.616.61M7.389 36.82c0-.339.275-.612.616-.612h53.757c.34 0 .616.273.616.611" transform="translate(143.935 756.523)"/>
                    </g>
                </g>
                <path fill="#0050A4" d="M199.62 753.286c.042-.141.065-.29.065-.444v-1.02c0-.483-.226-.913-.578-1.193.314-.28.51-.685.51-1.136v-1.019c0-.843-.688-1.528-1.54-1.528h-6.214c-.275 0-.532.072-.756.197-.258-.483-.77-.812-1.36-.812h-1.29c-.633 0-1.178.381-1.413.923h-4.24c-.065 0-.127.006-.19.013-.236-.544-.78-.926-1.416-.926h-1.28c-.51 0-.962.246-1.242.625-.096-.019-.197-.03-.3-.03h-4.091c-.851 0-1.54.685-1.54 1.528v1.02c0 .503.244.949.624 1.228-.43.124-.785.428-.97.833-.191.416-.185.895.018 1.305l.495 1c.171.347.46.601.8.74-.01.095-.016.192-.016.291 0 1.077.572 2.034 1.573 2.626.775.458 1.805.7 2.981.7 1.173 0 2.2-.242 2.974-.701.427-.253.775-.574 1.035-.94.227.123.48.189.74.189.225 0 .453-.049.668-.153 1.381-.661 2.457-1.469 3.25-2.443v2.56c0 .843.69 1.527 1.54 1.527h1.29c.66 0 1.22-.412 1.44-.991h7.822c.85 0 1.54-.684 1.54-1.528v-1.039c0-.628-.383-1.168-.93-1.402M267.396 748.596c-.856-.952-2.088-1.476-3.466-1.476-1.59 0-2.888.654-3.722 1.775-.88-1.05-2.246-1.641-3.975-1.641h-1.97c-.288 0-.556.08-.788.218-.23-.137-.501-.218-.79-.218h-1.434c-.501 0-.946.238-1.227.607-.743-.486-1.607-.741-2.545-.741-1.395 0-2.604.516-3.482 1.393-.007-.008-.012-.014-.02-.02-.886-.899-2.033-1.374-3.32-1.374-1.275 0-2.396.433-3.25 1.175-.204-.603-.78-1.04-1.458-1.04h-1.358c-.57 0-1.066.308-1.333.764-.274-.471-.782-.764-1.333-.764h-1.465c-.64 0-1.19.39-1.421.943-.82-.697-1.883-1.077-3.054-1.077-1.086 0-2.034.307-2.794.857-.272-.433-.754-.723-1.307-.723h-4.402c-.145 0-.283.021-.416.058-.132-.037-.272-.058-.415-.058H215.156c-.578 0-1.105.322-1.366.826-.263-.505-.79-.827-1.368-.827H210.9c-.325 0-.635.103-.892.284-.598-.273-1.255-.418-1.954-.418-2.887 0-4.981 2.208-4.981 5.25 0 1.543.494 2.856 1.429 3.798.896.9 2.158 1.396 3.552 1.396 1.3 0 2.572-.483 3.405-1.293.029-.028.055-.058.082-.087.132.708.758 1.245 1.51 1.245h1.436c.729 0 1.338-.502 1.498-1.178.159.676.768 1.178 1.497 1.178h4.509c.54 0 1.014-.275 1.289-.693.748.53 1.668.828 2.705.828 1.2 0 2.245-.4 3.046-1.097.226.563.78.962 1.429.962h1.358c.574 0 1.074-.31 1.339-.771.273.476.783.771 1.338.771h1.454c.664 0 1.228-.418 1.444-1.002.869.733 2.012 1.137 3.265 1.137 1.294 0 2.56-.48 3.394-1.284.886.827 2.093 1.284 3.427 1.284.928 0 1.838-.25 2.589-.685.282.335.707.55 1.183.55h1.435c.288 0 .559-.08.789-.217.232.136.5.217.789.217h2.047c1.479 0 2.729-.465 3.615-1.342.099-.096.2-.21.3-.332.843 1.135 2.142 1.81 3.704 1.81 2.797 0 4.749-2.16 4.749-5.251 0-1.499-.443-2.783-1.283-3.716" mask="url(#conqt021dd)"/>
                <path fill="#FFF" d="M214.439 750.514c-.204.529-.417 1.029-.64 1.577h-.04c-.222-.548-.416-1.048-.62-1.577l-.717-1.731H210.9l2.152 4.51v2.609h1.435v-2.609l2.163-4.51h-1.494l-.717 1.73zM218.917 752.803L221.438 752.803 221.438 751.611 218.917 751.611 218.917 749.965 221.884 749.965 221.884 748.783 217.481 748.783 217.481 755.902 221.99 755.902 221.99 754.707 218.917 754.707zM178.25 755.7c-1.105 0-1.755-.28-1.755-.819 0-.538.65-.818 1.755-.818 1.096 0 1.745.28 1.745.818 0 .54-.649.818-1.745.818m0-2.617c-1.823 0-3.016.692-3.016 1.8 0 1.105 1.193 1.798 3.016 1.798 1.813 0 3.007-.693 3.007-1.799 0-1.107-1.194-1.799-3.007-1.799M207.831 753.13h1.271v1.405c-.205.173-.553.27-.903.27-1.406 0-2.123-.934-2.123-2.483 0-1.53.833-2.453 2.026-2.453.65 0 1.057.26 1.407.597l.765-.904c-.464-.472-1.182-.914-2.22-.914-1.91 0-3.443 1.375-3.443 3.722 0 2.376 1.484 3.666 3.443 3.666 1 0 1.842-.385 2.328-.856v-3.214h-2.55v1.164zM195.595 752.842L198.146 752.842 198.146 751.822 193.152 751.822 193.152 749.493 198.077 749.493 198.077 748.474 191.863 748.474 191.863 752.842 194.316 752.842 194.316 754.689 190.921 754.689 190.921 755.728 199.009 755.728 199.009 754.689 195.595 754.689zM188.457 756.719L189.746 756.719 189.746 747.859 188.457 747.859zM225.985 754.804c-1.066 0-1.745-.972-1.745-2.491 0-1.53.679-2.444 1.745-2.444s1.745.914 1.745 2.443c0 1.52-.68 2.492-1.745 2.492m0-6.156c-1.9 0-3.21 1.346-3.21 3.664 0 2.308 1.31 3.723 3.21 3.723s3.21-1.414 3.21-3.722c0-2.31-1.31-3.665-3.21-3.665" mask="url(#conqt021dd)"/>
                <path fill="#FFF" d="M178.067 750.283h1.852v.817h-1.97v1.02h1.97v.847h1.28v-5.1h-1.28v1.405h-1.6c.038-.26.058-.529.058-.808h-4.092v1.02h2.695c-.164 1.202-1.143 2.154-3.18 2.694l.495 1c1.968-.548 3.218-1.5 3.772-2.895M234.591 751.62c0 .808.107 1.75.185 2.49h-.048l-.718-1.538-2.085-3.79h-1.465v7.119h1.358v-2.857c0-.818-.107-1.713-.174-2.483h.048l.727 1.53 2.075 3.81h1.454v-7.12h-1.357v2.839zM263.93 754.804c-1.066 0-1.745-.972-1.745-2.491 0-1.53.679-2.444 1.745-2.444 1.067 0 1.746.914 1.746 2.443 0 1.52-.679 2.492-1.746 2.492m0-6.156c-1.9 0-3.21 1.346-3.21 3.664 0 2.308 1.31 3.723 3.21 3.723s3.21-1.414 3.21-3.722c0-2.31-1.31-3.665-3.21-3.665M256.146 754.756h-.446v-4.84h.446c1.338 0 2.172.655 2.172 2.397 0 1.73-.834 2.443-2.172 2.443m.087-5.974h-1.97v7.12h2.048c2.113 0 3.472-1.194 3.472-3.59 0-2.405-1.36-3.53-3.55-3.53M182.804 749.792h2.977c-.185 1.963-1.173 3.348-3.453 4.435l.67 1c3.17-1.52 4.092-3.732 4.092-6.445h-4.286v1.01zM240.435 753.13h1.27v1.405c-.204.173-.553.27-.902.27-1.406 0-2.123-.934-2.123-2.483 0-1.53.833-2.453 2.026-2.453.65 0 1.057.26 1.407.597l.765-.904c-.465-.472-1.182-.914-2.22-.914-1.91 0-3.443 1.375-3.443 3.722 0 2.376 1.484 3.666 3.443 3.666.999 0 1.842-.385 2.327-.856v-3.214h-2.55v1.164zM247.255 753.13h1.271v1.405c-.205.173-.553.27-.903.27-1.405 0-2.123-.934-2.123-2.483 0-1.53.834-2.453 2.026-2.453.651 0 1.058.26 1.407.597l.765-.904c-.464-.472-1.182-.914-2.219-.914-1.91 0-3.443 1.375-3.443 3.722 0 2.376 1.484 3.666 3.443 3.666.998 0 1.841-.385 2.327-.856v-3.214h-2.55v1.164zM251.25 755.901L252.686 755.901 252.686 748.782 251.25 748.782z" mask="url(#conqt021dd)"/>
            </g>
        </g>
    </g>
</svg>
