<svg xmlns="http://www.w3.org/2000/svg" xmlns:xlink="http://www.w3.org/1999/xlink" width="270" height="300" viewBox="0 0 270 300">
    <defs>
        <path id="4s5yjhbmza" d="M0 0.994L256.573 0.994 256.573 151 0 151z"/>
        <path id="turf2v092c" d="M0.416 0L257 0 257 149.993 0.416 149.993z"/>
    </defs>
    <g fill="none" fill-rule="evenodd">
        <g>
            <g>
                <g transform="translate(-405 -1335) translate(405 1335) translate(0 149)">
                    <mask id="on4pn0le5b" fill="#fff">
                        <use xlink:href="#4s5yjhbmza"/>
                    </mask>
                    <path fill="#BD9500" d="M236.121 70.352c-6.113 0-11.54 2.77-15.29 7.07l-.12-.103c-13.934 18.672-33.928 33.316-56.866 40.827-22.916 7.54-48.765 8.05-72.803.66-24.09-7.296-46.38-22.468-62.64-43.267C12.052 54.838 1.917 28.509.284.994c-1.799 27.48 4.95 56.04 19.68 80.462 14.602 24.467 37.013 44.74 63.825 56.782 26.782 12.13 57.633 15.844 87.47 10.148 29.434-5.582 57.503-20.573 79.315-42.694.006-.006.01-.012.012-.012.305-.307.634-.58.934-.892l-.12-.105c3.183-3.65 5.173-8.386 5.173-13.63 0-11.43-9.154-20.701-20.452-20.701" mask="url(#on4pn0le5b)"/>
                </g>
                <g transform="translate(-405 -1335) translate(405 1335) translate(13)">
                    <mask id="ciya72vnod" fill="#fff">
                        <use xlink:href="#turf2v092c"/>
                    </mask>
                    <path fill="#1A479A" d="M237.032 69.538C222.422 45.07 200.01 24.804 173.2 12.761 146.417.632 115.567-3.083 85.73 2.614 56.319 8.184 28.273 23.16 6.467 45.267c-.027.024-.055.046-.08.076-.298.301-.623.568-.917.875l.117.104c-3.18 3.652-5.17 8.38-5.17 13.625 0 11.428 9.166 20.69 20.464 20.69 6.112 0 11.538-2.772 15.284-7.072l.12.111C50.212 55.01 70.206 40.358 93.143 32.848c22.916-7.534 48.765-8.049 72.804-.655 24.09 7.297 46.38 22.462 62.64 43.256 16.356 20.707 26.49 47.028 28.129 74.544 1.799-27.48-4.95-56.033-19.684-80.455" mask="url(#ciya72vnod)"/>
                </g>
            </g>
        </g>
    </g>
</svg>
