<svg xmlns="http://www.w3.org/2000/svg" xmlns:xlink="http://www.w3.org/1999/xlink" width="991" height="464" viewBox="0 0 991 464">
    <defs>
        <path id="yyrb6l3yia" d="M0 0.278L6.892 0.278 6.892 7.315 0 7.315z"/>
        <path id="50d25o8o5c" d="M0 19L67 19 67 0 0 0z"/>
        <path id="qny6wgmu3e" d="M0 0.549L151.435 0.549 151.435 86.542 0 86.542z"/>
        <path id="wv2yw14s7g" d="M0 0L357.447 0 357.447 383.598 0 383.598z"/>
    </defs>
    <g fill="none" fill-rule="evenodd">
        <g>
            <g>
                <path fill="#FFF" d="M0 0H990V462H0z" transform="translate(-44 -652) translate(45 653)"/>
                <g>
                    <path stroke="#999" stroke-width="2" d="M516 400L0 400 0 0 516 0 516 221.887" transform="translate(-44 -652) translate(45 653) translate(237)"/>
                    <path fill="#060101" d="M279.615 190.66c0-.21.01-.43.018-.642v-.023c.348-11.389 9.69-20.507 21.152-20.507 11.706 0 21.185 9.472 21.185 21.172 0 .694-.042 1.38-.107 2.058 7.138 1.207 14.16 2.992 20.964 5.334.415-2.396.646-4.859.646-7.373 0-8.052-2.224-15.575-6.093-22-12.005-2.835-24.366-4.309-36.737-4.218-14.359-.126-28.726 1.836-42.549 5.601v18.017c-.057.856-.085 1.73-.085 2.6 0 2.31.188 4.574.542 6.79 6.882-2.257 13.97-3.944 21.154-5.047-.049-.583-.09-1.168-.09-1.762M279.633 119.936h-21.54v25.405c7.096-1.67 14.296-2.943 21.54-3.765v-21.64zM268.992 219.278c7.822 8.681 19.146 14.138 31.749 14.138 12.313 0 23.399-5.21 31.194-13.545-20.182-6.119-42.548-6.274-62.943-.593" transform="translate(-44 -652) translate(45 653) translate(237)"/>
                    <path fill="#F0B13A" d="M337.38 168.678c-7.474-12.415-21.08-20.73-36.64-20.73-7.678 0-14.876 2.025-21.107 5.57v-11.942c-7.244.823-14.444 2.094-21.54 3.766v24.72c13.824-3.764 28.19-5.727 42.55-5.6 12.372-.091 24.732 1.382 36.737 4.216M331.935 219.872c5.563-5.936 9.437-13.461 10.892-21.82-6.804-2.342-13.827-4.126-20.964-5.333-1.034 10.728-10.067 19.12-21.078 19.12-11.094 0-20.183-8.547-21.08-19.417-7.185 1.104-14.272 2.79-21.155 5.047 1.328 8.315 5.05 15.83 10.442 21.81 20.394-5.681 42.76-5.526 62.943.593" transform="translate(-44 -652) translate(45 653) translate(237)"/>
                    <path fill="#060101" d="M190.88 188.688c1.55-.763 2.798-1.844 3.736-3.203-.24-.17-1.614-1.057-1.8-1.186-1.898 2.318-4.352 3.507-7.321 3.507-1.645 0-3.156-.371-4.484-1.096-1.336-.732-2.397-1.772-3.162-3.097-.758-1.325-1.143-2.755-1.143-4.268 0-2.298.84-4.29 2.499-5.903 1.654-1.612 3.768-2.43 6.275-2.43 3.074 0 5.537 1.192 7.337 3.515.196-.121 1.56-.972 1.805-1.122-.583-.928-1.271-1.722-2.076-2.328-.854-.65-1.908-1.18-3.134-1.586-1.23-.397-2.516-.604-3.835-.604-2.095 0-4.025.472-5.714 1.393-1.695.928-3.044 2.239-4.013 3.879-.962 1.653-1.457 3.47-1.457 5.395 0 2.854 1.054 5.315 3.123 7.313 2.063 1.999 4.715 3.008 7.858 3.008 2.05 0 3.907-.395 5.506-1.187M227.962 180.995c-.68-.908-1.988-1.873-3.904-2.865-1.625-.838-2.667-1.552-3.188-2.182-.518-.621-.784-1.292-.784-1.988 0-.795.322-1.498.957-2.084.637-.583 1.408-.884 2.292-.884 1.328 0 2.703.675 4.086 1.97.173-.178 1.245-1.285 1.438-1.493-1.802-1.705-3.618-2.582-5.392-2.582-1.553 0-2.855.498-3.863 1.48-1.016.983-1.533 2.236-1.533 3.725 0 1.132.324 2.163.963 3.05.634.895 1.872 1.818 3.675 2.739 1.738.89 2.834 1.617 3.339 2.213.506.609.764 1.318.764 2.102 0 .946-.382 1.789-1.15 2.48-.766.71-1.702 1.06-2.788 1.06-1.486 0-2.91-.74-4.23-2.181-.191.209-1.253 1.426-1.423 1.609.666.82 1.493 1.49 2.483 1.967 1.039.493 2.144.743 3.283.743 1.697 0 3.136-.565 4.27-1.681 1.13-1.12 1.703-2.502 1.703-4.111 0-1.143-.33-2.185-.998-3.087M233.117 182.085c0-2.726.127-4.543.382-5.56.405-1.567 1.251-2.904 2.522-3.964 1.274-1.065 2.74-1.603 4.345-1.603 1.416 0 2.58.353 3.46 1.05.873.694 1.487 1.745 1.816 3.123.197.797.288 2.34.288 4.716v9.504h2.271v-10.267c0-2.732-.283-4.763-.825-6.037-.549-1.264-1.4-2.285-2.543-3.03-1.135-.751-2.465-1.13-3.94-1.13-1.442 0-2.8.34-4.037 1.013-1.248.677-2.395 1.71-3.437 3.075l-.302.404v-11.8h-2.27v27.772h2.27v-7.266zM205.611 187.75c-4.602 0-8.325-3.73-8.325-8.323 0-4.598 3.723-8.325 8.325-8.325 4.59 0 8.321 3.727 8.321 8.325 0 4.593-3.73 8.322-8.32 8.322m8.323-1.932l-.003 3.458h2.237V169.38h-2.232l-.002 3.644c-1.92-2.496-4.93-4.113-8.324-4.113-5.809 0-10.515 4.701-10.515 10.506 0 5.806 4.706 10.515 10.515 10.515 3.391 0 6.4-1.618 8.324-4.114M193.876 220.53c-4.642 0-8.41-3.76-8.41-8.4 0-4.643 3.768-8.41 8.41-8.41 4.646 0 8.403 3.767 8.403 8.41 0 4.64-3.757 8.4-8.403 8.4m0-19.02c-3.432 0-6.475 1.637-8.415 4.167l-.005-11.62h-2.251l.008 18.348h.069c.153 5.726 4.83 10.334 10.594 10.334 5.86 0 10.612-4.758 10.612-10.617 0-5.862-4.752-10.612-10.612-10.612M208.692 209.915c.547-1.894 1.344-3.306 2.406-4.25 1.448-1.308 3.185-1.953 5.2-1.953 1.227 0 2.39.263 3.498.777 1.11.521 2.002 1.196 2.68 2.04.671.848 1.192 1.975 1.54 3.386h-15.324zm15.824-4.637c-2.045-2.6-4.825-3.913-8.252-3.913-3.333 0-6.027 1.277-8.02 3.815-1.566 2.008-2.36 4.317-2.36 6.875 0 2.711.933 5.178 2.79 7.337 1.854 2.146 4.451 3.231 7.734 3.231 1.483 0 2.837-.227 4.008-.678 1.173-.454 2.243-1.114 3.177-1.978.906-.83 1.707-1.945 2.401-3.275-.258-.139-1.69-.89-1.916-1.013-.782 1.281-1.522 2.233-2.198 2.821-.706.62-1.575 1.114-2.58 1.485-1.002.361-2.056.553-3.114.553-2.213 0-4.09-.787-5.596-2.348-1.502-1.555-2.288-3.56-2.336-5.985l-.005-.184h18.485c-.057-2.67-.789-4.943-2.218-6.743zM233.15 205.665c1.45-1.308 3.181-1.952 5.2-1.952 1.225 0 2.39.263 3.496.776 1.11.52 2.007 1.197 2.68 2.04.671.848 1.188 1.975 1.543 3.386h-15.322c.542-1.893 1.341-3.306 2.403-4.25m10.783 12.835c-.704.619-1.578 1.115-2.577 1.486-1.01.36-2.058.552-3.12.552-2.2 0-4.087-.787-5.594-2.347-1.498-1.555-2.287-3.562-2.339-5.986v-.183h18.486c-.057-2.671-.797-4.944-2.215-6.744-2.053-2.6-4.828-3.912-8.26-3.912-3.332 0-6.03 1.277-8.01 3.814-1.576 2.004-2.368 4.318-2.368 6.876 0 2.71.943 5.178 2.795 7.337 1.847 2.145 4.446 3.23 7.734 3.23 1.481 0 2.832-.226 4-.677 1.171-.454 2.244-1.114 3.18-1.978.898-.828 1.707-1.945 2.41-3.276-.264-.14-1.695-.89-1.92-1.013-.78 1.282-1.529 2.234-2.202 2.82" transform="translate(-44 -652) translate(45 653) translate(237)"/>
                    <path fill="#999" d="M169.05 261.29c.383 0 .719.096 1.007.288.287.19.43.498.43.92v7.477h3.165c.382 0 .656.12.819.359.162.24.245.532.245.877 0 .346-.083.643-.245.892-.163.25-.437.374-.82.374h-3.164v12.452c0 .422-.143.729-.43.92-.288.192-.624.288-1.007.288-.384 0-.72-.096-1.007-.287-.287-.192-.431-.5-.431-.921v-22.431c0-.422.144-.73.43-.92.289-.192.624-.288 1.008-.288m-6.37 2.387c.316.307.474.873.474 1.696v3.624c0 .863-.052 1.635-.158 2.315-.105.68-.293 1.313-.56 1.898-.27.585-.643 1.15-1.122 1.697-.48.546-1.098 1.112-1.855 1.697-.758.584-1.674 1.212-2.747 1.883-1.074.672-2.33 1.429-3.767 2.272-.307.173-.623.212-.95.115-.325-.095-.584-.296-.775-.604-.192-.287-.27-.613-.231-.978.039-.363.22-.641.546-.834 1.496-.862 2.75-1.605 3.768-2.228 1.017-.623 1.855-1.184 2.517-1.683.662-.498 1.168-.967 1.524-1.41.354-.44.608-.91.763-1.408l-8.427.489c-.346.039-.605-.062-.776-.302-.173-.24-.28-.532-.317-.877-.02-.307.043-.594.187-.863.144-.268.398-.412.76-.431l8.83-.403v-3.048c0-.23-.047-.388-.143-.475-.096-.086-.25-.13-.46-.13h-7.448c-.365 0-.628-.124-.791-.373-.163-.25-.245-.537-.245-.862 0-.327.082-.614.245-.864.163-.248.426-.373.79-.373h8.629c.842 0 1.422.153 1.739.46M199.231 263.389c.162.25.245.537.245.863 0 .326-.083.614-.245.863-.163.249-.417.374-.763.374h-13.027c-.402 0-.604.19-.604.575v6.614c0 .403.202.604.604.604h13.315c.345 0 .6.12.763.359.162.24.244.523.244.849 0 .326-.082.614-.244.862-.164.25-.418.374-.763.374h-14.609c-.844 0-1.419-.153-1.726-.46-.306-.306-.46-.872-.46-1.697v-8.397c0-.824.154-1.39.46-1.697.307-.306.882-.46 1.726-.46h14.321c.346 0 .6.125.763.374m3.364 18.132c.163.24.245.533.245.877 0 .327-.082.614-.245.863-.162.25-.416.374-.76.374H179.69c-.346 0-.6-.124-.763-.374-.163-.25-.244-.536-.244-.863 0-.344.081-.636.244-.877.163-.24.417-.36.763-.36h22.144c.345 0 .6.12.761.36M227.558 262.238c.316.307.475.873.475 1.697v1.841c0 .805-.16 1.361-.475 1.668-.316.306-.897.46-1.74.46H213.97c-.306 0-.46.153-.46.46v.95c0 .286.154.43.46.43h13.775c.327 0 .561.111.707.331.143.22.214.475.214.762 0 .287-.071.542-.214.762-.145.221-.38.331-.707.331h-14.781c-.844 0-1.424-.149-1.74-.446-.316-.297-.476-.858-.476-1.683v-1.84c0-.824.16-1.39.476-1.697.315-.306.896-.46 1.74-.46h11.849c.306 0 .46-.153.46-.46v-.92c0-.288-.153-.432-.46-.432h-13.2c-.326 0-.561-.109-.704-.33-.145-.22-.216-.475-.216-.762 0-.288.07-.547.215-.777.143-.23.379-.345.704-.345h14.208c.843 0 1.423.154 1.739.46m.174 15.99c.315.307.472.872.472 1.697v1.812c0 .824-.157 1.39-.472 1.696-.317.306-.899.46-1.74.46h-12.195c-.306 0-.46.144-.46.432v.95c0 .286.154.43.46.43h14.091c.326 0 .565.115.72.345.153.23.23.48.23.748 0 .307-.077.57-.23.791-.155.22-.394.331-.72.331h-15.097c-.845 0-1.423-.154-1.74-.46-.316-.307-.474-.873-.474-1.698v-1.84c0-.824.157-1.39.474-1.697.317-.306.895-.46 1.74-.46h12.194c.287 0 .43-.144.43-.43v-.92c0-.308-.142-.462-.43-.462h-13.546c-.326 0-.561-.11-.704-.33-.145-.22-.217-.475-.217-.762 0-.288.072-.542.216-.763.143-.22.379-.33.706-.33h14.552c.841 0 1.423.154 1.74.46m3.507-4.184c.162.22.245.493.245.82 0 .325-.083.593-.245.804-.162.212-.409.317-.733.317h-22.202c-.326 0-.57-.105-.733-.317-.162-.21-.244-.479-.244-.805 0-.326.082-.599.244-.819.162-.22.407-.33.733-.33h22.202c.325 0 .57.11.733.33M266.799 261.29c.346 0 .656.09.935.273.278.182.417.465.417.849v22.604c0 .383-.14.666-.417.848-.28.182-.59.273-.935.273-.326 0-.628-.091-.905-.273-.28-.182-.418-.465-.418-.848v-12.453H262.4v11.245c0 .383-.14.666-.418.848-.28.182-.59.273-.934.273-.327 0-.63-.091-.906-.273-.28-.182-.417-.465-.417-.848v-21.11c0-.383.138-.665.417-.847.277-.183.579-.273.906-.273.345 0 .655.09.934.273.278.182.418.464.418.848v7.42h3.076v-7.707c0-.384.139-.667.418-.85.277-.181.579-.272.905-.272m-9.907 2.473c.163.25.244.547.244.89 0 .328-.081.61-.244.85-.163.24-.427.359-.791.359h-6.211c-.403 0-.605.202-.605.604v9.836c0 .402.202.604.605.604.575 0 1.183-.01 1.825-.03.643-.018 1.28-.047 1.913-.085.633-.04 1.246-.087 1.84-.144.595-.058 1.14-.125 1.64-.202.326-.038.585.044.776.245.19.202.307.475.345.819.039.346-.005.653-.13.92-.124.27-.35.432-.675.49-.73.115-1.851.22-3.365.316-1.515.097-3.326.144-5.435.144-.844 0-1.424-.153-1.74-.46-.316-.307-.475-.873-.475-1.697v-11.676c0-.824.159-1.39.475-1.697.316-.306.896-.46 1.74-.46h7.477c.364 0 .628.125.79.374M295.256 262.943c.162.24.244.532.244.877 0 .327-.082.609-.244.849-.164.239-.428.359-.791.359h-6.644v.345c0 .46.039.863.116 1.208.076.345.21.66.402.949.19.288.455.557.79.805.336.25.753.499 1.252.748.958.499 1.85.944 2.675 1.338.824.393 1.686.79 2.588 1.193.325.153.517.388.575.704.058.316.009.638-.144.964-.154.326-.38.556-.675.69-.298.134-.6.134-.907 0-.977-.441-1.87-.853-2.675-1.237-.805-.383-1.658-.805-2.558-1.265-1.017-.518-1.732-.968-2.143-1.352-.413-.383-.658-.748-.734-1.092h-.028c-.096.383-.345.767-.748 1.15-.403.383-1.113.834-2.128 1.35-.92.46-1.783.884-2.588 1.267-.805.383-1.688.796-2.647 1.236-.325.135-.636.13-.934-.014-.297-.144-.523-.378-.676-.705-.172-.325-.226-.651-.158-.977.067-.326.263-.566.59-.72.9-.402 1.763-.8 2.587-1.192.825-.394 1.726-.84 2.704-1.338.499-.25.91-.498 1.237-.748.326-.248.585-.517.776-.805.192-.288.326-.604.403-.95.076-.344.115-.747.115-1.207v-.345h-6.644c-.364 0-.628-.12-.791-.36-.162-.24-.244-.521-.244-.848 0-.345.082-.637.244-.877.163-.24.427-.36.79-.36h16.222c.363 0 .627.12.79.36m2.934 13.848c.162.249.245.536.245.862 0 .327-.083.609-.245.849-.163.239-.417.359-.762.359h-9.635v8.082c0 .42-.143.728-.431.919-.288.192-.624.288-1.006.288-.384 0-.72-.096-1.007-.288-.287-.191-.431-.498-.431-.92v-8.081h-9.635c-.344 0-.598-.12-.761-.36-.163-.24-.245-.521-.245-.848 0-.326.082-.613.245-.862.163-.25.417-.375.76-.375h22.146c.345 0 .599.125.762.375M324.086 261.29c.346 0 .656.09.935.273.278.182.417.465.417.849v22.604c0 .383-.14.666-.417.848-.28.182-.59.273-.935.273-.326 0-.628-.091-.905-.273-.28-.182-.418-.465-.418-.848v-22.604c0-.384.139-.667.418-.85.277-.181.579-.272.905-.272m-5.147.288c.325 0 .627.09.905.273.278.182.417.464.417.848v21.109c0 .383-.14.666-.417.848-.278.182-.58.273-.905.273-.346 0-.658-.091-.935-.273-.278-.182-.418-.465-.418-.848V271.47h-2.875c-.346 0-.6-.12-.762-.36-.164-.24-.245-.531-.245-.876s.08-.637.245-.878c.162-.24.416-.36.762-.36h2.875V262.7c0-.384.14-.666.418-.848.277-.183.589-.273.935-.273m-9.462 1.236c.383 0 .718.096 1.006.288.288.19.432.499.432.92v4.4c0 .614.028 1.16.086 1.639.057.479.158.935.302 1.366.143.43.325.844.546 1.237.22.393.504.79.848 1.193.498.614.993 1.189 1.482 1.726l1.308 1.438c.249.269.355.58.317.935-.04.355-.193.646-.46.876-.231.212-.52.327-.863.346-.345.019-.653-.106-.92-.374-.288-.306-.638-.69-1.05-1.151-.412-.46-.84-.95-1.28-1.467-.652-.766-1.088-1.355-1.31-1.768-.22-.412-.357-.772-.415-1.078h-.03c-.057.325-.196.704-.416 1.136-.221.43-.658 1.04-1.31 1.826l-1.336 1.509c-.451.509-.906 1.002-1.366 1.48-.27.27-.585.39-.95.36-.364-.028-.652-.147-.862-.36-.27-.267-.421-.578-.46-.933-.04-.355.077-.666.345-.935.556-.594 1.098-1.183 1.625-1.768.528-.585 1.04-1.184 1.538-1.798.326-.402.605-.8.834-1.193.23-.393.412-.806.547-1.237.134-.431.23-.887.288-1.366.057-.48.085-1.025.085-1.64v-4.4c0-.42.149-.728.446-.92.297-.191.628-.287.993-.287M343.64 264.74c-1.034 0-1.926.111-2.673.331-.748.22-1.366.527-1.854.92-.49.393-.85.858-1.08 1.395-.23.537-.345 1.122-.345 1.754 0 .633.115 1.218.346 1.754.23.537.589 1.002 1.079 1.395.488.393 1.106.7 1.853.921.748.22 1.64.33 2.674.33 1.036 0 1.928-.11 2.675-.33.748-.22 1.367-.528 1.856-.92.49-.394.848-.859 1.077-1.396.231-.536.346-1.12.346-1.754 0-.632-.115-1.217-.346-1.754-.23-.537-.587-1.002-1.077-1.395s-1.108-.7-1.856-.92c-.747-.22-1.639-.33-2.675-.33m0-2.445c1.382 0 2.623.153 3.726.46 1.101.307 2.031.753 2.79 1.337.755.585 1.337 1.304 1.74 2.157.401.853.602 1.817.602 2.89 0 2.167-.78 3.85-2.342 5.047-1.565 1.2-3.736 1.798-6.516 1.798-2.779 0-4.945-.599-6.498-1.798-1.553-1.198-2.33-2.88-2.33-5.047 0-1.073.202-2.037.604-2.89.404-.853.983-1.572 1.74-2.157.757-.584 1.683-1.03 2.776-1.337 1.092-.307 2.328-.46 3.708-.46m-4.428 14.264c.384 0 .72.096 1.007.287.288.192.432.49.432.892v3.48h5.98v-3.48c0-.402.146-.7.433-.892.287-.19.623-.287 1.006-.287.382 0 .719.096 1.007.287.288.192.43.49.43.892v3.48h5.205c.346 0 .6.115.764.345.161.23.245.508.245.834 0 .326-.084.613-.245.863-.163.25-.418.374-.764.374H332.57c-.346 0-.6-.125-.762-.374-.163-.25-.245-.537-.245-.863 0-.326.082-.604.245-.834.161-.23.416-.345.762-.345h5.204v-3.48c0-.402.144-.7.431-.892.288-.19.624-.287 1.007-.287" transform="translate(-44 -652) translate(45 653) translate(237)"/>
                    <path fill="#060101" d="M362.765 280.817c.557 0 1.022.181 1.396.546.373.365.56.825.56 1.38 0 .557-.188 1.022-.56 1.394-.375.375-.84.562-1.396.562-.556 0-1.017-.187-1.38-.562-.364-.373-.546-.837-.546-1.394 0-.555.182-1.015.546-1.38.363-.365.824-.546 1.38-.546" transform="translate(-44 -652) translate(45 653) translate(237)"/>
                    <path stroke="#060101" stroke-width="2" d="M364.717 322.057h22.537c12.028 0 21.87-9.842 21.87-21.871V273.96M106.876 273.96v26.226c0 12.029 9.843 21.871 21.872 21.871h22.536M409.124 133.571v-26.226c0-12.029-9.842-21.87-21.87-21.87h-22.537M151.284 85.475h-22.536c-12.029 0-21.872 9.842-21.872 21.87v26.227" transform="translate(-44 -652) translate(45 653) translate(237)"/>
                </g>
                <g transform="translate(-44 -652) translate(45 653) rotate(-20 775.446 136.732)">
                    <rect width="330" height="200" fill="#FFDB2F" stroke="#060101" rx="8"/>
                    <g transform="translate(20 20)">
                        <g transform="translate(0 8.867)">
                            <mask id="b7lkqzxffb" fill="#fff">
                                <use xlink:href="#yyrb6l3yia"/>
                            </mask>
                            <path fill="#0D0803" d="M2.252 6.254c-.449-.242-.812-.594-1.073-1.038-.262-.442-.39-.922-.39-1.429 0-.771.286-1.439.85-1.979.565-.538 1.285-.813 2.138-.813 1.05 0 1.887.397 2.503 1.177.06-.04.53-.326.612-.38-.198-.307-.433-.574-.71-.777-.286-.22-.648-.397-1.065-.534C4.695.348 4.262.278 3.81.278c-.712 0-1.37.159-1.946.47-.577.31-1.035.751-1.368 1.299C.168 2.603 0 3.21 0 3.855c0 .963.36 1.786 1.063 2.454.706.67 1.608 1.006 2.676 1.006.7 0 1.332-.13 1.88-.398.525-.252.953-.616 1.273-1.07-.082-.06-.552-.355-.612-.397-.649.773-1.49 1.173-2.496 1.173-.562 0-1.08-.124-1.532-.369" mask="url(#b7lkqzxffb)"/>
                        </g>
                        <path fill="#0D0803" d="M18.066 10.515c.065-.062.421-.432.492-.505-.616-.568-1.233-.865-1.835-.865-.535 0-.974.169-1.318.497-.345.332-.527.755-.527 1.249 0 .381.116.73.333 1.023.213.302.632.608 1.255.917.59.302.962.544 1.132.743.171.205.264.444.264.706 0 .32-.131.6-.394.833-.262.238-.579.352-.95.352-.509 0-.993-.249-1.44-.732-.068.072-.427.478-.485.543.226.275.507.498.847.656.35.167.728.25 1.118.25.578 0 1.062-.188 1.455-.564.384-.374.58-.839.58-1.376 0-.382-.114-.733-.34-1.034-.23-.304-.683-.631-1.329-.962-.554-.285-.91-.52-1.09-.73-.175-.212-.261-.435-.261-.667 0-.267.105-.502.32-.698.217-.198.482-.296.783-.296.452 0 .922.228 1.39.66M24 9.526c-.386-.252-.84-.38-1.343-.38-.49 0-.955.114-1.375.343-.422.222-.814.569-1.17 1.031l-.101.133V6.697h-.775v9.309h.775v-2.433c0-.915.04-1.525.128-1.864.134-.526.424-.976.859-1.33.432-.355.93-.537 1.477-.537.487 0 .88.117 1.182.351.299.237.505.587.618 1.049.069.269.096.784.096 1.577v3.187h.78v-3.442c0-.914-.1-1.597-.283-2.022-.19-.422-.477-.767-.867-1.016M7.8 12.678c0-1.54 1.269-2.787 2.837-2.787 1.564 0 2.837 1.247 2.837 2.787 0 1.545-1.273 2.792-2.837 2.792-1.568 0-2.837-1.247-2.837-2.792m-.746 0c0 1.948 1.606 3.525 3.583 3.525 1.978 0 3.578-1.577 3.578-3.525 0-1.946-1.6-3.525-3.578-3.525-1.977 0-3.583 1.58-3.583 3.525"/>
                        <mask id="1gonw36hsd" fill="#fff">
                            <use xlink:href="#50d25o8o5c"/>
                        </mask>
                        <path fill="#0D0803" d="M13.475 15.987L14.234 15.987 14.234 9.314 13.475 9.314zM30.901 15.445c-1.583 0-2.867-1.26-2.867-2.816 0-1.56 1.284-2.824 2.867-2.824 1.579 0 2.866 1.263 2.866 2.824 0 1.555-1.287 2.816-2.866 2.816m0-6.377c-1.996 0-3.619 1.59-3.619 3.556 0 1.963 1.623 3.558 3.62 3.558 1.998 0 3.61-1.595 3.61-3.558 0-1.966-1.612-3.556-3.61-3.556" mask="url(#1gonw36hsd)"/>
                        <path fill="#0D0803" d="M28.035 12.723L27.264 12.723 27.264 6.572 28.031 6.572zM35.95 11.882c.186-.628.456-1.108.82-1.421.492-.438 1.085-.659 1.772-.659.416 0 .812.095 1.19.262.38.176.68.402.915.688.226.283.405.66.523 1.13h-5.22zm2.579-2.863c-1.136 0-2.056.429-2.732 1.278-.533.673-.804 1.45-.804 2.302 0 .912.316 1.74.951 2.462.63.722 1.517 1.08 2.638 1.08.5 0 .966-.073 1.362-.226.394-.147.762-.371 1.08-.661.311-.279.586-.65.819-1.097-.085-.047-.575-.296-.65-.337-.267.428-.519.745-.75.945-.24.208-.538.37-.88.494-.343.124-.698.187-1.06.187-.756 0-1.395-.264-1.91-.787-.508-.52-.774-1.197-.79-2.006l-.006-.062h6.3c-.022-.894-.27-1.656-.754-2.26-.698-.872-1.647-1.312-2.814-1.312zM44.28 10.463c.495-.44 1.087-.66 1.77-.66.42 0 .819.093 1.196.262.38.173.683.403.913.688.228.283.406.66.519 1.132h-5.214c.186-.633.458-1.108.816-1.422m2.8 4.797c-.348.12-.703.187-1.065.187-.751 0-1.39-.265-1.903-.788-.514-.52-.781-1.197-.802-2.004v-.063h6.303c-.02-.896-.271-1.657-.759-2.26-.695-.873-1.644-1.313-2.812-1.313-1.137 0-2.054.428-2.732 1.279-.534.669-.806 1.448-.806 2.302 0 .912.324 1.742.957 2.462.626.722 1.51 1.082 2.634 1.082.502 0 .965-.076 1.359-.23.4-.148.768-.37 1.084-.66.309-.277.583-.652.82-1.096-.09-.049-.572-.3-.652-.337-.265.428-.518.74-.748.943-.243.21-.54.371-.878.496M56.135 11.84v-.109c.06-1.911 1.65-3.429 3.597-3.429 1.996 0 3.606 1.585 3.606 3.538 0 .12-.007.233-.015.346 1.21.203 2.408.501 3.566.893.067-.4.111-.816.111-1.234 0-1.348-.384-2.608-1.044-3.68-2.04-.476-4.143-.725-6.247-.708-2.447-.02-4.887.306-7.236.936v3.018c-.008.142-.017.286-.017.434 0 .389.035.766.095 1.14 1.17-.384 2.375-.666 3.596-.851-.007-.094-.012-.195-.012-.294M56.135 0h-3.662v4.252c1.206-.277 2.427-.491 3.662-.628V0zM54.323 16.631c1.328 1.453 3.26 2.37 5.402 2.37 2.095 0 3.98-.876 5.309-2.27-3.433-1.022-7.239-1.047-10.711-.1" mask="url(#1gonw36hsd)"/>
                        <path fill="#F6A600" d="M65.956 8.161c-1.265-2.08-3.579-3.468-6.23-3.468-1.306 0-2.532.34-3.591.932v-2c-1.232.136-2.456.35-3.662.627v4.145c2.351-.633 4.792-.963 7.236-.94 2.104-.018 4.208.232 6.247.704M65.033 16.728c.946-.99 1.603-2.247 1.855-3.65-1.157-.39-2.356-.69-3.565-.891-.178 1.796-1.714 3.203-3.59 3.203-1.887 0-3.43-1.436-3.584-3.255-1.224.185-2.427.466-3.6.85.219 1.387.86 2.645 1.773 3.647 3.474-.95 7.28-.922 10.71.096" mask="url(#1gonw36hsd)"/>
                    </g>
                    <g>
                        <path fill="#13120D" d="M97.755 43.903l1.824.37c.397-10.908 3.86-20.632 10.386-29.176 6.581-8.591 8.616-13.552 6.106-14.883-3.944-1.182-7.892 2.537-11.84 11.154-3.922 8.615-6.082 19.463-6.476 32.535M114.476 47.763l.423 1.822c10.07-4.367 20.393-5.451 30.983-3.253 10.651 2.177 16.026 1.87 16.118-.92-.638-4.064-5.728-6.01-15.277-5.846-9.505.193-20.254 2.922-32.247 8.197" transform="translate(148 12)"/>
                        <g transform="translate(148 12) translate(0 68.458)">
                            <mask id="xayx8mtl5f" fill="#fff">
                                <use xlink:href="#qny6wgmu3e"/>
                            </mask>
                            <path fill="#F8AF27" d="M151.413 67.225c.243-5.553-1.522-10.24-5.298-14.064-3.746-3.923-8.442-5.945-14.078-6.045-5.45-.166-10.163 1.591-14.163 5.28-3.815 3.73-5.821 8.302-6.02 13.695-.17 5.5 1.676 10.239 5.533 14.208 3.745 3.927 8.367 6.004 13.834 6.243 5.504.005 10.304-1.856 14.408-5.562 3.816-3.68 5.747-8.263 5.784-13.755M34.101 6.645C30.415 2.686 25.795.653 20.206.566 14.778.35 10.068 2.194 6.071 6.109 2.13 9.638.108 14.138.001 19.617-.057 25.16 1.737 29.85 5.403 33.702c3.839 4.007 8.505 6.077 14.03 6.214 5.453.106 10.187-1.702 14.196-5.445 3.81-3.685 5.766-8.26 5.872-13.741.323-5.469-1.472-10.16-5.4-14.084" mask="url(#xayx8mtl5f)"/>
                        </g>
                        <path fill="#13120D" d="M69.146 127.61c-8.951-4.09-11.98-11.508-9.067-22.27l31.26 12.81c-2.785 4.718-5.8 7.964-9.09 9.727-3.927 1.875-8.3 1.781-13.103-.267M56.831 95.654c-.763.063-1.419.336-1.96.815-.647.452-1.074 1.012-1.27 1.706-6.867 18.417-2.856 30.734 12.04 36.957 7.542 3.392 14.377 3.474 20.492.208 5.67-2.867 10.544-8.68 14.635-17.44.32-.717.432-1.452.366-2.214-.004-.807-.233-1.507-.71-2.097-.447-.645-1.024-1.092-1.705-1.345l-39.618-16.3c-.775-.385-1.522-.48-2.27-.29" transform="translate(148 12)"/>
                        <path fill="#E23E40" d="M60.08 105.34c-2.915 10.762.114 18.18 9.067 22.27 4.803 2.049 9.174 2.142 13.102.266 3.29-1.762 6.304-5.01 9.09-9.726l-31.26-12.81z" transform="translate(148 12)"/>
                        <path fill="#13120D" d="M106.893 107.248c1.616-.575 2.658-1.6 3.13-3.073.572-1.44.539-2.854-.117-4.246-.662-1.5-1.759-2.564-3.267-3.163-1.473-.474-2.962-.4-4.469.199-1.449.622-2.444 1.69-2.985 3.193-.602 1.497-.553 2.885.127 4.164.773 1.544 1.864 2.599 3.268 3.16 1.47.54 2.908.463 4.313-.234M55.899 82.396c-.542 1.511-.487 2.933.184 4.271.76 1.59 1.852 2.64 3.268 3.157 1.462.536 2.93.464 4.386-.214 1.564-.594 2.592-1.624 3.131-3.07.595-1.492.536-2.948-.162-4.347-.674-1.511-1.75-2.59-3.245-3.24-1.507-.427-2.994-.364-4.488.188-1.524.713-2.547 1.798-3.074 3.255" transform="translate(148 12)"/>
                    </g>
                    <text fill="#222" font-family="NanumSquareR, NanumSquare" font-size="18" letter-spacing="-.277">
                        <tspan x="20" y="175">1234 5678 9876 1234</tspan>
                    </text>
                </g>
                <g>
                    <path fill="#FEFEFE" d="M349.055 292.656l-96.29 84.709c-9.17 8.067-23.175 7.049-31.12-2.263L6.165 122.542c-7.944-9.311-6.94-23.531 2.23-31.6l96.29-84.707c9.17-8.068 23.174-7.05 31.12 2.263l215.478 252.558c7.945 9.313 6.942 23.533-2.228 31.6" transform="translate(-44 -652) translate(45 653) translate(482 71)"/>
                    <g transform="translate(-44 -652) translate(45 653) translate(482 71)">
                        <mask id="uy0bjqlz5h" fill="#fff">
                            <use xlink:href="#wv2yw14s7g"/>
                        </mask>
                        <path fill="#060101" d="M119.086 1.577c-5.118 0-9.997 1.835-13.88 5.25L8.918 91.533C.04 99.339-.922 113.02 6.77 122.03l215.477 252.561c3.71 4.351 8.89 6.971 14.58 7.378 5.683.416 11.146-1.438 15.417-5.195l96.288-84.709c8.874-7.803 9.84-21.488 2.149-30.498L135.203 9.007c-3.71-4.35-8.886-6.968-14.577-7.374-.516-.038-1.031-.056-1.54-.056m119.285 382.02c-.55 0-1.102-.02-1.654-.058-6.121-.436-11.686-3.255-15.673-7.925L5.564 123.053c-8.242-9.66-7.208-24.33 2.31-32.704l96.288-84.706c4.59-4.037 10.504-6.029 16.575-5.583 6.118.438 11.682 3.252 15.67 7.923l215.478 252.561c8.24 9.662 7.207 24.332-2.31 32.702l-96.287 84.71c-4.173 3.668-9.417 5.64-14.917 5.64" mask="url(#uy0bjqlz5h)"/>
                    </g>
                    <path fill="#060101" d="M503.714 190.124H460.08c-30.537-1.432-50.534-5.3-50.732-5.336-20.8-7.794-40.083-4.952-40.278-4.915l-.167.024-91.53-25.462c-18.764-8.598-24.715-8.321-24.762-8.318-.425-.021-.811-.295-.848-.726-.028-.43.287-.807.72-.844.255-.003 6.207-.403 25.435 8.416l91.084 25.327c1.997-.262 20.76-2.525 40.775 4.989.07.003 19.963 3.846 50.34 5.27l43.597-.002c.435 0 .79.354.79.789 0 .434-.355.788-.79.788M248.565 390c-4.984 0-10.553-1.346-11.83-7.036-.096-.425.17-.847.596-.94.431-.116.848.173.941.595 1.74 7.74 13.694 5.8 17.312 5.023.568-.124 1.114-.3 1.675-.537l33.152-14.19c.297-.125.587-.264.868-.418 18.431-10.048 32.723-21.881 36.664-25.268.657-.567 1.404-1.051 2.28-1.48 8.497-4.128 15.077-9.628 19.103-13.517 3.438-3.314 8.466-4.016 12.518-1.755 2.822 1.58 6.006 2.574 8.182 3.128 1.217.314 2.386.37 3.478.157 8.86-1.662 26.8 6.91 30.316 8.644l.546.249c57.075 24.802 98.365-17.12 98.78-17.55.305-.31.802-.322 1.113-.02.315.298.325.797.022 1.11-.417.436-42.423 43.149-100.55 17.902l-.6-.274c-2.114-1.044-20.833-10.08-29.333-8.515-1.328.25-2.728.19-4.164-.175-2.265-.582-5.592-1.623-8.56-3.283-3.44-1.924-7.72-1.318-10.65 1.515-4.108 3.967-10.827 9.58-19.509 13.802-.75.363-1.386.776-1.942 1.253-3.97 3.415-18.37 15.335-36.935 25.457-.325.178-.663.342-1.006.486l-33.152 14.19c-.655.277-1.296.483-1.963.628-1.506.323-4.32.819-7.352.819" transform="translate(-44 -652) translate(45 653) translate(482 71)"/>
                    <path fill="#FEFEFE" d="M360.552 301.828s0 22.403 18.712 32.771" transform="translate(-44 -652) translate(45 653) translate(482 71)"/>
                    <path fill="#060101" d="M379.264 335.388c-.13 0-.263-.034-.383-.102-18.9-10.469-19.12-33.229-19.12-33.457 0-.434.355-.785.79-.788.435 0 .786.354.79.788 0 .219.232 22.067 18.306 32.084.38.209.518.69.305 1.069-.142.258-.41.406-.688.406" transform="translate(-44 -652) translate(45 653) translate(482 71)"/>
                    <path fill="#FEFEFE" d="M341.99 313.087s2.106 10.88 13.98 13.028" transform="translate(-44 -652) translate(45 653) translate(482 71)"/>
                    <path fill="#060101" d="M355.97 326.905c-.046 0-.093-.006-.142-.016-12.262-2.216-14.592-13.536-14.614-13.65-.084-.428.197-.841.623-.924.457-.074.843.197.926.622.084.422 2.17 10.38 13.35 12.407.428.077.712.486.632.915-.068.378-.4.646-.775.646" transform="translate(-44 -652) translate(45 653) translate(482 71)"/>
                    <path fill="#FEFEFE" d="M315.933 336.969s6.388 9.822 15.563 9.022" transform="translate(-44 -652) translate(45 653) translate(482 71)"/>
                    <path fill="#060101" d="M330.415 346.825c-8.904 0-14.883-9.029-15.142-9.43-.238-.362-.136-.85.232-1.087.364-.236.848-.137 1.089.231.06.094 6.219 9.449 14.834 8.666.434.004.814.286.854.718.037.43-.284.813-.72.853-.384.034-.77.048-1.147.048" transform="translate(-44 -652) translate(45 653) translate(482 71)"/>
                    <path fill="#1A479A" d="M350.207 262.003L222.434 374.408 7.188 122.125 134.963 9.719z" transform="translate(-44 -652) translate(45 653) translate(482 71)"/>
                    <path fill="#060101" d="M8.29 122.206l214.223 251.082 126.593-111.367L134.882 10.84 8.29 122.206zM222.354 375.53l-.522-.61L6.088 122.046l.58-.51L135.043 8.596l.52.61 215.748 252.874-.581.511L222.353 375.53z" transform="translate(-44 -652) translate(45 653) translate(482 71)"/>
                    <path fill="#FEFEFE" d="M367.6 205.627s-3.45 10.087 4.416 22.924" transform="translate(-44 -652) translate(45 653) translate(482 71)"/>
                    <path fill="#060101" d="M372.017 229.34c-.266 0-.524-.137-.673-.38-7.97-13-4.636-23.16-4.49-23.587.14-.41.592-.629 1-.49.413.14.632.588.493.998-.034.098-3.219 9.921 4.343 22.26.228.37.111.853-.263 1.081-.126.077-.268.117-.41.117" transform="translate(-44 -652) translate(45 653) translate(482 71)"/>
                    <path fill="#FEFEFE" d="M507.212 279.191s-46.904 22.83-74.81 23.271c-5.884.093-11.723-.982-17.307-2.875-10.197-3.458-37.722-11.108-58.05-1.194-18.386 8.968-30.89 16.913-36.395 20.62-2.535 1.707-5.187 3.197-7.97 4.444-9.002 4.036-28.352 11.916-37.191 9.422-4.01-1.13-16.55-2.38-16.59-21.605-.013-6.609 11.207-14.874 11.207-14.874s29.23-19.523 38.436-27.722c2.875-2.56 6.068-6.098 9.413-7.98l44.25-23.626s15.304-8.05 19.129-28.735" transform="translate(-44 -652) translate(45 653) translate(482 71)"/>
                    <path fill="#060101" d="M279.504 334.144c-1.564 0-2.99-.16-4.231-.508-.331-.092-.72-.188-1.155-.292-4.781-1.152-15.97-3.85-16.01-22.067-.011-6.928 11.06-15.162 11.529-15.51.32-.216 29.32-19.606 38.38-27.678.78-.693 1.583-1.46 2.407-2.244 2.275-2.171 4.627-4.416 7.145-5.832l44.263-23.635c.154-.083 15.019-8.144 18.726-28.181.074-.428.487-.715.917-.632.428.078.713.49.633.915-3.85 20.819-19.377 29.204-19.535 29.288l-44.245 23.624c-2.33 1.312-4.61 3.486-6.814 5.589-.836.8-1.655 1.58-2.448 2.285-9.14 8.142-38.23 27.594-38.522 27.788-.077.06-10.867 8.086-10.854 14.22.033 16.979 10.005 19.384 14.798 20.539.457.11.868.209 1.213.308 8.696 2.45 28.534-5.743 36.656-9.383 2.688-1.204 5.33-2.676 7.85-4.38 5.807-3.903 18.27-11.786 36.492-20.673 20.446-9.971 47.828-2.513 58.65 1.158 5.808 1.968 11.543 2.956 17.043 2.833 27.408-.434 74.004-22.966 74.472-23.194.39-.175.865-.027 1.056.364.19.39.028.862-.364 1.053-.47.227-47.38 22.91-75.14 23.353-5.676.062-11.593-.893-17.574-2.92-10.64-3.608-37.525-10.952-57.451-1.23-18.136 8.843-30.53 16.68-36.3 20.563-2.596 1.752-5.317 3.268-8.086 4.508-8.847 3.967-23.834 9.968-33.501 9.97" transform="translate(-44 -652) translate(45 653) translate(482 71)"/>
                    <path fill="#FEFEFE" d="M138.749 277.94s-10.36 5.034-10.104 16.596c0 0 2.785 14.3 16.109 15.077 0 0 9.997 1.33 17.907-3.647" transform="translate(-44 -652) translate(45 653) translate(482 71)"/>
                    <path fill="#060101" d="M147.94 310.572c-1.9 0-3.147-.157-3.29-.178-13.719-.798-16.75-15.56-16.78-15.708-.279-12.06 10.425-17.401 10.533-17.454.39-.178.864-.027 1.056.363.188.392.028.863-.365 1.054-.098.046-9.904 4.97-9.66 15.868.093.428 2.821 13.579 15.367 14.312.155.022 9.874 1.235 17.44-3.526.366-.231.857-.12 1.086.247.231.366.123.853-.247 1.084-5.316 3.344-11.454 3.938-15.14 3.938" transform="translate(-44 -652) translate(45 653) translate(482 71)"/>
                    <path fill="#FEFEFE" d="M192.295 340.7s-.69 9.35 5.065 16.466c0 0 5.36 6.288 12.945 4.642" transform="translate(-44 -652) translate(45 653) translate(482 71)"/>
                    <path fill="#060101" d="M207.738 362.874c-6.464 0-10.775-4.96-10.979-5.198-5.895-7.292-5.278-16.64-5.25-17.035.034-.43.339-.748.845-.726.433.03.76.41.729.843-.006.09-.592 9.134 4.892 15.911.04.046 5.139 5.9 12.163 4.37.417-.09.85.178.939.603.093.425-.179.844-.605.936-.948.203-1.861.296-2.734.296" transform="translate(-44 -652) translate(45 653) translate(482 71)"/>
                    <path fill="#FEFEFE" d="M317.955 260.698s-11.01 15.034 3.39 32.006" transform="translate(-44 -652) translate(45 653) translate(482 71)"/>
                    <path fill="#060101" d="M321.343 293.494c-.222 0-.447-.096-.602-.28-14.629-17.248-3.537-32.823-3.422-32.98.255-.348.75-.434 1.098-.169.352.255.43.745.176 1.099-.435.594-10.457 14.753 3.353 31.034.28.332.24.828-.093 1.108-.149.126-.33.188-.51.188" transform="translate(-44 -652) translate(45 653) translate(482 71)"/>
                    <path fill="#FEFEFE" d="M324.19 271.785s-.328 6.041 7.007 14.812" transform="translate(-44 -652) translate(45 653) translate(482 71)"/>
                    <path fill="#060101" d="M331.196 287.385c-.226 0-.451-.1-.605-.283-7.448-8.906-7.204-15.101-7.189-15.36.023-.431.315-.724.827-.742.433.02.769.39.747.825-.003.056-.178 5.89 6.824 14.267.282.335.235.83-.098 1.108-.149.123-.327.185-.506.185" transform="translate(-44 -652) translate(45 653) translate(482 71)"/>
                    <path fill="#FEFEFE" d="M285.172 294.278s-.104 12.024 5.895 20.42c5.997 8.393-12.341 12.78-12.341 12.78s-5.908 1.793-10.814-2.842c-3.012-2.846-4.596-6.995-4.388-11.168.173-3.469 1.466-8.013 5.98-12.217 0 0 14.432-11.729 15.668-6.973" transform="translate(-44 -652) translate(45 653) translate(482 71)"/>
                    <path fill="#060101" d="M283.498 293.919c-2.701 0-9.547 4.733-13.497 7.94-3.537 3.303-5.466 7.232-5.691 11.65-.198 3.973 1.35 7.918 4.144 10.554 4.497 4.246 9.818 2.73 10.044 2.66.154-.037 10.96-2.676 12.747-7.446.49-1.312.222-2.66-.821-4.123-5.827-8.154-6.037-19.41-6.043-20.764-.09-.268-.238-.351-.386-.4-.145-.046-.311-.071-.497-.071m-7.59 34.698c-2.303 0-5.577-.613-8.54-3.41-3.12-2.95-4.851-7.35-4.633-11.777.167-3.33 1.386-8.24 6.232-12.755 1.975-1.608 11.824-9.38 15.52-8.182.74.243 1.24.792 1.447 1.589l.027.204c-.003.116-.025 11.873 5.747 19.957 1.354 1.893 1.694 3.772 1.016 5.586-2.084 5.55-13.337 8.298-13.813 8.415-.092.028-1.274.373-3.003.373" transform="translate(-44 -652) translate(45 653) translate(482 71)"/>
                </g>
            </g>
        </g>
    </g>
</svg>
