<svg xmlns="http://www.w3.org/2000/svg" xmlns:xlink="http://www.w3.org/1999/xlink" width="573" height="153" viewBox="0 0 573 153">
    <defs>
        <path id="cvzkfs96va" d="M0 151L572.25 151 572.25 0.875 0 0.875z"/>
    </defs>
    <g fill="none" fill-rule="evenodd">
        <g>
            <g>
                <path fill="#182129" d="M98.626 132.435L489.696 132.435 489.696 83.819 98.626 83.819z" transform="translate(-254 -484) translate(254 484)"/>
                <g transform="translate(-254 -484) translate(254 484) translate(0 .125)">
                    <path fill="#182129" d="M552.558 66.433c0 1.282-4.034 2.318-9.001 2.318H25.516c-4.976 0-9-1.036-9-2.318V12.628c0-1.279 4.024-2.318 9-2.318h518.041c4.967 0 9.001 1.04 9.001 2.318v53.805z"/>
                    <mask id="ypmqa7wsob" fill="#fff">
                        <use xlink:href="#cvzkfs96va"/>
                    </mask>
                    <path fill="#E84921" d="M15.369 87.964L36.87 87.964 36.87 59.071 15.369 59.071zM36.87 87.964L76.194 87.964 76.194 59.071 36.87 59.071zM76.194 87.964L118.384 87.964 118.384 59.071 76.194 59.071zM118.384 87.964L202 87.964 202 59.071 118.384 59.071z" mask="url(#ypmqa7wsob)"/>
                    <path fill="#E84921" d="M118.384 87.963v46.718h8.601v-11.283c0-15.38 12.568-27.85 28.071-27.85 15.503 0 28.071 12.47 28.071 27.85v11.282H202V87.963h-83.616zM76.194 134.68L58.801 134.68 15.369 128.044 15.369 87.963 76.194 87.963zM76.194 134.68L118.384 134.68 118.384 87.963 76.194 87.963z" mask="url(#ypmqa7wsob)"/>
                    <path fill="#999" d="M76.194 134.68h50.79v-11.282c0-15.38 12.569-27.85 28.072-27.85 1.84 0 3.637.177 5.378.513l37.284-36.99H15.368v68.973l43.433 6.636h17.393z" mask="url(#ypmqa7wsob)"/>
                    <path fill="#FFF" d="M202 134.68L282.081 134.68 282.081 87.963 202 87.963zM282.081 134.68L316.292 134.68 316.292 87.963 282.081 87.963z" mask="url(#ypmqa7wsob)"/>
                    <path fill="#FFF" d="M202 87.964L316.292 87.964 316.292 59.071 202 59.071z" mask="url(#ypmqa7wsob)"/>
                    <path fill="#0050A3" d="M277.303 75.045l-.05-.14-6.287-8.908V59.07h-73.248l-37.284 36.99c12.931 2.49 22.693 13.78 22.693 27.338v11.282h46.634l47.542-47.167v-12.47z" mask="url(#ypmqa7wsob)"/>
                    <path fill="#FEFEFE" d="M233.047 80.987l-.778.77h-8.75l-.78-.77v-1.692l.78-.768h8.75l.778.768v1.692zm-10.813-5.329l-2.513 2.482v4.003l2.513 2.482h11.317l2.514-2.482V78.14l-2.514-2.482h-11.317zM214.063 80.987l-.778.77h-8.752l-.78-.77v-1.692l.78-.768h8.752l.778.768v1.692zm-10.813-5.329l-2.514 2.482v4.003l2.514 2.482h11.317l2.514-2.482V78.14l-2.514-2.482H203.25zM235.686 68.41L235.687 68.41 235.687 62.171 219.847 62.171 219.847 65.04 232.669 65.04 232.669 68.426 232.019 71.028 227.693 71.028 227.693 67.285 224.676 67.285 224.675 71.028 219.72 71.028 219.72 73.897 236.065 73.897 236.065 71.028 235.033 71.028zM216.702 68.41L216.703 68.41 216.703 62.171 200.862 62.171 200.862 65.04 213.685 65.04 213.685 68.426 213.035 71.028 208.709 71.028 208.709 67.285 205.691 67.285 205.691 71.028 200.736 71.028 200.736 73.897 217.081 73.897 217.081 71.028 216.048 71.028zM257.816 84.27L274.286 84.27 274.286 81.338 257.816 81.338zM267.591 67.052L267.591 62.065 264.51 62.065 264.51 67.052 257.816 76.537 257.816 77.038 261.14 77.038 266.051 70.079 270.962 77.038 274.286 77.038 274.286 76.537zM246.658 71.971v9.43h-4.714V71.277h4.714v.693zm5.783-.944h-2.797V62.31h-2.986v6.1h-4.714v-6.1h-2.986v21.96h10.686V73.896h2.797V84.52h2.987V62.064h-2.987v8.963z" mask="url(#ypmqa7wsob)"/>
                    <path fill="#E84921" d="M560.866 89.96c-.221-1.984-.458-4.068-.698-6.141-.895-7.741-1.83-15.318-2.105-16.951-.57-3.39-6.868-36.527-8.543-41.624-2.5-7.611 1.225-10.63 3.684-11.756-1.137-2.668-2.627-5.277-4.633-7.267C544.015 1.7 523.51 1 523.51 1H15.37v58.07h3.17l4.204-42.632c.2-2.035 1.925-3.587 3.986-3.587H526.55s14.237-.038 16.895 9.379c.499 1.768 1.132 4.513 1.83 7.805 1.332 6.27 2.903 14.528 4.244 21.805 1.704 9.246 3.038 16.91 3.038 16.91s1.708 13.938 1.708 17.517v1.627c1.533.313 3.936.927 6.6 2.066M1.359 109.265L4.428 109.265 4.428 93.094 1.359 93.094zM5.745 38.752c-.585-.066-1.646-.184-2.788-.305-.975 12.248-1.55 22.77-1.55 22.77h1.28v5.463h1.741s.494-15.415 1.317-27.928" mask="url(#ypmqa7wsob)"/>
                    <path fill="#E84921" d="M4.428 75.861L4.428 66.679 2.688 66.679 1.359 66.679 1.359 93.094 4.428 93.094zM12.402 1C7.782 1 6.96 5.091 6.96 5.091c-.367 1.538-.721 3.45-1.062 5.63.216.05.434.103.654.161 2.686.707 1.64 5.368.217 16.245-.38 2.902-.723 7.071-1.023 11.624.299.034.299.034 0 0C4.922 51.264 4.428 66.68 4.428 66.68v9.182h2.279s4.367.295 4.367 4.333v24.74h4.295V1h-2.967z" mask="url(#ypmqa7wsob)"/>
                    <path fill="#E84921" d="M6.706 109.266H.125v10.216c0 5.716 2.848 6.526 2.848 6.526l12.395 2.036v-23.111h-4.295c0 4.038-4.367 4.333-4.367 4.333" mask="url(#ypmqa7wsob)"/>
                    <path fill="#FEFEFE" d="M413.718 87.964L480.516 87.964 480.516 59.071 413.718 59.071zM560.866 89.96c3.314 1.418 7.03 3.647 9.976 7.117-.384-4.104-.882-8.553-1.527-13.258h-9.147c.24 2.073.477 4.157.698 6.142" mask="url(#ypmqa7wsob)"/>
                    <path fill="#FEFEFE" d="M560.866 89.96c.425 3.832.79 7.294.999 9.59 3.354 1.57 6.989 3.978 9.759 7.645-.186-3.053-.44-6.448-.782-10.118-2.945-3.47-6.662-5.7-9.976-7.116" mask="url(#ypmqa7wsob)"/>
                    <path fill="#FEFEFE" d="M554.266 87.894v9.142c1.722.353 4.543 1.086 7.599 2.515-.208-2.297-.575-5.76-.999-9.59-2.664-1.139-5.068-1.754-6.6-2.067" mask="url(#ypmqa7wsob)"/>
                    <path fill="#FEFEFE" d="M562.05 118.552v-16.368c0-.41-.068-1.336-.186-2.633-3.055-1.43-5.876-2.163-7.598-2.515v33.984c5.113-.453 9.114-.835 10.821-1.057 7.214-.942 7.025-5.99 7.025-5.99s.023-1.075.008-3.05h-7.68c-1.32 0-2.39-1.062-2.39-2.37M552.558 68.751s-1.334-7.665-3.038-16.91v76.568h-39.81v6.271s28.065-2.2 44.556-3.66V86.267c0-3.578-1.708-17.516-1.708-17.516M362.162 134.68L413.718 134.68 413.718 87.963 362.162 87.963zM480.516 134.68L509.71 134.68 509.71 87.963 480.516 87.963zM316.292 87.964L362.162 87.964 362.162 59.071 316.292 59.071z" mask="url(#ypmqa7wsob)"/>
                    <path fill="#FEFEFE" d="M362.162 87.964L413.718 87.964 413.718 59.071 362.162 59.071zM480.516 87.964L509.71 87.964 509.71 59.071 480.516 59.071zM316.292 134.68L362.162 134.68 362.162 87.963 316.292 87.963z" mask="url(#ypmqa7wsob)"/>
                    <path fill="#182129" d="M509.711 128.409L529.616 128.409 529.616 30.035 509.711 30.035zM549.52 25.244c1.675 5.097 7.974 38.234 8.543 41.624.274 1.633 1.21 9.209 2.104 16.95h9.148c-.018-.125-.034-.25-.051-.376-3.227-23.354-11.96-56.315-13.1-60.647-.637-2.425-1.513-5.913-2.96-9.307-2.46 1.127-6.183 4.145-3.684 11.756M529.616 30.035v98.374h19.904V51.841c-1.341-7.278-2.912-15.535-4.243-21.806h-15.661z" mask="url(#ypmqa7wsob)"/>
                    <path fill="#182129" d="M545.277 30.035c-.7-3.292-1.332-6.037-1.831-7.805-2.658-9.417-16.896-9.379-16.896-9.379h-16.84v17.184h35.566zM246.92 118.8h-9.757c-.525 0-.95-.426-.95-.952v-5.23c0-.526.425-.952.951-.952h9.754c.526 0 .952.426.952.952v5.23c0 .526-.426.952-.95.952M327 118.8h-9.756c-.525 0-.952-.426-.952-.952v-5.23c0-.526.427-.952.952-.952H327c.525 0 .952.426.952.952v5.23c0 .526-.427.952-.952.952M6.769 27.127C8.193 16.25 9.238 11.59 6.552 10.882c-.22-.058-.438-.11-.654-.162-1.17 7.484-2.18 18.134-2.942 27.727 1.144.12 2.204.24 2.79.305.299-4.554.643-8.723 1.023-11.625" mask="url(#ypmqa7wsob)"/>
                    <path fill="#F7B62D" d="M561.865 99.55c.117 1.299.186 2.225.186 2.635v16.367c0 1.309 1.069 2.37 2.388 2.37h7.682c-.022-2.86-.124-7.61-.497-13.727-2.77-3.667-6.405-6.075-9.76-7.644" mask="url(#ypmqa7wsob)"/>
                    <path fill="#231916" d="M180.327 126.135c0 13.733-11.221 24.865-25.061 24.865-13.841 0-25.062-11.132-25.062-24.865 0-13.73 11.22-24.862 25.062-24.862 13.84 0 25.06 11.131 25.06 24.862" mask="url(#ypmqa7wsob)"/>
                    <path fill="#9F9FA0" d="M139.265 126.787c-.364-8.77 6.51-16.169 15.35-16.523 8.834-.355 16.29 6.46 16.651 15.23.358 8.768-6.516 16.16-15.351 16.514-8.837.361-16.291-6.454-16.65-15.22" mask="url(#ypmqa7wsob)"/>
                    <path fill="#595757" d="M141.456 126.703c-.309-7.572 5.616-13.957 13.246-14.268 7.624-.302 14.062 5.58 14.371 13.154.31 7.56-5.625 13.939-13.248 14.247-7.63.304-14.058-5.571-14.369-13.133" mask="url(#ypmqa7wsob)"/>
                    <path fill="#888889" d="M154.753 113.597c6.977-.28 12.862 5.107 13.146 12.04.285 6.92-5.14 12.755-12.116 13.04-6.98.278-12.876-5.1-13.156-12.024-.286-6.925 5.147-12.773 12.126-13.056" mask="url(#ypmqa7wsob)"/>
                    <path fill="#231916" d="M154.99 119.184c3.868-.156 7.125 2.834 7.285 6.654.154 3.841-2.84 7.096-6.72 7.251-3.863.157-7.14-2.847-7.3-6.687-.154-3.816 2.863-7.054 6.735-7.218M156.97 112.257c0 .621-.635.984-1.82.984-1.186 0-1.82-.363-1.82-.984 0-.622.634-.986 1.82-.986 1.185 0 1.82.364 1.82.986M153.56 140.017c0-.62.636-.986 1.82-.986 1.185 0 1.82.367 1.82.986 0 .62-.635.987-1.82.987-1.184 0-1.82-.366-1.82-.987M141.275 124.446c.625 0 .993.629.993 1.806 0 1.176-.368 1.804-.993 1.804-.626 0-.994-.628-.994-1.804 0-1.177.368-1.806.994-1.806M169.255 127.829c-.625 0-.992-.628-.992-1.806 0-1.176.367-1.805.992-1.805.626 0 .994.629.994 1.805 0 1.178-.368 1.806-.994 1.806M149.909 113.205c.306.54-.07 1.164-1.103 1.74-1.035.577-1.767.566-2.073.027-.304-.545.068-1.17 1.1-1.744 1.037-.577 1.768-.567 2.076-.023M160.621 139.07c-.306-.54.066-1.166 1.102-1.741 1.034-.576 1.766-.565 2.075-.026.304.542-.069 1.169-1.103 1.74-1.034.579-1.768.569-2.073.027M142.229 131.452c.546-.303 1.176.067 1.756 1.092.582 1.026.569 1.757.026 2.058-.547.303-1.178-.067-1.758-1.094-.58-1.025-.57-1.752-.024-2.056M168.3 120.823c-.543.302-1.175-.068-1.755-1.094-.58-1.026-.569-1.754-.024-2.056.545-.304 1.177.069 1.757 1.094.58 1.024.57 1.75.022 2.056M144.214 117.456c.535.324.518 1.051-.1 2.054-.617 1.005-1.265 1.351-1.797 1.027-.534-.322-.519-1.05.102-2.055.618-1.003 1.261-1.349 1.795-1.026M166.314 134.817c-.534-.323-.517-1.05.102-2.055.619-1.005 1.262-1.351 1.796-1.025.534.32.518 1.049-.103 2.053-.617 1.004-1.261 1.35-1.795 1.028M146.516 137.099c.326-.53 1.061-.514 2.071.102 1.013.61 1.362 1.253 1.035 1.78-.327.532-1.058.516-2.072-.1-1.01-.612-1.361-1.252-1.034-1.782M164.014 115.175c-.324.529-1.06.513-2.07-.102-1.013-.611-1.362-1.254-1.034-1.781.323-.53 1.057-.514 2.07.1 1.011.614 1.36 1.25 1.034 1.783" mask="url(#ypmqa7wsob)"/>
                    <path stroke="#231916" stroke-width=".25" d="M139.265 126.787c-.364-8.77 6.51-16.169 15.35-16.523 8.834-.355 16.29 6.46 16.651 15.23.358 8.768-6.516 16.16-15.351 16.514-8.837.361-16.291-6.454-16.65-15.22z" mask="url(#ypmqa7wsob)"/>
                    <path stroke="#231916" stroke-width=".25" d="M141.456 126.703c-.309-7.572 5.616-13.957 13.246-14.268 7.624-.302 14.062 5.58 14.371 13.154.31 7.56-5.625 13.939-13.248 14.247-7.63.304-14.058-5.571-14.369-13.133z" mask="url(#ypmqa7wsob)"/>
                    <path stroke="#231916" stroke-width=".25" d="M154.753 113.597c6.977-.28 12.862 5.107 13.146 12.04.285 6.92-5.14 12.755-12.116 13.04-6.98.278-12.876-5.1-13.156-12.024-.286-6.925 5.147-12.773 12.126-13.056z" mask="url(#ypmqa7wsob)"/>
                    <path stroke="#231916" stroke-width=".25" d="M154.99 119.184c3.868-.156 7.125 2.834 7.285 6.654.154 3.841-2.84 7.096-6.72 7.251-3.863.157-7.14-2.847-7.3-6.687-.154-3.816 2.863-7.054 6.735-7.218z" mask="url(#ypmqa7wsob)"/>
                    <path fill="#231916" d="M472.053 126.135c0 13.733-11.22 24.865-25.06 24.865-13.842 0-25.062-11.132-25.062-24.865 0-13.73 11.22-24.862 25.061-24.862s25.061 11.131 25.061 24.862" mask="url(#ypmqa7wsob)"/>
                    <path fill="#9F9FA0" d="M430.993 126.787c-.365-8.77 6.509-16.169 15.35-16.523 8.833-.355 16.29 6.46 16.65 15.23.358 8.768-6.516 16.16-15.351 16.514-8.836.361-16.29-6.454-16.65-15.22" mask="url(#ypmqa7wsob)"/>
                    <path fill="#595757" d="M433.183 126.703c-.309-7.572 5.617-13.957 13.246-14.268 7.624-.302 14.063 5.58 14.372 13.154.31 7.56-5.626 13.939-13.249 14.247-7.63.304-14.058-5.571-14.369-13.133" mask="url(#ypmqa7wsob)"/>
                    <path fill="#888889" d="M446.48 113.597c6.978-.28 12.862 5.107 13.147 12.04.285 6.92-5.141 12.755-12.117 13.04-6.981.278-12.875-5.1-13.156-12.024-.285-6.925 5.147-12.773 12.127-13.056" mask="url(#ypmqa7wsob)"/>
                    <path fill="#231916" d="M446.717 119.184c3.868-.156 7.124 2.834 7.284 6.654.155 3.841-2.84 7.096-6.718 7.251-3.864.157-7.142-2.847-7.3-6.687-.156-3.816 2.862-7.054 6.734-7.218M448.697 112.257c0 .621-.634.984-1.821.984-1.185 0-1.82-.363-1.82-.984 0-.622.635-.986 1.82-.986 1.187 0 1.82.364 1.82.986M445.288 140.017c0-.62.635-.986 1.818-.986 1.185 0 1.822.367 1.822.986 0 .62-.637.987-1.822.987-1.183 0-1.817-.366-1.817-.987M433.001 124.446c.625 0 .993.629.993 1.806 0 1.176-.368 1.804-.993 1.804s-.994-.628-.994-1.804c0-1.177.37-1.806.994-1.806M460.983 127.829c-.626 0-.992-.628-.992-1.806 0-1.176.366-1.805.992-1.805.625 0 .993.629.993 1.805 0 1.178-.368 1.806-.993 1.806M441.635 113.205c.306.54-.068 1.164-1.103 1.74-1.034.577-1.767.566-2.073.027-.304-.545.068-1.17 1.102-1.744 1.035-.577 1.767-.567 2.074-.023M452.349 139.07c-.306-.54.066-1.166 1.101-1.741 1.035-.576 1.767-.565 2.074-.026.306.542-.068 1.169-1.102 1.74-1.035.579-1.768.569-2.073.027M433.955 131.452c.547-.303 1.176.067 1.757 1.092.581 1.026.568 1.757.025 2.058-.546.303-1.178-.067-1.757-1.094-.58-1.025-.569-1.752-.025-2.056M460.027 120.823c-.543.302-1.174-.068-1.755-1.094-.58-1.026-.57-1.754-.023-2.056.544-.304 1.176.069 1.756 1.094.579 1.024.569 1.75.022 2.056M435.94 117.456c.537.324.52 1.051-.1 2.054-.615 1.005-1.264 1.351-1.795 1.027-.534-.322-.52-1.05.1-2.055.619-1.003 1.262-1.349 1.796-1.026M458.041 134.817c-.534-.323-.517-1.05.101-2.055.62-1.005 1.263-1.351 1.797-1.025.534.32.517 1.049-.103 2.053-.618 1.004-1.26 1.35-1.795 1.028M438.243 137.099c.327-.53 1.062-.514 2.072.102 1.012.61 1.36 1.253 1.034 1.78-.326.532-1.057.516-2.071-.1-1.01-.612-1.362-1.252-1.035-1.782M455.742 115.175c-.325.529-1.061.513-2.071-.102-1.013-.611-1.361-1.254-1.033-1.781.323-.53 1.056-.514 2.069.1 1.01.614 1.36 1.25 1.035 1.783" mask="url(#ypmqa7wsob)"/>
                    <path stroke="#231916" stroke-width=".25" d="M430.993 126.787c-.365-8.77 6.509-16.169 15.35-16.523 8.833-.355 16.29 6.46 16.65 15.23.358 8.768-6.516 16.16-15.351 16.514-8.836.361-16.29-6.454-16.65-15.22z" mask="url(#ypmqa7wsob)"/>
                    <path stroke="#231916" stroke-width=".25" d="M433.183 126.703c-.309-7.572 5.617-13.957 13.246-14.268 7.624-.302 14.063 5.58 14.372 13.154.31 7.56-5.626 13.939-13.249 14.247-7.63.304-14.058-5.571-14.369-13.133z" mask="url(#ypmqa7wsob)"/>
                    <path stroke="#231916" stroke-width=".25" d="M446.48 113.597c6.978-.28 12.862 5.107 13.147 12.04.285 6.92-5.141 12.755-12.117 13.04-6.981.278-12.875-5.1-13.156-12.024-.285-6.925 5.147-12.773 12.127-13.056z" mask="url(#ypmqa7wsob)"/>
                    <path stroke="#231916" stroke-width=".25" d="M446.717 119.184c3.868-.156 7.124 2.834 7.284 6.654.155 3.841-2.84 7.096-6.718 7.251-3.864.157-7.142-2.847-7.3-6.687-.156-3.816 2.862-7.054 6.734-7.218z" mask="url(#ypmqa7wsob)"/>
                    <path fill="#FEFEFE" d="M413.718 87.963v46.718h5.328v-11.283c0-15.38 12.568-27.85 28.07-27.85 15.504 0 28.073 12.47 28.073 27.85v11.282h5.327V87.963h-66.798z" mask="url(#ypmqa7wsob)"/>
                    <path fill="#040201" d="M236.212 115.944L247.87 115.944 247.87 114.522 236.212 114.522zM316.292 115.944L327.951 115.944 327.951 114.522 316.292 114.522z" mask="url(#ypmqa7wsob)"/>
                    <path fill="#182129" d="M392.818 118.8h-9.755c-.525 0-.952-.426-.952-.952v-5.23c0-.526.427-.952.952-.952h9.755c.525 0 .952.426.952.952v5.23c0 .526-.427.952-.952.952" mask="url(#ypmqa7wsob)"/>
                    <path fill="#040201" d="M382.111 115.944L393.77 115.944 393.77 114.522 382.111 114.522z" mask="url(#ypmqa7wsob)"/>
                    <path stroke="#000" stroke-width=".25" d="M392.818 118.8h-9.755c-.525 0-.952-.426-.952-.952v-5.23c0-.526.427-.952.952-.952h9.755c.525 0 .952.426.952.952v5.23c0 .526-.427.952-.952.952zM384.5 118.8L384.5 111.666M391.38 118.8L391.38 111.666" mask="url(#ypmqa7wsob)"/>
                    <path stroke="#000" stroke-width=".25" d="M382.111 115.944L393.77 115.944 393.77 114.522 382.111 114.522z" mask="url(#ypmqa7wsob)"/>
                    <path fill="#F7B62D" d="M4.428 109.266h2.278s4.368-.295 4.368-4.333v-24.74c0-4.036-4.368-4.332-4.368-4.332H4.428v33.404z" mask="url(#ypmqa7wsob)"/>
                    <path stroke="#000" stroke-width=".25" d="M560.167 83.819L569.314 83.819M480.516 134.68L480.516 87.963M509.71 87.963L480.516 87.963 413.718 87.963 362.162 87.963 316.292 87.963 202 87.963 118.384 87.963 76.193 87.963 15.368 87.963M499.632 102.185h-12.43c-.526 0-.953-.426-.953-.952v-9c0-.525.427-.951.952-.951h12.431c.525 0 .952.426.952.952v8.999c0 .526-.427.952-.952.952zM496.822 125.868h-3.83c-.525 0-.952-.426-.952-.952v-1.888c0-.526.427-.952.952-.952h3.83c.525 0 .952.426.952.952v1.888c0 .526-.427.952-.952.952zM246.92 118.8h-9.757c-.525 0-.95-.426-.95-.952v-5.23c0-.526.425-.952.951-.952h9.754c.526 0 .952.426.952.952v5.23c0 .526-.426.952-.95.952zM238.601 118.8L238.601 111.666M245.482 118.8L245.482 111.666" mask="url(#ypmqa7wsob)"/>
                    <path stroke="#000" stroke-width=".25" d="M236.212 115.944L247.87 115.944 247.87 114.522 236.212 114.522zM33.05 84.645H19.19c-.264 0-.477-.213-.477-.476V69.501c0-.263.213-.476.476-.476h13.86c.263 0 .476.213.476.476V84.17c0 .263-.213.476-.476.476z" mask="url(#ypmqa7wsob)"/>
                    <path stroke="#000" stroke-width=".25" d="M18.713 82.27c0-.263.214-.475.478-.475h13.856c.264 0 .478.212.478.474M18.713 79.715c0-.262.214-.474.478-.474h13.856c.264 0 .478.212.478.474M18.713 77.161c0-.262.214-.474.478-.474h13.856c.264 0 .478.212.478.474M18.713 74.607c0-.262.214-.474.478-.474h13.856c.264 0 .478.212.478.474M18.713 72.053c0-.262.214-.474.478-.474h13.856c.264 0 .478.212.478.474M413.718 12.851L413.718 59.07M316.292 12.851L316.292 134.68M121.442 12.851L121.442 59.07M218.868 12.851L218.868 59.07M509.71 12.851L509.71 134.68M84.794 96.496v24.911c0 .262.214.474.478.474h21.167c.263 0 .477-.212.477-.474v-24.91c0-.263-.214-.475-.477-.475H85.272c-.264 0-.478.212-.478.474z" mask="url(#ypmqa7wsob)"/>
                    <path stroke="#000" stroke-width=".25" d="M106.916 99.05c0-.262-.214-.474-.478-.474H85.271c-.263 0-.477.212-.477.474M106.916 101.604c0-.262-.214-.474-.478-.474H85.271c-.263 0-.477.212-.477.474M106.916 104.158c0-.262-.214-.474-.478-.474H85.271c-.263 0-.477.212-.477.474M106.916 106.712c0-.262-.214-.474-.478-.474H85.271c-.263 0-.477.212-.477.474M106.916 109.266c0-.262-.214-.474-.478-.474H85.271c-.263 0-.477.212-.477.474M106.916 111.82c0-.262-.214-.474-.478-.474H85.271c-.263 0-.477.212-.477.474M106.916 114.374c0-.262-.214-.474-.478-.474H85.271c-.263 0-.477.212-.477.474M106.916 116.928c0-.262-.214-.474-.478-.474H85.271c-.263 0-.477.212-.477.474M106.916 119.482c0-.262-.214-.474-.478-.474H85.271c-.263 0-.477.212-.477.474M106.916 96.97c0-.262-.214-.474-.478-.474H85.271c-.263 0-.477.212-.477.474M106.916 99.524c0-.262-.214-.474-.478-.474H85.271c-.263 0-.477.212-.477.474M106.916 102.078c0-.262-.214-.474-.478-.474H85.271c-.263 0-.477.212-.477.474M106.916 104.632c0-.262-.214-.474-.478-.474H85.271c-.263 0-.477.212-.477.474M106.916 107.186c0-.262-.214-.474-.478-.474H85.271c-.263 0-.477.212-.477.474" mask="url(#ypmqa7wsob)"/>
                    <path stroke="#000" stroke-width=".25" d="M106.916 109.74c0-.262-.214-.474-.478-.474H85.271c-.263 0-.477.212-.477.474M106.916 112.294c0-.262-.214-.474-.478-.474H85.271c-.263 0-.477.212-.477.474M106.916 114.848c0-.262-.214-.474-.478-.474H85.271c-.263 0-.477.212-.477.474M106.916 117.401c0-.261-.214-.474-.478-.474H85.271c-.263 0-.477.212-.477.474M106.916 119.956c0-.262-.214-.474-.478-.474H85.271c-.263 0-.477.212-.477.474M327 118.8h-9.756c-.525 0-.952-.426-.952-.952v-5.23c0-.526.427-.952.952-.952H327c.525 0 .952.426.952.952v5.23c0 .526-.427.952-.952.952zM318.682 118.8L318.682 111.666M325.562 118.8L325.562 111.666" mask="url(#ypmqa7wsob)"/>
                    <path stroke="#000" stroke-width=".25" d="M316.292 115.944L327.951 115.944 327.951 114.522 316.292 114.522zM362.163 134.68L362.163 87.963M413.718 87.963L413.718 134.68M282.081 87.963L282.081 134.68M202 134.68L202 87.963M118.384 87.963L118.384 134.68M76.194 134.68L76.194 87.963M36.87 87.963L36.87 59.071M66.64 107.186H24.921c-.262 0-.475-.213-.475-.476v-9.264c0-.263.213-.476.476-.476H66.64c.263 0 .477.213.477.476v9.264c0 .263-.214.476-.477.476z" mask="url(#ypmqa7wsob)"/>
                    <path stroke="#000" stroke-width=".25" d="M24.447 99.998c0-.262.214-.474.478-.474h41.712c.264 0 .479.212.479.474M24.447 102.552c0-.262.214-.474.478-.474h41.712c.264 0 .479.212.479.474M24.447 105.106c0-.262.214-.474.478-.474h41.712c.264 0 .479.212.479.474M513.532 124.617L525.792 124.617 525.792 34.776 513.532 34.776zM533.438 34.776v89.84h12.26l.358-72.776c-1.341-7.277-2.314-10.794-3.646-17.065h-8.972zM529.616 30.035L529.616 128.409M570.841 97.076c-2.944-3.47-6.66-5.699-9.976-7.116-2.664-1.138-5.067-1.753-6.599-2.066M571.623 107.195c-2.77-3.667-6.405-6.075-9.759-7.644-3.055-1.43-5.877-2.163-7.598-2.514" mask="url(#ypmqa7wsob)"/>
                    <path stroke="#000" stroke-width=".25" d="M572.12 120.922h-7.682c-1.318 0-2.387-1.061-2.387-2.37v-16.368c0-.41-.07-1.335-.187-2.633-.207-2.297-.574-5.76-.999-9.59-.22-1.986-.457-4.07-.697-6.142-.895-7.742-1.83-15.319-2.106-16.951-.568-3.39-6.868-36.527-8.543-41.624-2.499-7.611 1.226-10.63 3.684-11.756M545.277 30.035L529.616 30.035 509.711 30.035M545.277 30.983L529.616 30.983 509.711 30.983M549.52 51.841L549.52 128.409 529.616 128.409 509.71 128.409" mask="url(#ypmqa7wsob)"/>
                    <path stroke="#000" stroke-width=".25" d="M554.266 131.02V86.267c0-3.579-1.708-17.516-1.708-17.516s-1.334-7.665-3.038-16.91c-1.341-7.278-2.912-15.535-4.243-21.806-.699-3.292-1.332-6.036-1.831-7.805-2.659-9.417-16.896-9.379-16.896-9.379h-16.84M525.792 36.672L533.438 36.672M525.792 40.464L533.438 40.464M525.792 118.928L533.438 118.928M525.792 122.72L533.438 122.72M525.792 77.326L533.438 77.326M525.792 81.118L533.438 81.118M509.71 59.07H18.54l4.203-42.632c.2-2.035 1.925-3.587 3.987-3.587H509.71M5.898 10.72c.216.05.434.104.654.163 2.686.706 1.64 5.367.217 16.244-.38 2.903-.724 7.072-1.023 11.625M4.428 66.679L4.428 75.861M5.745 38.752C4.921 51.265 4.428 66.68 4.428 66.68M6.706 75.861H4.428v33.405h2.278s4.367-.295 4.367-4.333V80.194c0-4.038-4.367-4.333-4.367-4.333zM4.428 109.266L1.359 109.266.125 109.266M15.368 104.933L11.073 104.933M4.428 93.094L1.359 93.094M5.745 38.752c-.585-.066-1.646-.184-2.788-.305M2.688 66.679L4.428 66.679M15.368 128.044L15.368 104.933 15.368 1" mask="url(#ypmqa7wsob)"/>
                    <path stroke="#000" stroke-width=".25" d="M572.125 120.922c-.025-2.86-.129-7.61-.501-13.727-.187-3.053-.44-6.448-.783-10.118-.384-4.105-.881-8.553-1.527-13.258l-.05-.377c-3.227-23.354-11.96-56.314-13.1-60.646-.637-2.425-1.514-5.915-2.96-9.308-1.137-2.668-2.627-5.277-4.633-7.267C544.014 1.7 523.513 1 523.513 1H12.401C7.782 1 6.96 5.09 6.96 5.09c-.367 1.538-.721 3.45-1.063 5.628-1.17 7.486-2.178 18.136-2.94 27.727-.975 12.248-1.55 22.772-1.55 22.772h1.28v5.462H1.36v42.586H.125v10.215c0 5.717 2.849 6.526 2.849 6.526l12.394 2.037 43.433 6.636h68.184v-11.282c0-15.38 12.569-27.85 28.072-27.85 15.502 0 28.07 12.47 28.07 27.85v11.282h235.919v-11.282c0-15.38 12.567-27.85 28.07-27.85 15.505 0 28.072 12.47 28.072 27.85v11.282H509.712s28.063-2.2 44.555-3.66c5.114-.453 9.115-.835 10.822-1.056 7.214-.942 7.024-5.992 7.024-5.992s.024-1.073.013-3.05z" mask="url(#ypmqa7wsob)"/>
                    <g stroke="#000" stroke-width=".25" mask="url(#ypmqa7wsob)">
                        <g>
                            <path d="M.713.974C.713.712.927.5 1.191.5h13.856c.264 0 .478.212.478.474M.713 13.743c0-.262.214-.474.478-.474h13.856c.264 0 .478.212.478.474M.713 11.19c0-.263.214-.475.478-.475h13.856c.264 0 .478.212.478.474M.713 8.635c0-.262.214-.474.478-.474h13.856c.264 0 .478.212.478.474M.713 6.081c0-.262.214-.474.478-.474h13.856c.264 0 .478.212.478.474M.713 3.527c0-.262.214-.474.478-.474h13.856c.264 0 .478.212.478.474M6.447 31.472c0-.262.214-.474.478-.474h41.712c.264 0 .479.212.479.474M6.447 34.026c0-.262.214-.474.478-.474h41.712c.264 0 .479.212.479.474M6.447 36.58c0-.262.214-.474.478-.474h41.712c.264 0 .479.212.479.474M6.447 28.918c0-.26.214-.474.478-.474h41.712c.264 0 .479.213.479.474" transform="translate(18 69)"/>
                        </g>
                    </g>
                    <path fill="#0050A3" d="M61.921 66.838c.033-.11.052-.225.052-.345v-.791c0-.376-.175-.709-.448-.927.242-.216.395-.53.395-.88v-.792c0-.654-.535-1.184-1.194-1.184h-4.824c-.213 0-.413.056-.585.153-.2-.376-.598-.632-1.056-.632h-1c-.492 0-.915.296-1.098.718h-3.29c-.05 0-.098.003-.147.01-.182-.423-.606-.72-1.098-.72h-.993c-.397 0-.747.191-.965.486-.075-.015-.152-.023-.23-.023h-3.177c-.66 0-1.195.53-1.195 1.184v.793c0 .39.191.736.484.952-.333.096-.609.331-.753.647-.148.323-.143.694.015 1.013l.384.775c.132.27.357.466.62.573-.007.076-.012.15-.012.228 0 .835.445 1.577 1.221 2.037.601.356 1.401.543 2.313.543.91 0 1.708-.189 2.308-.544.331-.197.601-.444.802-.73.176.096.373.147.575.147.174 0 .352-.038.52-.117 1.07-.515 1.904-1.142 2.521-1.898v1.987c0 .654.535 1.185 1.194 1.185h1.001c.512 0 .947-.32 1.117-.769h6.07c.66 0 1.194-.53 1.194-1.184v-.808c0-.486-.297-.906-.72-1.087M114.513 63.199c-.665-.74-1.62-1.146-2.689-1.146-1.235 0-2.24.508-2.889 1.377-.683-.814-1.742-1.273-3.084-1.273h-1.527c-.225 0-.434.063-.613.169-.179-.106-.388-.17-.613-.17h-1.113c-.389 0-.734.187-.95.472-.579-.377-1.25-.575-1.977-.575-1.083 0-2.02.4-2.702 1.08l-.015-.015c-.687-.697-1.578-1.065-2.576-1.065-.989 0-1.859.335-2.522.912-.159-.47-.605-.808-1.13-.808h-1.055c-.442 0-.828.239-1.034.593-.213-.366-.608-.593-1.035-.593h-1.136c-.498 0-.924.303-1.104.732-.635-.541-1.46-.836-2.369-.836-.843 0-1.579.238-2.168.666-.21-.337-.586-.562-1.014-.562h-3.416c-.112 0-.22.017-.323.045-.102-.028-.21-.045-.322-.045h-1.16c-.448 0-.857.25-1.06.64-.205-.39-.612-.64-1.06-.64h-1.183c-.252 0-.492.08-.69.22-.465-.211-.975-.324-1.517-.324-2.24 0-3.866 1.713-3.866 4.074 0 1.197.384 2.216 1.11 2.946.695.699 1.673 1.084 2.756 1.084 1.008 0 1.995-.375 2.642-1.004.022-.021.042-.044.062-.067.104.55.59.966 1.174.966h1.113c.566 0 1.038-.39 1.162-.914.124.524.596.914 1.162.914h3.5c.418 0 .786-.214 1-.538.58.412 1.293.643 2.098.643.931 0 1.741-.31 2.363-.852.176.437.606.747 1.11.747h1.054c.444 0 .833-.241 1.038-.6.212.37.608.6 1.038.6h1.13c.514 0 .952-.324 1.12-.778.674.57 1.56.883 2.532.883 1.004 0 1.987-.373 2.634-.997.687.642 1.624.997 2.66.997.72 0 1.426-.194 2.008-.532.218.26.55.427.918.427h1.113c.225 0 .434-.062.613-.17.18.108.388.17.613.17h1.587c1.148 0 2.118-.36 2.806-1.041.076-.076.154-.163.233-.26.653.882 1.661 1.406 2.874 1.406 2.17 0 3.684-1.676 3.684-4.075 0-1.162-.344-2.16-.995-2.883" mask="url(#ypmqa7wsob)"/>
                    <path fill="#FEFEFE" d="M73.42 64.686c-.157.411-.323.8-.496 1.224h-.03c-.173-.425-.324-.813-.482-1.224l-.556-1.344h-1.182l1.671 3.501v2.024h1.113v-2.024l1.678-3.5h-1.159l-.557 1.343zM76.896 66.463L78.852 66.463 78.852 65.537 76.896 65.537 76.896 64.261 79.198 64.261 79.198 63.342 75.782 63.342 75.782 68.867 79.281 68.867 79.281 67.941 76.896 67.941zM45.34 68.71c-.857 0-1.36-.217-1.36-.635 0-.418.503-.635 1.36-.635.851 0 1.354.217 1.354.635 0 .418-.503.635-1.354.635m0-2.03c-1.414 0-2.34.536-2.34 1.395 0 .86.926 1.396 2.34 1.396 1.407 0 2.333-.537 2.333-1.396 0-.859-.926-1.396-2.333-1.396M68.293 66.716h.986v1.09c-.158.135-.428.21-.7.21-1.09 0-1.647-.725-1.647-1.927 0-1.187.646-1.903 1.572-1.903.504 0 .82.201 1.091.463l.594-.703c-.36-.365-.917-.709-1.722-.709-1.483 0-2.672 1.068-2.672 2.89 0 1.843 1.151 2.844 2.672 2.844.774 0 1.43-.299 1.805-.665v-2.493h-1.979v.903zM58.799 66.493L60.778 66.493 60.778 65.701 56.903 65.701 56.903 63.895 60.726 63.895 60.726 63.104 55.903 63.104 55.903 66.493 57.806 66.493 57.806 67.926 55.172 67.926 55.172 68.732 61.447 68.732 61.447 67.926 58.799 67.926zM53.26 69.501L54.261 69.501 54.261 62.626 53.26 62.626zM82.38 68.016c-.828 0-1.354-.754-1.354-1.934 0-1.187.526-1.896 1.354-1.896.827 0 1.354.709 1.354 1.896 0 1.18-.527 1.934-1.354 1.934m0-4.778c-1.476 0-2.49 1.046-2.49 2.844 0 1.792 1.014 2.89 2.49 2.89 1.475 0 2.49-1.098 2.49-2.89 0-1.791-1.015-2.844-2.49-2.844" mask="url(#ypmqa7wsob)"/>
                    <path fill="#FEFEFE" d="M45.198 64.507h1.437v.634h-1.527v.792h1.527v.657h.994v-3.957h-.994v1.09h-1.242c.03-.201.046-.41.046-.627h-3.176v.791h2.092c-.128.933-.887 1.673-2.468 2.091l.384.776c1.528-.426 2.498-1.164 2.927-2.247M89.058 65.545c0 .627.083 1.359.144 1.934h-.039l-.556-1.195-1.618-2.941h-1.136v5.524h1.054V66.65c0-.635-.083-1.33-.136-1.926h.038l.563 1.187 1.611 2.956h1.129v-5.524h-1.054v2.202zM111.824 68.016c-.827 0-1.354-.754-1.354-1.934 0-1.187.527-1.896 1.354-1.896.827 0 1.354.709 1.354 1.896 0 1.18-.527 1.934-1.354 1.934m0-4.778c-1.475 0-2.49 1.046-2.49 2.844 0 1.792 1.015 2.89 2.49 2.89 1.475 0 2.49-1.098 2.49-2.89 0-1.791-1.015-2.844-2.49-2.844M105.784 67.978h-.347v-3.755h.347c1.038 0 1.686.508 1.686 1.86 0 1.343-.648 1.895-1.686 1.895m.067-4.636h-1.527v5.525h1.588c1.64 0 2.693-.926 2.693-2.785 0-1.866-1.053-2.74-2.754-2.74M48.873 64.126h2.311c-.144 1.523-.912 2.598-2.679 3.441l.518.777c2.461-1.179 3.176-2.897 3.176-5.002h-3.326v.784zM93.592 66.716h.985v1.09c-.157.135-.428.21-.699.21-1.09 0-1.648-.725-1.648-1.927 0-1.187.647-1.903 1.573-1.903.504 0 .82.201 1.091.463l.594-.703c-.36-.365-.917-.709-1.723-.709-1.483 0-2.67 1.068-2.67 2.89 0 1.843 1.15 2.844 2.67 2.844.775 0 1.43-.299 1.806-.665v-2.493h-1.979v.903zM98.884 66.716h.986v1.09c-.158.135-.428.21-.7.21-1.09 0-1.647-.725-1.647-1.927 0-1.187.647-1.903 1.572-1.903.505 0 .82.201 1.091.463l.594-.703c-.36-.365-.917-.709-1.722-.709-1.483 0-2.67 1.068-2.67 2.89 0 1.843 1.15 2.844 2.67 2.844.774 0 1.43-.299 1.805-.665v-2.493h-1.979v.903zM101.985 68.867L103.098 68.867 103.098 63.343 101.985 63.343z" mask="url(#ypmqa7wsob)"/>
                </g>
            </g>
        </g>
    </g>
</svg>
