<svg xmlns="http://www.w3.org/2000/svg" width="70" height="70" viewBox="0 0 70 70">
    <g fill="none" fill-rule="evenodd">
        <g fill="#FEFEFE">
            <g>
                <g>
                    <g>
                        <g>
                            <path d="M32.5 50c0 2.758-2.242 5-5 5-2.757 0-5-2.242-5-5 0-.085.028-.162.033-.25h9.935c.005.088.032.165.032.25zM10 27.5C10 17.85 17.853 10 27.5 10 37.148 10 45 17.85 45 27.5v17.248H10V27.5zm42.498 17.248H50V27.5c0-10.677-7.542-19.66-17.557-21.93.02-.19.057-.375.057-.57 0-2.76-2.24-5-5-5s-5 2.24-5 5c0 .195.038.38.055.57C12.543 7.84 5 16.823 5 27.5v17.248H2.5c-1.375 0-2.5 1.127-2.5 2.502 0 1.375 1.125 2.5 2.5 2.5h15.018c-.003.085-.018.165-.018.25 0 5.523 4.478 10 10 10 5.523 0 10-4.477 10-10 0-.085-.015-.165-.017-.25h15.015c1.377 0 2.502-1.125 2.502-2.5s-1.125-2.502-2.502-2.502z" transform="translate(-929 -493) translate(0 450) translate(847) translate(82 43) translate(7.5 5)"/>
                        </g>
                    </g>
                </g>
            </g>
        </g>
    </g>
</svg>
