<svg xmlns="http://www.w3.org/2000/svg" width="88" height="88" viewBox="0 0 88 88">
    <g fill="none" fill-rule="evenodd">
        <g>
            <g>
                <g>
                    <path fill="#FFF" stroke="#FFF" stroke-width="4" d="M38.1 0l.032.004C38.155 0 38.175 0 38.198 0h0c5.557.036 11.121.562 16.4 2.008 2.156.588 4.292 1.367 6.104 2.665 5.752 4.117 7.158 12.15 6.677 18.722-.454 6.168-.778 12.391-1.246 18.591h2.45c1.719 0 3.122-1.729 3.122-3.853h1.628c0 3.233-2.13 5.867-4.75 5.867h-2.608c-.28 3.454-.615 6.898-1.052 10.319-.148 1.164-.308 2.365-.898 3.389-.882 1.525-2.62 2.426-4.373 2.733-.124.022-.28.043-.464.063l-.134.014v4.638c0 1.227-1.459 2.236-3.282 2.307l-.204.004h-2.199c-1.852 0-3.375-.966-3.48-2.176l-.007-.135v-4.287l-.14.002c-2.939.05-6.274.08-9.68.09l-.931.002h-1.532 0l-.932-.001c-3.567-.007-7.072-.038-10.144-.09l-.137-.003v-.181l-9.176-.278-.001.108-.13-.014c-.138-.015-.26-.03-.364-.047l-.099-.016c-1.76-.307-3.495-1.208-4.373-2.733-.594-1.024-.754-2.225-.902-3.39-.437-3.42-.772-6.864-1.053-10.318H7.68c-2.616 0-4.747-2.634-4.747-5.867h1.625c0 2.124 1.403 3.854 3.122 3.854h2.45c-.468-6.2-.792-12.424-1.242-18.592-.484-6.572.922-14.605 6.678-18.722 1.808-1.298 3.948-2.077 6.103-2.665C26.95.562 32.513.036 38.066.004h0c.023-.004.046-.004.066 0zM17.21 60.518l.015.001c1.542.156 4.813.271 8.901.345l.26.005.001 4.286c0 1.227-1.46 2.236-3.283 2.307l-.204.004h-2.202c-1.85 0-3.375-.966-3.481-2.176l-.006-.135-.001-4.637zm41.846-.107l-9.173.278v.18l.259-.005c4.089-.074 7.36-.19 8.903-.345l.01-.001v-.107zM2.932 26.4c1.614 0 2.935 1.402 2.935 3.123v5.49c0 1.654-1.228 3.02-2.763 3.115l-.172.005C1.32 38.133 0 36.728 0 35.013v-5.49C0 27.802 1.32 26.4 2.932 26.4zm70.4 0c1.614 0 2.935 1.402 2.935 3.123h0v5.49c0 1.715-1.321 3.12-2.935 3.12h0l-.172-.005c-1.532-.095-2.76-1.461-2.76-3.114h0v-5.491c0-1.721 1.32-3.123 2.932-3.123z" transform="translate(-221 -1210) translate(221 1210) translate(5.867 11.733)"/>
                    <path fill="#000" d="M17.6 58.667l8.8.23v6.648c0 1.058-1.505 1.922-3.344 1.922h-2.112c-1.839 0-3.344-.864-3.344-1.922v-6.878zm41.067 0v6.878c0 1.058-1.506 1.922-3.346 1.922h-2.109c-1.843 0-3.345-.864-3.345-1.922v-6.648l8.8-.23z" transform="translate(-221 -1210) translate(221 1210) translate(5.867 11.733)"/>
                    <path fill="#EF4F30" d="M38.1 0l.032.004C38.155 0 38.175 0 38.198 0c5.557.036 11.121.568 16.4 2.03 2.156.593 4.292 1.38 6.104 2.691 5.752 4.16 7.158 12.277 6.677 18.919-.444 6.086-.763 12.227-1.214 18.346h2.419c1.248 0 2.33-2.46 2.828-4.62-.619-.574-1.012-1.417-1.012-2.352v-5.491c0-1.721 1.32-3.123 2.932-3.123 1.614 0 2.935 1.402 2.935 3.123v5.49c0 1.715-1.321 3.12-2.935 3.12l-.172-.005c-.081-.005-.162-.014-.242-.026C72.175 40.983 70.511 44 68.584 44H66.01c-.287 3.645-.632 7.278-1.088 10.886-.148 1.177-.308 2.39-.898 3.424-.882 1.541-2.62 2.452-4.373 2.762-1.89.335-11.048.513-20.521.527h-1.998c-9.473-.014-18.626-.192-20.517-.527-1.76-.31-3.495-1.22-4.373-2.762-.594-1.034-.754-2.247-.902-3.424-.456-3.608-.801-7.241-1.09-10.885L7.68 44c-1.926 0-3.589-3.018-4.332-5.9-.08.014-.162.023-.244.028l-.172.005C1.32 38.133 0 36.728 0 35.013v-5.49C0 27.802 1.32 26.4 2.932 26.4c1.614 0 2.935 1.402 2.935 3.123v5.49c0 .937-.394 1.781-1.015 2.354.498 2.16 1.58 4.62 2.828 4.62h2.418c-.451-6.12-.77-12.26-1.21-18.347-.484-6.642.922-14.758 6.678-18.919 1.808-1.311 3.948-2.098 6.103-2.692C26.95.57 32.513.036 38.066.004c.023-.004.046-.004.066 0zm16.815 47.323c-2.573 0-4.658 1.949-4.658 4.35 0 2.4 2.085 4.353 4.658 4.353 2.577 0 4.666-1.953 4.666-4.353 0-2.401-2.089-4.35-4.666-4.35zm-33.566 0c-2.577 0-4.663 1.949-4.663 4.35 0 2.4 2.086 4.353 4.663 4.353 2.577 0 4.662-1.953 4.662-4.353 0-2.401-2.085-4.35-4.662-4.35zm38.525-29.068H16.39c-1.46 0-2.628 1.191-2.562 2.609l.875 18.484c.086 1.811 1.616 3.239 3.483 3.239h39.673c1.851 0 3.374-1.406 3.484-3.199l1.093-18.492c.082-1.435-1.086-2.64-2.562-2.64zM46.941 6.375H29.327c-1.008 0-1.836.769-1.836 1.705v1.647c0 .94.828 1.708 1.836 1.708H46.94c1.008 0 1.832-.768 1.832-1.708V8.08c0-.936-.824-1.705-1.832-1.705z" transform="translate(-221 -1210) translate(221 1210) translate(5.867 11.733)"/>
                </g>
            </g>
        </g>
    </g>
</svg>
