<svg xmlns="http://www.w3.org/2000/svg" width="112" height="112" viewBox="0 0 112 112">
    <g fill="none" fill-rule="evenodd">
        <g fill="#FFF">
            <g>
                <g>
                    <path d="M68 88.002c-1.02 0-2.044-.388-2.824-1.168l-28-27.912C36.424 58.174 36 57.158 36 56.094c0-1.06.416-2.076 1.168-2.828l28-28.088c1.556-1.564 4.088-1.572 5.656-.008 1.564 1.56 1.568 4.092.008 5.656L45.656 56.082 70.824 81.17c1.564 1.56 1.568 4.092.008 5.656-.78.784-1.808 1.176-2.832 1.176" transform="translate(-20 -1782) translate(0 1755) translate(20 27)"/>
                </g>
            </g>
        </g>
    </g>
</svg>
