<svg xmlns="http://www.w3.org/2000/svg" width="112" height="112" viewBox="0 0 112 112">
    <g fill="none" fill-rule="evenodd">
        <g fill-rule="nonzero">
            <g>
                <g>
                    <path d="M0 0H112V112H0z" transform="translate(-484 -1782) translate(0 1755) translate(484 27)"/>
                    <path fill="#FFF" d="M48.35 14.443c4.564-3.257 10.734-3.257 15.297 0l42.566 30.421c1.937 1.384 2.366 4.05.958 5.949-1.409 1.903-4.121 2.325-6.054.941L95 47.381v39.844c0 7.056-5.82 12.775-13 12.775h-52c-7.18 0-13-5.719-13-12.775V47.381l-6.118 4.373c-1.933 1.384-4.645.962-6.054-.941-1.404-1.9-.979-4.565.958-5.949zm5.101 6.886l-27.785 19.86v46.036c0 2.35 1.941 4.258 4.333 4.258h8.667V69.601c0-7.056 5.82-12.775 13-12.775h8.666c7.18 0 13 5.719 13 12.775v21.882H82c2.392 0 4.333-1.907 4.333-4.258V41.19L58.547 21.33c-1.517-1.086-3.575-1.086-5.096 0zm6.881 44.013h-8.666c-2.392 0-4.334 1.908-4.334 4.259v21.882h17.334V69.601c0-2.351-1.942-4.259-4.334-4.259z" transform="translate(-484 -1782) translate(0 1755) translate(484 27)"/>
                </g>
            </g>
        </g>
    </g>
</svg>
