<svg xmlns="http://www.w3.org/2000/svg" width="80" height="80" viewBox="0 0 80 80">
    <g fill="none" fill-rule="evenodd">
        <g fill-rule="nonzero">
            <g>
                <g>
                    <path d="M0 0H80V80H0z" transform="translate(-350 -1580) translate(60 1545) translate(290 35)"/>
                    <path fill="#1A4AA8" d="M34.536 10.317c3.26-2.327 7.667-2.327 10.926 0l30.405 21.729c1.383.988 1.69 2.892.684 4.249-1.006 1.36-2.944 1.66-4.324.672l-4.37-3.124v28.46c0 5.04-4.158 9.126-9.286 9.126H21.428c-5.129 0-9.285-4.085-9.285-9.125v-28.46l-4.37 3.123c-1.381.989-3.319.688-4.325-.672-1.003-1.357-.7-3.26.684-4.25zm3.643 4.918L18.333 29.42v32.883c0 1.679 1.387 3.041 3.095 3.041h6.19v-15.63c0-5.04 4.157-9.125 9.286-9.125h6.19c5.13 0 9.286 4.085 9.286 9.125v15.63h6.19c1.71 0 3.096-1.362 3.096-3.041V29.42L41.819 15.235c-1.083-.776-2.553-.776-3.64 0zm4.916 31.438h-6.19c-1.71 0-3.096 1.363-3.096 3.042v15.63h12.38v-15.63c0-1.68-1.386-3.042-3.094-3.042z" transform="translate(-350 -1580) translate(60 1545) translate(290 35)"/>
                </g>
            </g>
        </g>
    </g>
</svg>
