<svg xmlns="http://www.w3.org/2000/svg" width="80" height="80" viewBox="0 0 80 80">
    <g fill="none" fill-rule="evenodd">
        <g fill="#FFF" fill-rule="nonzero">
            <g>
                <g>
                    <path d="M46.341 8.63c-1.563-.316-3.054.684-3.377 2.24-.317 1.56.677 3.087 2.223 3.41C59.07 17.164 68.04 30.92 65.184 44.933c-2.863 14.02-16.489 23.077-30.369 20.188-13.888-2.885-22.857-16.64-19.997-30.657.832-4.083 2.655-7.888 5.235-11.103v4.82c0 1.592 1.277 2.883 2.857 2.883 1.58 0 2.857-1.291 2.857-2.883v-14.42H11.48c-1.58 0-2.857 1.289-2.857 2.883s1.277 2.883 2.857 2.883h4.297c-3.237 3.971-5.523 8.697-6.557 13.774-3.497 17.132 7.469 33.943 24.44 37.469 2.132.443 4.254.657 6.349.657 14.594 0 27.711-10.346 30.771-25.331 3.492-17.132-7.474-33.94-24.44-37.466" transform="translate(-923 -1598) translate(890 1565) translate(33 33)"/>
                </g>
            </g>
        </g>
    </g>
</svg>
