<svg xmlns="http://www.w3.org/2000/svg" width="80" height="80" viewBox="0 0 80 80">
    <g fill="none" fill-rule="evenodd">
        <g fill="#222" fill-rule="nonzero">
            <g>
                <g>
                    <path d="M34.83 5.714c16.08 0 29.115 12.939 29.115 28.899 0 6.654-2.266 12.782-6.073 17.667l15.3 15.452c1.503 1.517 1.482 3.957-.047 5.449-1.53 1.491-3.987 1.47-5.49-.048L52.348 57.697c-4.874 3.65-10.942 5.814-17.518 5.814-16.08 0-29.116-12.938-29.116-28.898 0-15.96 13.036-28.899 29.116-28.899zm0 7.707c-11.792 0-21.352 9.488-21.352 21.192s9.56 21.192 21.352 21.192 21.35-9.488 21.35-21.192S46.623 13.42 34.83 13.42z" transform="translate(-350 -1240) translate(60 1205) translate(290 35)"/>
                </g>
            </g>
        </g>
    </g>
</svg>
