<svg xmlns="http://www.w3.org/2000/svg" width="48" height="48" viewBox="0 0 48 48">
    <g fill="none" fill-rule="evenodd">
        <g fill="#1A4AA8" fill-rule="nonzero">
            <g>
                <g>
                    <path d="M25.59 0c2.115 0 3.834 1.72 3.834 3.834v2.637c1.085.335 2.131.768 3.132 1.298l1.864-1.865c1.45-1.447 3.978-1.447 5.424 0l2.25 2.25c.725.725 1.124 1.688 1.124 2.712 0 1.023-.399 1.988-1.124 2.712l-1.866 1.865c.532 1 .965 2.047 1.3 3.13h2.636c2.115 0 3.836 1.72 3.836 3.835v3.183c0 2.114-1.72 3.834-3.836 3.834h-2.636c-.335 1.084-.768 2.132-1.3 3.131l1.866 1.864c.725.725 1.124 1.69 1.124 2.714 0 1.023-.399 1.987-1.124 2.71l-2.25 2.25c-1.446 1.447-3.974 1.45-5.424 0l-1.864-1.864c-1 .53-2.047.965-3.132 1.298v2.636c0 2.115-1.719 3.836-3.834 3.836h-3.181c-2.115 0-3.836-1.72-3.836-3.836v-2.636c-1.083-.334-2.131-.768-3.132-1.298l-1.865 1.864c-1.449 1.45-3.976 1.447-5.422 0l-2.25-2.25c-.724-.723-1.123-1.687-1.123-2.71 0-1.025.399-1.989 1.123-2.714l1.865-1.864c-.53-.999-.965-2.047-1.298-3.13H3.834C1.719 29.425 0 27.704 0 25.591v-3.183c0-2.115 1.719-3.836 3.834-3.836h2.637c.333-1.083.768-2.13 1.298-3.13l-1.865-1.865c-.724-.724-1.123-1.689-1.123-2.712 0-1.024.399-1.987 1.123-2.712l2.25-2.25c1.446-1.447 3.973-1.447 5.422 0l1.865 1.865c1-.53 2.049-.963 3.132-1.298V3.834C18.573 1.72 20.293 0 22.408 0zm0 2.505h-3.181c-.735 0-1.331.597-1.331 1.329v4.563l-.948.237c-1.502.378-2.934.97-4.258 1.765l-.838.503-3.228-3.228c-.52-.518-1.363-.518-1.882 0l-2.25 2.25c-.518.519-.518 1.365 0 1.883l3.228 3.227-.502.837c-.796 1.325-1.388 2.757-1.766 4.26l-.237.947H3.834c-.734 0-1.33.597-1.33 1.33v3.183c0 .734.596 1.331 1.33 1.331h4.563l.237.947c.378 1.501.97 2.933 1.765 4.258l.503.838-3.228 3.227c-.518.519-.518 1.364 0 1.883l2.25 2.25c.519.52 1.362.517 1.883 0l3.227-3.227.837.502c1.325.794 2.757 1.386 4.259 1.764l.948.238v4.563c0 .735.596 1.33 1.33 1.33h3.182c.733 0 1.33-.595 1.33-1.33v-4.563l.947-.237c1.503-.379 2.935-.971 4.259-1.765l.84-.502 3.226 3.227c.516.517 1.359.52 1.883 0l2.25-2.25c.518-.52.518-1.364 0-1.883l-3.227-3.227.501-.838c.795-1.325 1.386-2.757 1.764-4.259l.237-.946h4.564c.734 0 1.331-.597 1.331-1.33v-3.183c0-.734-.597-1.331-1.33-1.331H39.6l-.237-.947c-.378-1.503-.969-2.935-1.764-4.26l-.501-.837 3.227-3.228c.518-.517.518-1.363 0-1.882l-2.25-2.25c-.524-.518-1.367-.518-1.883 0l-3.227 3.228-.84-.502c-1.323-.796-2.755-1.388-4.258-1.766l-.947-.237V3.834c0-.732-.597-1.329-1.33-1.329zM23.999 13.24c5.934 0 10.76 4.826 10.76 10.76 0 5.932-4.826 10.76-10.76 10.76-5.933 0-10.76-4.828-10.76-10.76 0-5.934 4.827-10.76 10.76-10.76zm0 2.504c-4.553 0-8.255 3.703-8.255 8.256 0 4.552 3.702 8.254 8.255 8.254 4.552 0 8.256-3.702 8.256-8.254 0-4.553-3.704-8.256-8.256-8.256z" transform="translate(-893 -213) translate(863 189) translate(30 24)"/>
                </g>
            </g>
        </g>
    </g>
</svg>
